<svg xmlns="http://www.w3.org/2000/svg" viewBox="0 0 1425 693"><title>converter</title><g style="isolation:isolate"><path d="M454.73063,188.55609a13.9056,13.9056,0,0,0-13.90633-13.90588H411.11519a13.90541,13.90541,0,0,0-13.90543,13.90588V526.39941a13.90534,13.90534,0,0,0,13.90543,13.90537h29.70911a13.90553,13.90553,0,0,0,13.90633-13.90537V380.20521h37.16284v-66.441l-37.16284-.00045Z" style="fill:#3f5d6f;fill-rule:evenodd"/><path d="M1318.15315,211.28219a28.999,28.999,0,0,0-28.99919,28.99958v67.72295h-28.10568V536.56713l28.10568-.0009v84.402a28.99873,28.99873,0,0,0,28.99919,28.99924h27.0937a492.56857,492.56857,0,0,0,6.20843-438.68526Z" style="fill:#3f5d6f;fill-rule:evenodd"/><path d="M719.48427,60.67112h63.94906V92.51175H933.56421V60.67112h80.3478a16.19989,16.19989,0,0,0,16.19979-16.19985V28.07343A16.19991,16.19991,0,0,0,1013.912,11.87364H719.48427a16.19914,16.19914,0,0,0-16.19888,16.19979V44.47128A16.19912,16.19912,0,0,0,719.48427,60.67112Z" style="fill:#3f5d6f;fill-rule:evenodd"/><path d="M1227.26575,344.73578v-.08914l-.00543-36.64193.00543-43.33554v-31.719h0l-.00543-14.17945a47.73025,47.73025,0,0,0-47.73028-47.73022h-72.17149l-49.85733-49.85739-123.937-.00045H783.43333l-108.7058.00045-77.197,77.19707-.10671,1.16295h-27.356a47.7289,47.7289,0,0,0-47.77911,47.77917l-.028,66.44192v66.441l.01176,76.31611.01628-76.31611V520.41973a47.7789,47.7789,0,0,0,47.77911,47.77917l120.079.00356.15917.105v31.45181h48.01085l108.78335,71.26346a47.51946,47.51946,0,0,0,27.60014,8.78319h304.82968a47.72953,47.72953,0,0,0,47.73028-47.72943l.02442-63.769.01176-31.7403-.01266-80.0458Z" style="fill:#3f5d6f;fill-rule:evenodd"/><rect x="282.48337" y="-149.61857" width="582.7041" height="935.48972" style="fill:none"/><rect x="529.62508" y="355.53023" width="116.80039" height="48.90782" style="fill:#b9b9ba"/><rect x="554.95067" y="355.50168" width="10.88532" height="48.90932" style="fill:#b9b9ba;mix-blend-mode:multiply"/><rect x="529.6146" y="379.98025" width="116.7974" height="24.4578" style="fill:#b9b9ba;mix-blend-mode:multiply"/><path d="M25.5454,319.23431l.0479-48.9066,102.52049.09772c17.69714.01763,38.56954,10.055,49.63436,23.86187L204.00729,327.057c1.868,2.31613,8.54229,5.5224,11.517,5.531l111.92428.11291-.04491,48.909-111.92728-.10932c-17.69714-.01763-38.57254-10.05263-49.63406-23.86217L139.57988,324.872c-1.865-2.31912-8.539-5.52569-11.5137-5.53429Z" style="fill:#b9b9ba"/><path d="M259.63769,357.0902l-44.13467-.04592c-12.0688-.01182-27.43546-7.39378-34.97418-16.814l-26.2971-32.81312c-5.455-6.7645-17.40722-12.5039-26.1446-12.5355l-40.4409-.03691-43.26659-.04238-18.8103-.02112-.02395,24.453,102.52078.1034c2.9747.0086,9.64873,3.21517,11.5137,5.53429l26.26243,32.7664c11.06152,13.80953,31.93692,23.84453,49.63406,23.86217l44.13737.04323Z" style="fill:#b9b9ba;mix-blend-mode:multiply"/><rect x="227.69479" y="349.59193" width="48.90932" height="14.97948" transform="translate(-105.19441 608.85941) rotate(-89.94038)" style="fill:#b9b9ba;mix-blend-mode:multiply"/><path d="M278.38283,426.69276A18.87134,18.87134,0,0,1,259.588,407.861l.09947-101.565a18.867,18.867,0,0,1,18.82872-18.79188l257.71135.2524a18.87263,18.87263,0,0,1,18.79516,18.832l-.09946,101.565a18.86,18.86,0,0,1-18.82872,18.79188Z" style="fill:#e1e1e1"/><path d="M459.55819,426.87349l.142-139.19188,17.03074.01668-.139,139.18889ZM356.202,426.76928l.133-139.18892-17.03074-.01668-.139,139.18891Z" style="fill:#b9b9ba"/><path d="M554.92322,408.15359l.04972-50.77683-295.33525-.28655L259.588,407.861a18.87134,18.87134,0,0,0,18.79487,18.83172l257.71166.2527A18.86,18.86,0,0,0,554.92322,408.15359Z" style="fill:#b9b9ba;mix-blend-mode:multiply"/></g></svg>