<svg xmlns="http://www.w3.org/2000/svg" viewBox="0 0 1061.30483 914.02856"><title>frame9-wrench</title><path d="M880.25343,334.78913c-14.227,1.40511-53.44418,30.04-64.759,54.43355-7.33136,15.799-3.127,16.37064-21.20658,16.4276l-415.03035,1.34815V600.99266l412.60289-1.34015c16.72242-.054,25.50086,11.025,40.94309,11.28586q60.18241,1.14677,120.39081,2.30054c-.68057-72.77295-.91242-144.52054.17189-216.3201-14.82962.30381-40.16958-.51467-54.9912-.20887-.36477-5.39159-.031-9.0143.25784-14.83361C899.60218,362.22577,885.704,353.14851,880.25343,334.78913Z" style="fill:#735946;fill-rule:evenodd"/><polygon points="784.265 393.599 784.265 611.134 0 611.134 3 393.599 784.265 393.599" style="fill:#ed1c24;fill-rule:evenodd"/><rect y="393.59891" width="784.26517" height="91.03939" style="fill:#ed1c24"/><path d="M890.7268,914.02856a111.38772,111.38772,0,0,1,1.36514-204.06786c-.3228-164.13213-6.91762-311.08413-7.49526-476.54242A127.19835,127.19835,0,0,1,881.76647.39075l.41374,107.461c.25484,68.07992,104.1321,67.67717,103.86627-.39375L985.64673,0a127.18695,127.18695,0,0,1-1.05633,233.02453c.58063,165.66516-5.25767,312.50024-4.93788,476.80626a111.37312,111.37312,0,0,1,2.03971,204.04687l-.1639-94.10145c-.09094-59.60328-91.05138-59.46137-90.95444.14791Z" style="fill:#818181;fill-rule:evenodd"/><path d="M923.04935,421.1175h0c.09094-13.76229,5.09078-24.9632,11.111-24.89525L1034.23,397.37852c6.02019.071,10.87312,11.3848,10.78218,25.14709h0c-.08794,13.76229-5.08778,24.9662-11.108,24.89225l-100.06967-1.15327C927.81133,446.19363,922.9614,434.88279,923.04935,421.1175Z" style="fill:#735946;fill-rule:evenodd"/><path d="M917.61279,475.85386h0c.09994-14.97752,6.09714-23.674,12.649-23.60006l108.89808,1.2572c6.55185.074,11.27487,8.89837,11.17493,23.87589h0c-.09594,14.97652-5.5355,27.16681-12.08735,27.08986l-108.90308-1.25421C922.79151,503.14559,917.51385,490.83438,917.61279,475.85386Z" style="fill:#735946;fill-rule:evenodd"/><path d="M927.26168,534.4088h0c.08495-13.2806,4.90989-24.09075,10.71722-24.0228l96.56589,1.1133c5.80732.068,10.48736,10.986,10.39942,24.26664h0c-.08495,13.2806-4.90689,24.09075-10.71622,24.0228l-96.56389-1.1133C931.85377,558.60749,927.17374,547.6894,927.26168,534.4088Z" style="fill:#735946;fill-rule:evenodd"/><path d="M930.88239,588.66946h0c.08195-12.86086,4.753-23.32624,10.37943-23.26028l88.13822.82448c5.62344.053,10.15857,10.63727,10.07362,23.49813h0c-.08495,12.85786-4.753,23.32524-10.37943,23.26028l-88.13822-.82748C935.32957,612.11163,930.79744,601.52733,930.88239,588.66946Z" style="fill:#735946;fill-rule:evenodd"/><path d="M1004.233,362.18879h0c.037,15.37927-5.40458,27.97929-12.09634,28.01127l-111.21462.4817c-6.69077.028-12.19528-12.52707-12.23226-27.90434h0c-.037-15.37927,5.40558-27.98029,12.09634-28.01127l111.21462-.4817C998.69248,334.25647,1004.196,346.81152,1004.233,362.18879Z" style="fill:#735946;fill-rule:evenodd"/></svg>