<svg xmlns="http://www.w3.org/2000/svg" viewBox="0 0 1137.80367 358.45458"><title>frame4-car</title><path d="M1077.73036,311.90839c12.07028-.05644,34.47409-1.60248,40.92134-15.96612,7.18182-21.297,19.152-58.15406,19.152-65.25714,0-10.64848-17.95409-17.74018-25.1359-28.3882-7.18182-10.64848,3.59045-39.03577-14.36363-46.1393-57.45408-24.84189-112.45732-40.5272-162.85382-40.5272-42.63852,0-70.01771-2.05487-105.92542-12.71473C746.93445,78.07381,653.56082,7.0917,574.56175,0H395.01813c-50.28316,3.54631-118.51,14.19478-165.19089,39.03713C157.99864,74.52751,81.302,97.1343,23.84886,93.5889v39.03577c0,10.64848-11.56327,21.50039-11.56327,32.14887C12.28559,189.6168,0,188.10307,0,212.945v10.638c0,49.69562,15.96752,69.23171,84.19292,76.33343,0,0,18.27089-.2485,31.84443-1.24157l225.7052,24.51466c16.2715-.10195,37.24077-.51929,49.23276.21527l463.07106.36046ZM450.959,34.6443c0-14.81466,54.06615-11.11088,61.27027-11.11088,93.70086,0,100.55542,2.32522,215.88095,68.97093L705.888,92.685c-6.866,0-11.74441,2.25922-11.74441,13.3701,0,7.40756,9.10243,17.43479,12.70426,21.13857H479.78771C468.98085,97.57486,450.959,42.0514,450.959,34.6443ZM231.26087,102.21619c0-35.18635,109.29517-64.43291,162.8657-75.1492,12.52267-2.50681,26.18541,5.88336,28.78279,18.37234,3.286,15.84278,4.9235,31.742,4.9235,40.12032v41.63406H245.828A28.35759,28.35759,0,0,1,231.26087,102.21619Z" style="fill:#262262;fill-rule:evenodd"/><path d="M883.41672,277.513A80.9413,80.9413,0,1,0,964.3578,196.572,80.945,80.945,0,0,0,883.41672,277.513Z" style="fill:#304756;fill-rule:evenodd"/><path d="M150.31983,277.513a80.9413,80.9413,0,1,0,80.941-80.94108A80.94471,80.94471,0,0,0,150.31983,277.513Z" style="fill:#304756;fill-rule:evenodd"/><circle cx="231.26107" cy="277.51322" r="38.08642" style="fill:#6d6e71"/><circle cx="964.35796" cy="277.51322" r="38.08642" style="fill:#6d6e71"/></svg>