<svg xmlns="http://www.w3.org/2000/svg" xmlns:xlink="http://www.w3.org/1999/xlink" viewBox="0 0 3699.02892 1238.30036"><defs><clipPath id="a" transform="translate(0 -375.1226)"><rect x="242.03928" width="3207.32073" height="1088.46218" style="fill:none"/></clipPath></defs><title>frame3-dash</title><g style="clip-path:url(#a)"><ellipse cx="1849.51446" cy="618.12243" rx="1849.51446" ry="454.75318" style="fill:#262262;opacity:0.15"/><path d="M1475.12885,759.57187s-.1134,46.60384,28.0722,59.31312c28.19577,12.70578,132.28765-95.94337,245.01322-117.61381,112.73749-21.65641,270.97753,35.40386,328.93918,66.80108,57.95112,31.39982,81.93872,81.0667,164.559,14.186,0,0,31.54583,186.005-10.12791,232.62169-41.65971,46.612.11691-150.607-268.651-39.88619,0,0-31.52829,100.72148-35.27409,119.79652-3.73177,19.07971-25.86166,142.88274,67.2443,112.10968,0,0,6.78078,72.649-117.79853,61.91087-124.57931-10.73363-171.76407-61.29475-171.76407-61.29475s50.21975,15.2543,64.28753-2.3534c14.07129-17.61366,18.89967-73.67669,15.36081-105.36514-3.54588-31.67443-63.11831-141.40383-63.11831-141.40383s-164.78478-53.94812-210.0735-13.92515c-45.29211,40.02648,5.06033,100.0586,5.06033,100.0586s-116.13537-104.9431-41.72916-284.95529Z" transform="translate(0 -375.1226)" style="fill:#304756"/><path d="M1475.12885,759.57187s-10.14428,68.25674,31.15126,82.15266c29.3153,9.866,132.95018-90.11657,245.67528-111.77766,112.74568-21.65992,260.16453,29.74424,318.11916,61.14043,57.9558,31.39969,92.52609,81.9773,175.15458,15.09191,0,0,30.14992,134.20918-11.52265,180.82354-41.67024,46.61553.32384-143.4417-268.44292-32.73831,0,0-54.88925,117.76216-58.628,136.84083-3.73177,19.07855-25.39168,159.83,88.26823,115.79469,0,0,6.78078,72.649-117.79853,61.91087-124.57931-10.73363-171.76407-61.29475-171.76407-61.29475s68.33028,21.7628,82.39572,4.14914c14.06778-17.61717,18.98268-78.47584,15.43914-110.1539-3.54237-31.68833-75.55859-158.123-75.55859-158.123s-177.76191-56.28866-223.04455-16.26218c-45.28533,40.03,12.28514,117.401,12.28514,117.401s-116.13537-104.9431-41.72916-284.95529Z" transform="translate(0 -375.1226)" style="fill:#304756"/><path d="M2322.79659,891.133c-22.53908,261.45988-252.76529,455.15276-514.231,432.61731-261.4572-22.53791-455.14938-252.76424-432.615-514.231,22.53791-261.45638,252.76436-455.1482,514.22752-432.6138C2151.638,399.4433,2345.331,629.67316,2322.79659,891.133ZM1882.441,466.70762h0c-211.8704-18.26953-398.43049,138.68333-416.68716,350.55349-18.26368,211.869,138.68959,398.43048,350.55233,416.69065,211.87368,18.26017,398.43751-138.68684,416.69417-350.557S2094.31,484.96429,1882.441,466.70762Z" transform="translate(0 -375.1226)" style="fill:#304756"/><path d="M2300.662,889.2239c-21.48455,249.23928-240.94335,433.87058-490.192,412.39655-249.23134-21.48806-433.86592-240.95036-412.38838-490.18847,21.48806-249.24512,240.94639-433.87292,490.19433-412.393,249.23227,21.48455,433.87059,240.94451,412.386,490.185ZM1882.29486,468.40749h0C1671.3595,450.228,1485.63672,606.47821,1467.45254,817.40725c-18.17951,210.93138,138.07121,396.657,348.99977,414.84114,210.92554,18.18068,396.65813-138.07423,414.84115-348.99859,18.18068-210.93255-138.07306-396.65812-348.9986-414.84231Z" transform="translate(0 -375.1226)" style="fill:#304756"/><path d="M1617.97113,748.3906s-8.61305,99.95572,26.45534,154.22885c35.05874,54.26612,123.86709,129.12,120.89056,197.26109-2.16985,49.66688,170.28294,49.66688,168.11192,0-2.96952-68.14112,85.82948-142.995,120.8908-197.26109,35.07183-54.27313,26.45557-154.22885,26.45557-154.22885-31.70833-104.08264-431.09246-104.08264-462.80419,0Z" transform="translate(0 -375.1226)" style="fill:#304756"/><path d="M1651.52209,763.17036s-7.59588,90.4486,23.33349,139.54846c30.93252,49.11039,109.27228,116.84454,106.64765,178.4947-1.91265,44.94021,150.20949,44.94021,148.291,0-2.61878-61.65016,75.71794-129.38431,106.65-178.4947,30.93322-49.09987,23.33407-139.54846,23.33407-139.54846-27.98007-94.18037-380.27951-94.18037-408.25619,0Z" transform="translate(0 -375.1226)" style="fill:#304756"/><circle cx="1850.18343" cy="488.40998" r="117.10546" style="fill:#1b75bc"/><path d="M2412.22339,994.65919l-16.517-49.55465c-9.42061-29.10709-7.10111-35.86682-.93762-45.70948,25.75294-41.10673,39.1251-81.58448,43.09888-109.077,9.13652-25.88271-7.46938-50.74947-23.05933-50.33925,3.7154-27.41643-21.882-51.64486-37.79584-47.94-5.47373-26.91619-31.2103-50.4946-49.64-39.2537-13.47154-30.25982-34.06758-34.24074-61.61742-31.50608l24.32547,51.09786c-7.92416,53.11676-29.95235,77.78607-60.37818,94.65151-4.94763-17.68381-15.19713-40.82848-24.95327-60.62719-12.31881,15.81442-20.762,20.65683-21.49508,36.30159-1.6496,35.23447.13912,65.859,15.03229,104.74566,15.81442,41.27859,31.46633,43.51274,38.15358,90.39833l14.79029,73.77957,160.99327-16.96715Z" transform="translate(0 -375.1226)" style="fill:#fbbc95;fill-rule:evenodd"/><path d="M2215.13766,936.79679c28.10984,216.7044,43.64251,409.67735,75.37305,676.62616h318.71306c-61.88515-190.886-113.13967-453.70436-205.51962-697.06424l-188.5665,20.43808Z" transform="translate(0 -375.1226)" style="fill:#1c5f92"/><path d="M1286.80085,994.65919l16.517-49.55465c9.42178-29.10709,7.10228-35.86682.94113-45.70948-25.75294-41.10673-39.12394-81.58448-43.10121-109.077-9.133-25.88271,7.47289-50.74947,23.05816-50.33925-3.71072-27.41643,21.88322-51.64486,37.79584-47.94,5.4749-26.91619,31.215-50.4946,49.64467-39.2537,13.47037-30.25982,34.06758-34.24074,61.61625-31.50608l-24.3243,51.09786c7.92065,53.11676,29.95118,77.78607,60.3735,94.65151,4.94763-17.68381,15.1983-40.82848,24.95795-60.62719,12.31811,15.81442,20.7624,20.65683,21.491,36.30159,1.65077,35.23447-.13562,65.859-15.03194,104.74566-15.81418,41.27859-31.46259,43.51274-38.151,90.39833l-14.79029,73.77957-160.99678-16.96715Z" transform="translate(0 -375.1226)" style="fill:#fbbc95;fill-rule:evenodd"/><path d="M1483.89126,936.79679c-28.10984,216.7044-43.646,409.67735-75.37422,676.62616H1089.80514c61.88515-190.886,113.13616-453.70436,205.51611-697.06424l188.57,20.43808Z" transform="translate(0 -375.1226)" style="fill:#1c5f92"/></g></svg>