<svg xmlns="http://www.w3.org/2000/svg" viewBox="0 0 1086.53733 1305.79434"><title>frame5-head</title><path d="M1073.75616,698.25488C1020.0459,607.92133,1007.192,586.76224,978.60031,528.31c-29.209-59.71365,3.333-120.943-3.16165-179.19972C944.33856,70.14,660.17978-9.80757,417.69732.93259c-231.883,10.2704-382.5181,188.7-412.93919,410.81435C-12.51231,537.84391,18.81239,657.37079,73.136,770.99122c41.66627,87.14741,148.28568,183.36226,155.986,280.07952,8.39854,105.49481-8.17,195.94294-8.17,195.94294l520.76973,58.78066s-23.93978-102.5-5.68739-164.55817c96.75741,27.13767,226.0386,24.705,210.40171-102.02433-7.25732-58.81722,68.81434-101.36262,5.559-140.37486,86.6819-7.55892-.18444-95.93051,53.04692-115.0653C1056.27158,765.35672,1112.26241,763.01706,1073.75616,698.25488Z" style="fill:#304756"/><path d="M491.04907,557.50918l-19.85179-11.605a9.7225,9.7225,0,0,0-10.0393.16175,162.95667,162.95667,0,0,1-16.04634,8.74674,9.72345,9.72345,0,0,0-5.57284,8.24962l-1.257,23.16551a9.694,9.694,0,0,1-7.40421,8.89842l-20.24322,4.88953a9.69485,9.69485,0,0,1-10.69816-4.6221L388.53,575.38833a9.72529,9.72529,0,0,0-8.76219-4.8809,165.11976,165.11976,0,0,1-18.24219-.46117,9.72208,9.72208,0,0,0-8.94695,4.35755l-12.69955,19.47725a9.69464,9.69464,0,0,1-10.86171,4.00422l-19.97577-5.88735a9.69456,9.69456,0,0,1-6.95385-9.35168l.1244-22.97465a9.72561,9.72561,0,0,0-5.15052-8.60943,163.053,163.053,0,0,1-15.58194-9.54974,9.72122,9.72122,0,0,0-9.93865-.70811l-20.708,10.50334a9.69428,9.69428,0,0,1-11.40845-1.96329l-14.35587-15.08663a9.694,9.694,0,0,1-1.34648-11.57557l11.605-19.85143a9.72293,9.72293,0,0,0-.16175-10.04,162.87489,162.87489,0,0,1-8.74674-16.04635,9.72429,9.72429,0,0,0-8.24962-5.57284l-23.16551-1.25662a9.69406,9.69406,0,0,1-8.89842-7.40421l-4.88951-20.24358a9.69475,9.69475,0,0,1,4.62208-10.6978l20.00527-11.40627a9.72427,9.72427,0,0,0,4.88054-8.76219,165.21043,165.21043,0,0,1,.46189-18.2422,9.72269,9.72269,0,0,0-4.35791-8.94695l-19.47725-12.69955a9.695,9.695,0,0,1-4.00422-10.86171l5.88735-19.9758a9.695,9.695,0,0,1,9.35168-6.95382l22.97467.12437a9.72543,9.72543,0,0,0,8.6094-5.15013,162.98541,162.98541,0,0,1,9.55009-15.5823,9.722,9.722,0,0,0,.70811-9.93866l-10.5037-20.70763a9.69526,9.69526,0,0,1,1.96329-11.40879l15.08663-14.35588a9.69334,9.69334,0,0,1,11.57557-1.34612L278.401,266.96041a9.724,9.724,0,0,0,10.03966-.16139,162.91916,162.91916,0,0,1,16.04634-8.7471,9.72475,9.72475,0,0,0,5.57284-8.24962l1.25662-23.16551a9.69433,9.69433,0,0,1,7.40457-8.89842l20.24322-4.88953a9.69553,9.69553,0,0,1,10.69819,4.6221l11.40588,20.00527a9.72529,9.72529,0,0,0,8.76219,4.8809,165.20858,165.20858,0,0,1,18.24223.46153,9.72157,9.72157,0,0,0,8.94692-4.35791l12.69955-19.47725a9.69547,9.69547,0,0,1,10.86207-4.00422l19.97544,5.88771a9.69389,9.69389,0,0,1,6.95386,9.35168l-.1244,22.97429a9.72759,9.72759,0,0,0,5.15049,8.60979,162.90356,162.90356,0,0,1,15.58194,9.54974,9.7211,9.7211,0,0,0,9.93866.70811l20.708-10.50334a9.69415,9.69415,0,0,1,11.40843,1.96293l14.35587,15.08663a9.694,9.694,0,0,1,1.34648,11.57557l-11.605,19.85179a9.72322,9.72322,0,0,0,.16175,10.03966,163.02641,163.02641,0,0,1,8.74674,16.046,9.72351,9.72351,0,0,0,8.24962,5.5732l23.16551,1.25662a9.69517,9.69517,0,0,1,8.89878,7.40457l4.88917,20.24323a9.69477,9.69477,0,0,1-4.6221,10.6978l-20.00527,11.40627a9.72543,9.72543,0,0,0-4.88087,8.76255,165.11345,165.11345,0,0,1-.46156,18.24184,9.72155,9.72155,0,0,0,4.35795,8.94695l19.47721,12.69991a9.695,9.695,0,0,1,4.00422,10.86171l-5.88735,19.97544a9.69574,9.69574,0,0,1-9.352,6.95418l-22.97432-.12473a9.7258,9.7258,0,0,0-8.60943,5.15049,163.12254,163.12254,0,0,1-9.54974,15.58194,9.72034,9.72034,0,0,0-.70811,9.93866l10.50334,20.70835a9.69434,9.69434,0,0,1-1.96329,11.40843L502.62463,556.1627A9.69394,9.69394,0,0,1,491.04907,557.50918Z" style="fill:#a3a2a3"/><path d="M785.05964,587.59473a6.67533,6.67533,0,0,1-4.89344,6.36l-15.24662,4.22312a6.69754,6.69754,0,0,0-4.73964,5.02648,112.1855,112.1855,0,0,1-3.4079,12.11438,6.69447,6.69447,0,0,0,1.39357,6.718l10.8405,11.75313a6.6759,6.6759,0,0,1,.83715,7.92756l-7.30608,12.33975a6.67626,6.67626,0,0,1-7.41787,3.06139l-15.32889-3.96935a6.69474,6.69474,0,0,0-6.62206,1.98845,112.26649,112.26649,0,0,1-8.99367,8.80317,6.695,6.695,0,0,0-2.14625,6.51027l3.50854,15.58554a6.67584,6.67584,0,0,1-3.2386,7.28379l-12.49754,7.03362a6.67609,6.67609,0,0,1-7.95488-1.05785l-11.3067-11.118a6.697,6.697,0,0,0-6.7209-1.59234,113.6538,113.6538,0,0,1-12.174,3.11279,6.69622,6.69622,0,0,0-5.11167,4.56459l-4.7648,15.28576a6.676,6.676,0,0,1-6.44665,4.689l-14.3397-.1578a6.67564,6.67564,0,0,1-6.36-4.89348l-4.22312-15.24658a6.69868,6.69868,0,0,0-5.02648-4.73964,112.13922,112.13922,0,0,1-12.11438-3.4079,6.69528,6.69528,0,0,0-6.71839,1.39357L594.786,698.027a6.67645,6.67645,0,0,1-7.92724.83715L574.519,691.55774a6.67558,6.67558,0,0,1-3.06139-7.41787L575.427,668.811a6.69591,6.69591,0,0,0-1.98881-6.62206,112.25612,112.25612,0,0,1-8.80281-8.99331,6.69608,6.69608,0,0,0-6.51063-2.147l-15.58518,3.5089a6.67534,6.67534,0,0,1-7.28379-3.239l-7.03362-12.49683a6.677,6.677,0,0,1,1.05749-7.95524l11.11835-11.3067a6.69677,6.69677,0,0,0,1.592-6.7209,113.72546,113.72546,0,0,1-3.11279-12.174,6.69391,6.69391,0,0,0-4.5642-5.11167l-15.28579-4.7648a6.67563,6.67563,0,0,1-4.689-6.44665l.15744-14.33934a6.67607,6.67607,0,0,1,4.89348-6.36038l15.24658-4.22312a6.6975,6.6975,0,0,0,4.73964-5.02648,112.17022,112.17022,0,0,1,3.4079-12.11438,6.69384,6.69384,0,0,0-1.39357-6.71839l-10.8405-11.75313a6.67535,6.67535,0,0,1-.83711-7.9272l7.30641-12.33975a6.67538,6.67538,0,0,1,7.41787-3.06139l15.32893,3.96935a6.69491,6.69491,0,0,0,6.622-1.98845,112.19974,112.19974,0,0,1,8.99331-8.80317,6.69483,6.69483,0,0,0,2.14661-6.51063l-3.50854-15.58518a6.67656,6.67656,0,0,1,3.2386-7.28415l12.49718-7.03326a6.67647,6.67647,0,0,1,7.95488,1.05749l11.3071,11.11835a6.69673,6.69673,0,0,0,6.72087,1.59234,113.64911,113.64911,0,0,1,12.17368-3.11315,6.69438,6.69438,0,0,0,5.112-4.56423l4.76444-15.28576a6.67562,6.67562,0,0,1,6.447-4.6886l14.3397.15744a6.67564,6.67564,0,0,1,6.36,4.89313l4.22312,15.24694a6.69882,6.69882,0,0,0,5.02612,4.73964,112.13713,112.13713,0,0,1,12.11438,3.40754,6.69418,6.69418,0,0,0,6.71839-1.39321l11.75313-10.84086a6.676,6.676,0,0,1,7.9272-.83715l12.33975,7.30644a6.67579,6.67579,0,0,1,3.06175,7.41787l-3.96971,15.32889a6.69568,6.69568,0,0,0,1.98881,6.62206,112.25612,112.25612,0,0,1,8.80281,8.99331,6.69722,6.69722,0,0,0,6.511,2.147l15.58518-3.5089a6.67607,6.67607,0,0,1,7.28379,3.2386l7.03362,12.49754a6.67608,6.67608,0,0,1-1.05785,7.95488L759.15731,538.037a6.69763,6.69763,0,0,0-1.592,6.7209,113.6475,113.6475,0,0,1,3.11279,12.17368,6.69561,6.69561,0,0,0,4.56423,5.112l15.28612,4.7648a6.67666,6.67666,0,0,1,4.689,6.44665Z" style="fill:#a3a2a3"/><path d="M356.54366,330.84781a77.75814,77.75814,0,1,0,93.84,57.329A77.84559,77.84559,0,0,0,356.54366,330.84781Z" style="fill:#1c75bc"/><path d="M292.7436,318.68383a120.1377,120.1377,0,0,0-6.18425,169.27633c45.01761,48.6951,121.86732,51.52465,170.29535,6.22092a120.13751,120.13751,0,0,0,6.18392-169.27669C418.021,276.21,341.172,273.37974,292.7436,318.68383ZM398.763,505.65312a102.0734,102.0734,0,1,1,75.25629-123.18469A102.18839,102.18839,0,0,1,398.763,505.65312Z" style="fill:#fff"/><path d="M623.51678,532.13631a53.54446,53.54446,0,1,0,72.92313,20.401A53.6048,53.6048,0,0,0,623.51678,532.13631Z" style="fill:#1c75bc"/><path d="M692.96767,508.24041c-38.95485-23.82941-90.40654-11.30275-114.00554,27.79193a82.72754,82.72754,0,0,0,27.62551,113.324c38.95485,23.82941,90.40689,11.30275,114.0059-27.79193A82.72732,82.72732,0,0,0,692.96767,508.24041ZM684.25113,640.0525a70.28841,70.28841,0,1,1,26.78009-95.7274A70.36756,70.36756,0,0,1,684.25113,640.0525Z" style="fill:#fff"/></svg>