<svg xmlns="http://www.w3.org/2000/svg" xmlns:xlink="http://www.w3.org/1999/xlink" viewBox="0 0 2500 554"><defs><clipPath id="a"><polyline points="2227 553.357 379 553.357 379 167.252 2227 167.252" style="fill:none"/></clipPath><linearGradient id="b" x1="1003.13641" y1="239.4677" x2="1496.17906" y2="239.4677" gradientUnits="userSpaceOnUse"><stop offset="0" stop-color="#ed2d32"/><stop offset="1" stop-color="#972025"/></linearGradient><linearGradient id="c" x1="1001.07248" y1="239.46805" x2="1496.17906" y2="239.46805" gradientUnits="userSpaceOnUse"><stop offset="0" stop-color="#972025"/><stop offset="1" stop-color="#ed2d32"/></linearGradient><linearGradient id="d" x1="1035.67284" y1="234.91255" x2="1462.93794" y2="234.91255" gradientUnits="userSpaceOnUse"><stop offset="0" stop-color="#1e2b56"/><stop offset="1" stop-color="#264592"/></linearGradient></defs><title>frame8-sign</title><path d="M634.90188,220.86627c30.10771,50.80346,89.12777,72.195,145.053,54.30785-.12144,33.1562,16.78649,64.50073,46.78972,80.11395,43.70686,22.7594,98.64428,3.51473,122.70643-42.99553,1.19347-2.29561,2.213-4.64176,3.20739-6.99036,20.79938,35.39759,70.66392,30.67543,89.55849-5.85384,29.88232-57.76832-44.38655-107.30562-84.59094-56.377-10.25418-40.07849-44.85825-66.6611-85.11051-65.643C889.33151,116.96573,864.7786,52.388,810.08157,23.91833c-78.09093-40.657-175.07011,11.97088-191.51,103.18529-22.63072-5.52963-47.50336,5.70413-59.33429,28.571C532.82923,206.72275,590.06065,256.95635,634.90188,220.86627Z" style="fill:#fff"/><path d="M943.589,170.95553c-34.46646-47.93514-95.14045-64.01-149.27062-41.2343-2.80062-33.0372-22.40432-62.75991-53.66589-75.65181-45.54126-18.79509-98.56789,5.24523-118.43757,53.7069-.98652,2.39245-1.79536,4.81981-2.57887,7.24738-23.83705-33.41488-73.09033-24.29-88.69214,13.77154-24.67506,60.1917,53.66814,102.95013,89.22755,48.65612,13.7456,39.01245,50.55657,62.42287,90.56158,57.8398-11.42253,61.717,18.7246,123.865,75.71618,147.3736,81.3678,33.574,173.33006-27.44645,181.66815-119.76148,23.02939,3.50146,46.8148-9.89364,56.58449-33.72C1046.50845,175.99351,985.07466,131.0309,943.589,170.95553Z" style="fill:#fff"/><path d="M1611.061,267.13464c43.11715,25.3087,96.07963,17.54927,130.86517-17.798,13.29025,24.37407,38.63984,40.6517,67.47614,40.18379,42.013-.6706,75.50877-36.62132,74.81048-80.30664-.03009-2.1585-.21118-4.285-.41221-6.40321,29.90816,17.70484,65.45488-5.57522,64.90352-39.88421-.87046-54.25791-76.6454-61.08858-86.2881-7.74688-23.877-25.32962-60.596-31.08134-90.418-14.33863-11.77175-51.04233-56.27591-88.66425-108.84807-87.81576-75.06163,1.20342-126.66126,78.35336-102.19591,151.8079-19.22929,4.93622-33.37695,23.0622-33.03417,44.54048C1528.68758,297.32031,1591.947,311.43229,1611.061,267.13464Z" style="fill:#fff"/><polyline points="2503 553.357 0 553.357 0 167.252 2503 167.252" style="fill:#304856"/><g style="opacity:0.5"><g style="clip-path:url(#a)"><path d="M1244.60977,633.36775l122.21306-.208c133.37571,27.29748,274.46816,51.97853,408.4503,70.68269l834.0415-.21844c-668.92442-90.482-1566.79331-185.51365-1568.47555-278.02-12.78672-76.3685,1085.59927-52.09806,1129.26207-180.57776-9.03279-99.09326-845.99581-157.62009-844.08141-209.74871-3.24005-45.61221,332.11689-63.15986,823.62954-99.95415-8.12188.2632-16.12641.52532-24.1355.78745-151.42915,9.26283-399.78369,19.66368-546.16765,31.66838-47.80618,3.65367-94.1901,7.64184-136.11149,12.14326L1424.0113-22.007c45.97727-4.7606,97.9238-8.67452,152.55048-12.83985,173.46464-13.25341,372.69492-21.25332,522.804-28.18114-668.33265,22.12546-934.65162,40.99473-936.13964,99.89947,1.84813,84.43087,661.71447,147.96381,655.856,193.936-.90333,5.8142-1.23462,9.024-30.49522,11.99263-227.2067,23.00136-1305.16509,20.7355-1356.311,174.08735-30.429,128.17228,179.97149,211.93148,469.75124,287.2153l678.896-.19968C1504.88007,691.35934,1378.27934,665.31272,1244.60977,633.36775ZM1991.2231,256.12743c-10.41662,4.47489-24.91845,8.3872-43.08267,12.12879-2.9649.61109-6.18068,1.2069-9.3393,1.8062l-29.09522-2.536c11.62645-1.83461,22.33086-3.71907,31.86286-5.68581a245.63307,245.63307,0,0,0,25.00747-6.46308l26.38118-.04449C1992.37527,255.60023,1991.77339,255.88353,1991.2231,256.12743Zm-3.92337-37.403c13.46751,6.98438,22.295,14.266,22.63484,21.82715a4.81633,4.81633,0,0,1-.33078,2.55693l-17.50214.02975a4.75816,4.75816,0,0,0,1.19314-2.79305c-.11582-7.95354-13.95306-15.7771-27.04628-21.5854Zm-85.36822-29.71074c22.86851,6.15244,42.9102,12.2762,59.28545,18.40773l-25.27.04262c-16.5366-5.40787-36.05177-10.93127-57.8551-16.48548-2.50009-.636-5.09729-1.27444-7.65554-1.9118ZM1408.74523-20.3678l19.44638,1.952c-8.74956.993-17.23357,2.01445-25.50719,3.05866l-17.41464-2.21172C1392.88991-18.53507,1400.69163-19.47127,1408.74523-20.3678Zm-34.83637,4.29612-.11582.25623,16.39954,2.08253q-13.83142,1.851-26.54,3.81475l-16.21391-2.182Q1360.08806-14.19392,1373.90886-16.07168Zm-44.10233,7.094c1.27812-.24685,2.63564-.47815,3.93652-.72044L1349.34142-7.599c-5.76442.97935-11.38519,1.9721-16.68429,2.99487-3.55414.68667-6.97071,1.387-10.28916,2.0962L1307.66281-4.3326Q1318.11888-6.7255,1329.80653-8.97769Zm-33.6584,7.44162,14.23175,1.766c-10.26438,2.49019-19.194,5.08705-26.95727,7.74556l-13.67488-1.55265Q1281.3532,2.226,1296.14813-1.53606Zm-38.59384,12.88541c1.6438-.76011,3.42365-1.50012,5.21514-2.23852l13.35219,1.5162c-3.38774,1.30687-6.58379,2.62152-9.43489,3.94555a53.9988,53.9988,0,0,0-7.9929,4.54833l-12.30319-1.07128A66.72693,66.72693,0,0,1,1257.55429,11.34935Zm-15.61911,10.47831,12.02,1.04662c-3.23651,3.13961-5.04975,6.40331-5.6,9.578l-13.06541-.264A23.54776,23.54776,0,0,1,1241.93518,21.82766ZM1234.832,38.24587a13.214,13.214,0,0,1-.04147-1.95334l13.63441.27553a11.01807,11.01807,0,0,0,.19624,1.1466,16.23917,16.23917,0,0,0,6.60453,7.856,68.62117,68.62117,0,0,0,6.43458,3.34464l-18.50107.2305C1238.511,45.57841,1235.182,41.97539,1234.832,38.24587Zm35.11961,23.22542a166.77074,166.77074,0,0,1-20.17066-8.29742l21.30716-.26534c2.06056.79093,4.2233,1.591,6.53726,2.40174,7.36522,2.577,16.02323,5.24224,25.77525,7.98115l-27.26023.25382C1274.03071,62.85241,1271.91755,62.15957,1269.95156,61.47129Zm18.99977,6.06426,29.20548-.27177q14.18648,3.69709,30.56553,7.53945l-32.08541.2959C1306.62747,72.543,1297.36454,70.02333,1288.95133,67.53555Zm67.53074,17.10836c-6.87208-1.55774-13.44778-3.09592-19.85859-4.62445l33.64171-.3101c12.65926,2.81664,26.01954,5.67911,39.97463,8.58259l-35.80039.33315C1368.32349,87.29036,1362.29758,85.961,1356.48208,84.64391Zm45.34959,9.82621,36.92273-.3436q22.37562,4.506,46.14064,9.11971l-39.64283.06674Q1422.787,98.84,1401.83167,94.47013Zm78.486,15.731,40.3044-.06808q22.94236,4.3902,46.50581,8.84954l-40.75859.06888C1510.76284,116.07723,1495.37639,113.12578,1480.31769,110.20112Zm131.43046,25.04717q-22.40673-4.25632-44.67993-8.46922l40.835-.06888q7.06934,1.34118,14.14475,2.68531,15.17352,2.88257,30.32326,5.78418ZM1711.94949,154.611c-17.95432-3.5596-36.19743-7.11142-54.58015-10.6485l40.06263-.06754c18.09644,3.53949,35.95415,7.09132,53.431,10.65038Zm48.00951,9.70507,37.41182-.06325c22.0542,4.73353,43.115,9.46948,62.835,14.196l-34.38015.05816C1804.95656,173.78848,1782.8796,169.05226,1759.959,164.31605Zm37.17157,117.00837q35.51665-3.61065,65.46158-7.2717l33.88954,2.95387c-28.0447,4.03319-60.44269,7.83749-96.46916,11.51127l-33.59922-4.18221C1776.8805,283.33968,1787.18939,282.33835,1797.13057,281.32442Zm-70.45215,6.66222,34.96079,4.35187c-31.2711,3.05116-64.57342,6.149-99.4108,9.26792l-42.31034-4.781C1657.163,293.90349,1692.95882,290.97267,1726.67842,287.98664ZM1574.9635,300.29929l44.78969,5.06105c-41.47933,3.61052-84.71273,7.23176-128.80544,10.82245l-43.97335-6.26581C1490.50265,306.65784,1533.41133,303.47159,1574.9635,300.29929Zm-223.66116,16.87545q27.29033-2.11107,54.52451-4.16291L1450.828,319.424c-31.962,2.55961-64.23758,5.09751-96.5506,7.596q-9.007.69672-18.00489,1.40819l-52.98339-6.05273C1306.03368,320.64562,1328.75854,318.919,1351.30234,317.17474Zm-117.44554,8.97792,53.872,6.15431c-44.36635,3.62044-88.22995,7.425-130.79924,11.4448l-54.175-6.92756C1145.2895,333.08237,1189.37059,329.57718,1233.8568,326.15266Zm-174.34015,14.62675,55.2493,7.06478c-52.05932,5.22026-101.49716,10.812-146.78,16.83391l-55.313-6.89781C956.617,351.38584,1006.38558,345.83189,1059.51665,340.77941Zm-302.3419,51.30606c28.2283-9.88839,61.77239-18.28793,104.75846-26.0686l51.60057,6.43467c-.76727.11847-1.577.23318-2.34127.35191-28.91566,5.30308-88.6892,14.48818-127.15052,30.71315l-52.04769.08684C742.34365,397.11678,752.81388,393.6475,757.17475,392.08547Zm-50.07665,42.91591a43.51046,43.51046,0,0,1,8.14009-16.62646l43.29-.07237c-6.57873,5.7815-10.3013,12.20008-9.89718,19.34232,2.29474,12.0063,23.49214,26.57918,59.36385,42.75l-55.93514.09568C720.30109,463.61377,703.283,448.10041,707.09811,435.00138ZM926.0054,547.19983c-55.99381-17.62618-105.21316-35.15534-142.79289-51.736l60.93026-.10426c42.42616,16.30805,97.22228,33.82086,160.80386,51.70836Zm49.91277,15.22631,84.8852-.14205c69.05062,18.241,146.02738,36.61927,227.29117,54.27654l-111.46869.18949C1107.66121,599.50133,1038.83262,581.05393,975.91817,562.42615Z" style="fill:#213140"/></g></g><rect x="1211.60255" y="323.50492" width="75.89108" height="228.12524" style="fill:#58595b"/><polygon points="1248.811 52.633 1003.136 109.78 1003.136 363.294 1249.701 426.303 1496.179 363.781 1496.179 109.78 1248.811 52.633" style="fill:url(#b)"/><path d="M1249.70246,416.044l-240.468-69.36168V125.89921l239.57642-62.51853L1487.9032,126.3885l.24189,219.07261Zm-.89155-363.41025L1002.44809,109.781V363.29423l247.25437,63.00844,246.47661-62.52191V109.781Z" style="fill:#7b211f"/><polygon points="1466.811 139.103 1248.811 101.624 1031.787 138.126 1037.937 181.749 1460.617 181.749 1466.811 139.103" style="fill:#fff"/><polygon points="1031.787 331.867 1248.41 370.037 1466.811 332.844 1464.793 286.117 1033.849 286.117 1031.787 331.867" style="fill:#fff"/><path d="M1491.79592,357.42828,1249.70143,420.4401l-244.362-64.47769V117.10807l243.47112-56.661,242.98535,55.19512ZM1248.81056,52.63342,1001.07248,109.781V363.29423l248.62895,63.00844,246.47764-62.52191V109.781Z" style="fill:url(#c)"/><polygon points="1457.429 234.023 1462.938 288.752 1035.673 288.752 1041.871 235.405 1037.05 181.073 1462.249 181.073 1457.429 234.023" style="fill:url(#d)"/><path d="M1034.77118,328.76294l11.00761-101.76867-9.7623-85.07651,212.79443-38.9024L1462.58116,141.537l-9.94544,85.45366,10.78526,101.0816-215.01356,40.44432ZM1455.088,227.44553l17.23227-92.01007-223.50937-35.1927L1026.27729,134.6722l17.18026,96.81456L1025.1993,337.47161l223.2081,34.39507,225.96338-34.88436Z" style="fill:#191c4d"/><path d="M1339.38111,261.83687c-9.4993,0-17.19534-10.169-17.19534-22.71374,0-12.544,7.696-22.713,17.19534-22.713,6.91538,0,12.8619,5.40938,15.59034,13.18832h28.6665c-4.43689-19.82086-22.77571-34.68015-44.74255-34.68015-25.28249,0-45.7746,19.68166-45.7746,43.96127,0,24.279,20.49211,43.96134,45.7746,43.96134,22.14758,0,40.61877-15.10428,44.85813-35.17048H1355.306c-2.56113,8.3053-8.72195,14.16649-15.92491,14.16649m90.81813,0c-9.54766,0-17.28539-10.169-17.28539-22.71374,0-12.544,7.73773-22.713,17.28539-22.713,9.545,0,17.28676,10.16908,17.28676,22.713,0,12.54473-7.74172,22.71374-17.28676,22.71374m-.485-66.91862c-25.41953,0-46.01779,19.68166-46.01779,43.96127,0,24.279,20.59827,43.96134,46.01779,43.96134,25.41409,0,46.01373-19.68236,46.01373-43.96134,0-24.27961-20.59964-43.96127-46.01373-43.96127m-292.89858,56.172,7.79043-26.86519,7.79215,26.86519Zm-87.16293,0,7.79043-26.86519,7.79215,26.86519Zm192.34325-6.35021-14.6084-46.40329H1192.329V277.9541l-32.62573-79.61731h-29.70692l-28.72766,73.75742-28.243-73.75742h-30.191l-31.65025,82.549h28.72972l3.89539-12.699H1070.591l4.86956,12.699h51.6153l4.38447-12.699H1158.242l3.896,12.699h56.9727V237.90094l14.11994,42.98483h18.5031l13.63485-41.03036v41.03036h26.78069v-82.549h-35.05717Z" style="fill:#191c4d"/><path d="M1343.76564,258.41736c-9.49929,0-17.1954-10.16839-17.1954-22.71243s7.69611-22.7127,17.1954-22.7127c6.91333,0,12.86122,5.40834,15.5896,13.18728h28.66726c-4.43757-19.82016-22.77777-34.67953-44.74262-34.67953-25.28379,0-45.77453,19.68208-45.77453,43.96134,0,24.27829,20.49074,43.96134,45.77453,43.96134,22.1462,0,40.61745-15.10435,44.85683-35.17048h-28.44752c-2.56044,8.30592-8.722,14.16518-15.92354,14.16518m90.81814,0c-9.54971,0-17.28676-10.16839-17.28676-22.71243s7.73705-22.7127,17.28676-22.7127c9.54368,0,17.2847,10.16873,17.2847,22.7127s-7.741,22.71243-17.2847,22.71243M1434.098,191.5c-25.42015,0-46.0191,19.68208-46.0191,43.96134,0,24.27829,20.599,43.96134,46.0191,43.96134,25.41416,0,46.01243-19.683,46.01243-43.96134,0-24.27926-20.59826-43.96134-46.01243-43.96134M1141.1988,247.67176l7.78981-26.86553,7.79208,26.86553Zm-87.16362,0,7.79043-26.86553,7.79215,26.86553Zm192.342-6.34917L1231.77,194.91825h-35.05917v79.619l-32.62511-79.619h-29.70692l-28.72835,73.75639-28.2416-73.75639h-30.19167l-31.65087,82.54925h28.72972l3.896-12.69966h26.78137l4.86888,12.69966h51.6153l4.38454-12.69966h26.783l3.89546,12.69966h56.97126V234.48274l14.12132,42.98476h18.50345l13.6352-41.03029V277.4675h26.78137V194.91825h-35.05855Z" style="fill:#28367e"/><path d="M1347.17325,256.46428c-9.49661,0-17.196-10.168-17.196-22.713,0-12.544,7.69941-22.71374,17.196-22.71374,6.916,0,12.86329,5.40937,15.59235,13.18826h28.66519c-4.43558-19.82017-22.77846-34.67878-44.74063-34.67878-25.28373,0-45.77652,19.68063-45.77652,43.96058,0,24.279,20.49279,43.96134,45.77652,43.96134,22.14489,0,40.61545-15.105,44.85414-35.17048h-28.44751c-2.55776,8.3053-8.71858,14.16587-15.92354,14.16587m90.81684,0c-9.54635,0-17.28539-10.168-17.28539-22.713,0-12.544,7.739-22.71374,17.28539-22.71374,9.547,0,17.2867,10.1697,17.2867,22.71374,0,12.545-7.73972,22.713-17.2867,22.713m-.48577-66.91731c-25.41617,0-46.01712,19.68063-46.01712,43.96058,0,24.279,20.60095,43.96134,46.01712,43.96134,25.41477,0,46.01778-19.68235,46.01778-43.96134,0-24.28-20.603-43.96058-46.01778-43.96058m-292.89791,56.171,7.79215-26.86552,7.78981,26.86552Zm-87.16293,0,7.79112-26.86552,7.79146,26.86552Zm192.34257-6.34986-14.60772-46.404h-35.05855v79.61938l-32.625-79.61938h-29.70692l-28.729,73.75749-28.2416-73.75749h-30.191l-31.65087,82.55035H1047.705l3.89607-12.70042h26.78138l4.86887,12.70042h51.6153l4.38453-12.70042h26.78234l3.8947,12.70042h56.97263V232.529l14.12132,42.98545h18.50345l13.63389-41.03174v41.03174h26.7833V192.96413h-35.05985Z" style="fill:#fff"/><path d="M1321.34865,198.41864s-19.31574,9.69325-19.31574,35.583c0,25.88826,23.31391,42.62756,44.25286,42.62756,19.47831,0,30.203-11.62612,30.203-11.62612s-8.42839,6.69422-29.85236,6.69422c-16.07,0-39.63111-14.74508-39.63111-37.70277,0-27.12128,14.34333-35.57585,14.34333-35.57585" style="fill:#79a8da"/><path d="M1412.31058,198.41864s-19.31643,9.69325-19.31643,35.583c0,25.88826,23.3146,42.62756,44.25287,42.62756,19.4783,0,30.20439-11.62612,30.20439-11.62612s-8.42908,6.69422-29.85374,6.69422c-16.06932,0-39.63111-14.74508-39.63111-37.70277,0-27.12128,14.344-35.57585,14.344-35.57585" style="fill:#79a8da"/><path d="M1343.43239,210.08893s2.43543-6.93618,9.6135-5.87914c5.67786.83573,10.60184,3.83172,14.09277,13.17784h16.55778l5.436,5.37232h-24.915c-1.02928-3.35719-4.78356-11.48257-12.29082-12.93519-5.739-1.11136-8.49423.26418-8.49423.26418" style="fill:#79a8da"/><polygon points="1273.808 233.275 1277.72 221.935 1277.72 268.7 1296.224 268.7 1299.266 274.82 1273.797 274.82 1273.808 233.275" style="fill:#79a8da"/><polygon points="1226.899 230.422 1226.899 216.899 1244.429 268.187 1257.09 268.187 1258.936 274.795 1241.404 274.795 1226.899 230.422" style="fill:#79a8da"/><polygon points="1225.689 274.537 1221.948 268.458 1206.852 268.458 1206.852 197.848 1201.009 194.43 1201.009 274.537 1225.689 274.537" style="fill:#79a8da"/><polygon points="1152.896 217.784 1155.818 208.503 1167.608 245.85 1161.093 245.85 1152.896 217.784" style="fill:#79a8da"/><polygon points="1065.797 217.784 1068.718 208.503 1080.508 245.85 1073.995 245.85 1065.797 217.784" style="fill:#79a8da"/><polygon points="1170.663 274.705 1199.479 274.705 1192.812 267.699 1175.116 267.699 1171.874 258.417 1140.764 258.417 1139.819 261.745 1166.553 261.838 1170.663 274.705" style="fill:#79a8da"/><polygon points="1138.512 194.161 1141.197 200.292 1114.415 268.187 1131.961 268.187 1134.418 274.89 1083.581 274.89 1078.84 262.245 1051.884 262.245 1053.289 258.417 1084.224 258.417 1087.971 267.971 1105.883 267.971 1108.342 271.918 1110.843 265.312 1138.512 194.161" style="fill:#79a8da"/><polygon points="1024.05 265.533 1051.27 194.367 1053.547 200.292 1026.765 268.187 1044.391 268.187 1047.23 274.537 1020.188 274.537 1024.05 265.533" style="fill:#79a8da"/><path d="M1433.91122,210.48519a11.15571,11.15571,0,0,1,9.67872-5.79757c6.81729,0,18.017,6.34952,18.017,23.4456,0,17.09651-8.20266,20.53223-8.20266,20.53223s2.53087-1.45875,3.16042-13.87167c.79007-15.5895-7.63894-22.987-13.03865-24.441-6.58276-1.77076-9.61487.13243-9.61487.13243" style="fill:#79a8da"/><polygon points="1092.904 147.516 1092.904 170.786 1087.125 170.786 1087.125 147.516 1078.829 147.516 1078.829 141.803 1101.201 141.803 1101.201 147.516 1092.904 147.516" style="fill:#191c4d"/><path d="M1120.93172,147.43354h-7.55328v7.45308h7.55328c2.683,0,4.12785-1.24207,4.12785-3.76794,0-2.6078-1.56845-3.68514-4.12785-3.68514m3.42612,23.35265-5.15982-10.4336h-5.81958v10.4336h-5.77893V141.80278h13.45618c5.4487,0,9.94813,3.023,9.94813,9.19188,0,4.34756-1.85767,7.08035-5.53139,8.52964l5.53139,11.26188Z" style="fill:#191c4d"/><path d="M1151.2299,153.56168c-.57783-1.69768-1.15594-3.43607-1.44482-4.51334-.28888,1.07727-.86671,2.81566-1.44482,4.51334l-1.85733,5.25872h6.60463Zm6.10915,17.22452-2.27018-6.4587h-10.56724l-2.27053,6.4587H1136.04l11.062-28.98341h5.61395l10.9794,28.98341Z" style="fill:#191c4d"/><path d="M1187.30692,170.78619l-10.60783-15.81669c-.70173-1.07658-1.65107-2.52588-2.02265-3.27127,0,1.07664.08235,4.72057.08235,6.33537v12.75259h-5.6963V141.80278h5.53132l10.23633,15.32c.70174,1.07658,1.65107,2.52491,2.02265,3.27024,0-1.07589-.08263-4.71955-.08263-6.33434V141.80278h5.69658v28.98341Z" style="fill:#191c4d"/><path d="M1208.89587,171.24181c-4.82959,0-9.04007-2.02893-11.227-5.25879l4.16817-3.72655a9.34905,9.34905,0,0,0,7.38906,3.31241c3.42612,0,5.03584-.95222,5.03584-3.14595,0-1.86345-.99062-2.69234-6.43938-3.93379-5.32473-1.24206-9.03938-2.93966-9.03938-8.654,0-5.25872,4.62333-8.48755,10.31895-8.48755a13.78992,13.78992,0,0,1,10.52554,4.55412l-4.16851,4.05779a8.79958,8.79958,0,0,0-6.56329-2.98115c-3.09589,0-4.12785,1.32495-4.12785,2.60842,0,1.822,1.23822,2.40159,5.82027,3.47824s9.65918,2.64989,9.65918,8.94317c0,5.507-3.46808,9.23364-11.3516,9.23364" style="fill:#191c4d"/><path d="M1248.44,170.78619V160.14535c0-1.57359.08263-5.25873.08263-6.37678-.41285,1.07664-1.27984,3.14629-2.02258,4.80318l-5.86093,12.87695-5.86155-12.87695c-.74308-1.65689-1.61007-3.72654-2.02258-4.80318,0,1.11805.08228,4.80318.08228,6.37678v10.64084H1227.183V141.80278h5.572l6.02646,13.12532c.74308,1.61473,1.60979,3.80942,1.9813,4.84459.37158-1.07727,1.19728-3.18839,1.9403-4.84459l5.81958-13.12532h5.69664v28.98341Z" style="fill:#191c4d"/><rect x="1261.23678" y="141.80278" width="5.77858" height="28.98341" style="fill:#191c4d"/><path d="M1283.85735,171.24181c-4.82994,0-9.0398-2.02893-11.228-5.25879l4.16948-3.72655a9.34714,9.34714,0,0,0,7.38838,3.31241c3.42578,0,5.0355-.95222,5.0355-3.14595,0-1.86345-.99034-2.69234-6.439-3.93379-5.32438-1.24206-9.03972-2.93966-9.03972-8.654,0-5.25872,4.623-8.48755,10.31963-8.48755a13.79129,13.79129,0,0,1,10.5252,4.55412L1290.42,149.9595a8.79815,8.79815,0,0,0-6.5626-2.98115c-3.09589,0-4.12785,1.32495-4.12785,2.60842,0,1.822,1.23821,2.40159,5.81958,3.47824,4.582,1.07658,9.65918,2.64989,9.65918,8.94317,0,5.507-3.4674,9.23364-11.35091,9.23364" style="fill:#191c4d"/><path d="M1309.69675,171.24181c-4.8293,0-9.0391-2.02893-11.22666-5.25879l4.16886-3.72655a9.347,9.347,0,0,0,7.38832,3.31241c3.42577,0,5.03556-.95222,5.03556-3.14595,0-1.86345-.99034-2.69234-6.439-3.93379-5.32446-1.24206-9.0398-2.93966-9.0398-8.654,0-5.25872,4.62369-8.48755,10.31963-8.48755a13.79134,13.79134,0,0,1,10.52527,4.55412L1316.26,149.9595a8.79958,8.79958,0,0,0-6.56329-2.98115c-3.09527,0-4.12723,1.32495-4.12723,2.60842,0,1.822,1.23822,2.40159,5.81959,3.47824,4.58205,1.07658,9.65925,2.64989,9.65925,8.94317,0,5.507-3.46747,9.23364-11.3516,9.23364" style="fill:#191c4d"/><rect x="1326.74561" y="141.80278" width="5.77858" height="28.98341" style="fill:#191c4d"/><path d="M1350.56278,147.10264c-4.664,0-6.60437,4.0157-6.60437,9.19154s1.94037,9.1925,6.60437,9.1925c4.6646,0,6.60428-4.01666,6.60428-9.1925s-1.93968-9.19154-6.60428-9.19154m0,24.13944c-7.88351,0-12.5482-6.12806-12.5482-14.9479,0-8.81881,4.66469-14.94694,12.5482-14.94694,7.88412,0,12.54811,6.12813,12.54811,14.94694,0,8.81984-4.664,14.9479-12.54811,14.9479" style="fill:#191c4d"/><path d="M1386.43286,170.78619l-10.60851-15.81669c-.70139-1.07658-1.65073-2.52588-2.02224-3.27127,0,1.07664.08263,4.72057.08263,6.33537v12.75259h-5.69664V141.80278h5.532l10.23633,15.32c.70138,1.07658,1.65072,2.52491,2.02229,3.27024,0-1.07589-.08263-4.71955-.08263-6.33434V141.80278h5.69589v28.98341Z" style="fill:#191c4d"/><path d="M1407.19575,171.24181c-4.82925,0-9.03911-2.02893-11.22658-5.25879l4.16878-3.72655a9.34725,9.34725,0,0,0,7.38838,3.31241c3.42578,0,5.0355-.95222,5.0355-3.14595,0-1.86345-.99027-2.69234-6.439-3.93379-5.32438-1.24206-9.03972-2.93966-9.03972-8.654,0-5.25872,4.62368-8.48755,10.31963-8.48755a13.79107,13.79107,0,0,1,10.5252,4.55412l-4.16879,4.05779a8.79961,8.79961,0,0,0-6.56336-2.98115c-3.0952,0-4.12717,1.32495-4.12717,2.60842,0,1.822,1.23822,2.40159,5.81958,3.47824,4.582,1.07658,9.65918,2.64989,9.65918,8.94317,0,5.507-3.4674,9.23364-11.3516,9.23364" style="fill:#191c4d"/><polygon points="1093.448 305.12 1093.448 328.005 1087.765 328.005 1087.765 305.12 1079.606 305.12 1079.606 299.501 1101.608 299.501 1101.608 305.12 1093.448 305.12" style="fill:#191c4d"/><path d="M1115.568,304.7128c-4.58673,0-6.49511,3.95-6.49511,9.03958,0,5.0902,1.90838,9.0402,6.49511,9.0402,4.58742,0,6.49518-3.95,6.49518-9.0402,0-5.08958-1.90776-9.03958-6.49518-9.03958m0,23.74014c-7.75348,0-12.34091-6.027-12.34091-14.70057s4.58742-14.69995,12.34091-14.69995,12.34091,6.02634,12.34091,14.69995-4.58735,14.70057-12.34091,14.70057" style="fill:#191c4d"/><polygon points="1143.371 305.12 1143.371 328.005 1137.687 328.005 1137.687 305.12 1129.528 305.12 1129.528 299.501 1151.53 299.501 1151.53 305.12 1143.371 305.12" style="fill:#191c4d"/><path d="M1165.08311,311.06466c-.56841-1.66932-1.13646-3.37976-1.4206-4.43784-.28421,1.05808-.85261,2.76852-1.42067,4.43784l-1.82741,5.17184h6.49511Zm6.008,16.94012-2.23255-6.35255H1158.466l-2.23221,6.35255h-6.08934l10.87965-28.5042h5.52093l10.79764,28.5042Z" style="fill:#191c4d"/><polygon points="1181.639 328.005 1181.639 299.501 1187.322 299.501 1187.322 322.385 1201.571 322.385 1201.571 328.005 1181.639 328.005" style="fill:#191c4d"/><path d="M1232.8571,307.80754a5.39482,5.39482,0,0,0-5.19642-3.09474c-4.26187,0-6.69806,3.74641-6.69806,9.03958,0,5.13133,2.47678,9.0402,6.73872,9.0402,2.558,0,4.05994-1.09921,5.56159-3.62447l4.79023,2.85078c-1.948,4.0315-5.3583,6.43406-10.51344,6.43406-7.42931,0-12.42215-5.70081-12.42215-14.70057,0-8.67361,5.19641-14.69995,12.62442-14.69995,5.35864,0,8.606,2.60614,10.3925,6.31142Z" style="fill:#191c4d"/><path d="M1255.05174,311.06466c-.56841-1.66932-1.13612-3.37976-1.42-4.43784-.28489,1.05808-.853,2.76852-1.42128,4.43784l-1.82679,5.17184h6.49477Zm6.00837,16.94012-2.23262-6.35255h-10.39215l-2.23289,6.35255h-6.08933l10.87957-28.5042h5.521l10.798,28.5042Z" style="fill:#191c4d"/><path d="M1284.71931,305.03832h-7.42868v7.32975h7.42868c2.63839,0,4.05933-1.22184,4.05933-3.70528,0-2.5657-1.54258-3.62447-4.05933-3.62447m3.36936,22.96646-5.0752-10.26135h-5.72285v10.26135h-5.68317v-28.5042h13.23348c5.35864,0,9.7835,2.972,9.7835,9.03951,0,4.27614-1.82678,6.96317-5.44,8.38783l5.44,11.07686Z" style="fill:#191c4d"/><path d="M1326.64083,307.80754a5.395,5.395,0,0,0-5.19614-3.09474c-4.2629,0-6.69834,3.74641-6.69834,9.03958,0,5.13133,2.47645,9.0402,6.73865,9.0402,2.55776,0,4.05933-1.09921,5.56159-3.62447l4.7903,2.85078c-1.949,4.0315-5.35871,6.43406-10.51446,6.43406-7.4287,0-12.42189-5.70081-12.42189-14.70057,0-8.67361,5.19614-14.69995,12.62545-14.69995,5.35872,0,8.60575,2.60614,10.39222,6.31142Z" style="fill:#191c4d"/><path d="M1348.8354,311.06466c-.5684-1.66932-1.13674-3.37976-1.42094-4.43784-.28489,1.05808-.85192,2.76852-1.42033,4.43784l-1.82671,5.17184h6.49476Zm6.00837,16.94012-2.23324-6.35255h-10.39221l-2.23256,6.35255h-6.089l10.8793-28.5042h5.52059l10.79867,28.5042Z" style="fill:#191c4d"/><path d="M1378.503,305.03832h-7.42869v7.32975h7.42869c2.639,0,4.05926-1.22184,4.05926-3.70528,0-2.5657-1.54251-3.62447-4.05926-3.62447m3.36929,22.96646-5.07382-10.26135h-5.72416v10.26135h-5.68316v-28.5042h13.23411c5.358,0,9.7828,2.972,9.7828,9.03951,0,4.27614-1.82678,6.96317-5.43927,8.38783l5.43927,11.07686Z" style="fill:#191c4d"/><polygon points="1393.394 328.005 1393.394 299.501 1413.123 299.501 1413.123 305.079 1399.077 305.079 1399.077 310.007 1407.237 310.007 1407.237 315.544 1399.077 315.544 1399.077 322.426 1413.732 322.426 1413.732 328.005 1393.394 328.005" style="fill:#191c4d"/><path d="M1472.57228,182.78463a7.17536,7.17536,0,0,1,7.33526,7.17068,7.14853,7.14853,0,1,1-14.297,0,7.02352,7.02352,0,0,1,1.10585-3.8333,6.68735,6.68735,0,0,1,2.76738-2.54148A7.19923,7.19923,0,0,1,1472.57228,182.78463Zm.36278,1.40183a5.58935,5.58935,0,0,0-4.27026,1.74039,5.7106,5.7106,0,0,0-1.63532,4.03322,5.75106,5.75106,0,0,0,11.50211,0,5.64885,5.64885,0,0,0-.84992-3.01793,5.5168,5.5168,0,0,0-2.18687-2.06793A5.59872,5.59872,0,0,0,1472.93507,184.18645Zm-3.32567,9.59684v-7.61277h3.585a2.6103,2.6103,0,0,1,1.93691.62138,2.10486,2.10486,0,0,1,.60535,1.52777,1.95341,1.95341,0,0,1-.51062,1.41128,2.75351,2.75351,0,0,1-1.54058.71937,1.88352,1.88352,0,0,1,.74239.48357,9.63511,9.63511,0,0,1,.87345,1.31894l.8868,1.53046h-1.89193l-.63218-1.23026a5.719,5.719,0,0,0-.99908-1.49748,1.598,1.598,0,0,0-1.12938-.39929h-.39971v3.127Zm1.52647-4.33473h1.24221a2.62894,2.62894,0,0,0,1.331-.248.88466.88466,0,0,0,.39372-.81074.84441.84441,0,0,0-.389-.7585,2.19372,2.19372,0,0,0-1.17775-.25306h-1.4001Z" style="fill:#fff"/></svg>