<svg xmlns="http://www.w3.org/2000/svg" xmlns:xlink="http://www.w3.org/1999/xlink" viewBox="0 0 971.31957 588.71767"><defs><linearGradient id="a" x1="568.86446" y1="116.06279" x2="876.09627" y2="116.06279" gradientUnits="userSpaceOnUse"><stop offset="0" stop-color="#ee2e32"/><stop offset="1" stop-color="#982126"/></linearGradient><linearGradient id="b" x1="567.57835" y1="116.06301" x2="876.09627" y2="116.06301" gradientUnits="userSpaceOnUse"><stop offset="0" stop-color="#982126"/><stop offset="1" stop-color="#ee2e32"/></linearGradient><linearGradient id="c" x1="589.13902" y1="113.23311" x2="855.38258" y2="113.23311" gradientUnits="userSpaceOnUse"><stop offset="0" stop-color="#1f2b56"/><stop offset="1" stop-color="#274593"/></linearGradient></defs><title>frame4-store</title><g style="isolation:isolate"><rect x="7.26922" y="151.30321" width="460.20055" height="437.41437" style="fill:#79aadb"/><rect x="467.46977" y="80.73198" width="496.61265" height="476.27263" style="fill:#79aadb"/><rect x="783.72487" y="270.849" width="159.58493" height="286.15561" style="fill:#f1f2f2"/><rect x="794.68904" y="281.81317" width="137.6566" height="275.19144" style="fill:#a3a2a3"/><path d="M915.90781,408.65907h2.32438a1.9584,1.9584,0,0,1,1.9584,1.9584v42.12535a1.9584,1.9584,0,0,1-1.9584,1.9584h-2.32428a1.9584,1.9584,0,0,1-1.9584-1.9584V410.61737a1.9583,1.9583,0,0,1,1.9583-1.9583Z" style="fill:#a7a9ac"/><rect x="811.78152" y="299.19269" width="103.47136" height="93.7714" style="fill:#1f435c"/><rect x="511.26855" y="281.81317" width="229.58616" height="149.86698" style="fill:#1f435c"/><path d="M500.36472,270.849V442.5858H751.75854V270.849Zm240.49,160.833H511.26855V281.75283H740.85471Z" style="fill:#f1f2f2"/><rect y="122.07685" width="467.46977" height="29.22636" style="fill:#304756"/><rect x="460.23254" y="51.50553" width="511.08703" height="29.22645" style="fill:#304756"/><rect x="38.16341" y="246.61978" width="397.98983" height="342.09789" style="fill:#f1f2f2"/><rect x="51.49034" y="261.61255" width="371.33605" height="327.10513" style="fill:#1f435c"/><rect x="51.49034" y="261.61255" width="371.33605" height="55.57928" style="fill:#d1d3d4"/><path d="M51.49034,261.61255v55.57919H55.125V302.199H419.1917v14.99277h3.63461V261.61255ZM419.1917,298.56436H55.125v-14.8413H419.1917ZM55.125,280.08845v-14.8413H419.1917v14.8413Z" style="fill:#414042;opacity:0.2;mix-blend-mode:multiply"/><rect x="214.29063" y="287.812" width="45.12968" height="7.57217" style="fill:#414042"/><rect x="38.16341" y="183.61989" width="85.28359" height="14.53844" style="fill:#1f435c"/><rect x="142.39885" y="183.61989" width="85.2836" height="14.53844" style="fill:#1f435c"/><rect x="246.6343" y="183.61989" width="85.2835" height="14.53844" style="fill:#1f435c"/><rect x="350.86975" y="183.61989" width="85.2835" height="14.53844" style="fill:#1f435c"/><rect x="811.7817" y="498.79686" width="103.47127" height="41.53842" style="fill:#414042;opacity:0.2;mix-blend-mode:multiply"/><rect x="462.04984" y="557.00461" width="507.45242" height="31.71298" style="fill:#666766"/><rect x="407.77393" y="91.54385" width="28.37931" height="30.533" style="fill:#304756"/><rect x="330.10831" y="91.54385" width="28.3794" height="30.533" style="fill:#304756"/><polygon points="721.952 0 568.864 35.5 568.864 192.984 722.508 232.126 876.096 193.287 876.096 35.5 721.952 0" style="fill:url(#a)"/><path d="M722.50823,225.75286,572.66438,182.665V45.51349L721.95267,6.67668,870.93929,45.81744l.15073,136.089ZM721.95267.00064,568.43554,35.50078V192.98444l154.07269,39.14115,153.588-38.83891V35.50078Z" style="fill:#7b221f"/><polygon points="857.796 53.716 721.953 30.434 586.718 53.109 590.55 80.208 853.937 80.208 857.796 53.716" style="fill:#fff"/><polygon points="586.718 173.462 721.703 197.173 857.796 174.069 856.538 145.041 588.002 145.041 586.718 173.462" style="fill:#fff"/><path d="M873.365,189.34048,722.50759,228.48373,570.23724,188.42987V40.0524L721.95246,4.85431,873.365,39.14179ZM721.95246.00043,567.57835,35.50078V192.98444l154.92924,39.14115,153.58868-38.83891V35.50078Z" style="fill:url(#b)"/><polygon points="851.95 112.681 855.383 146.678 589.139 146.678 593.001 113.539 589.997 79.788 854.953 79.788 851.95 112.681" style="fill:url(#c)"/><path d="M588.57717,171.53343l6.85922-63.2192-6.08323-52.84994L721.95267,31.29793l133.20758,23.9298L848.96291,108.312l6.72066,62.79238L721.70124,196.22855ZM850.491,108.59456l10.738-57.1571L721.95267,29.57558,583.28434,50.96331,593.98995,111.105,582.6126,176.9433l139.08864,21.36638,140.80554-21.67033Z" style="fill:#191c4e"/><path d="M778.39008,129.95863c-5.91934,0-10.715-6.317-10.715-14.10989,0-7.79237,4.79567-14.10946,10.715-14.10946,4.30921,0,8.01469,3.36033,9.71488,8.19265H805.968c-2.76478-12.31281-14.19233-21.54348-27.88062-21.54348-15.75439,0-28.52373,12.22634-28.52373,27.309,0,15.08222,12.76934,27.309,28.52373,27.309,13.80092,0,25.31095-9.38285,27.95264-21.84807H788.31343c-1.59593,5.15929-5.43495,8.80029-9.92336,8.80029m56.5919,0c-5.94947,0-10.77112-6.317-10.77112-14.10989,0-7.79237,4.82165-14.10946,10.77112-14.10946,5.94784,0,10.772,6.31708,10.772,14.10946,0,7.79284-4.82413,14.10989-10.772,14.10989m-.30223-41.57017c-15.83978,0-28.67527,12.22634-28.67527,27.309,0,15.08222,12.83549,27.309,28.67527,27.309,15.83639,0,28.67274-12.22678,28.67274-27.309,0-15.08261-12.83634-27.309-28.67274-27.309M652.16458,123.28281l4.85448-16.68878,4.85556,16.68878Zm-54.31422,0,4.85448-16.68878,4.85556,16.68878ZM717.706,119.338l-9.103-28.826H686.75686v49.45866L666.42665,90.51207h-18.5114l-17.90119,45.81847L612.41488,90.51207h-18.813L573.87949,141.7919H591.782l2.42735-7.8887h16.68839l3.03439,7.8887h32.16327l2.73211-7.8887h16.68861l2.42773,7.8887h35.50165V115.08951l8.79862,26.70238H723.774l8.49634-25.48826V141.7919h16.688V90.51207H727.113Z" style="fill:#191c4e"/><path d="M781.12223,127.83441c-5.91933,0-10.715-6.31666-10.715-14.10907s4.79571-14.10924,10.715-14.10924c4.30793,0,8.01427,3.35968,9.71441,8.192h17.86355C805.935,95.49572,794.50658,86.265,780.81953,86.265c-15.7552,0-28.52368,12.22661-28.52368,27.309,0,15.08179,12.76849,27.309,28.52368,27.309,13.80006,0,25.31013-9.3829,27.95183-21.84807H791.04473c-1.5955,5.15968-5.435,8.79948-9.9225,8.79948m56.5919,0c-5.95075,0-10.772-6.31666-10.772-14.10907s4.82122-14.10924,10.772-14.10924c5.947,0,10.77069,6.31687,10.77069,14.10924s-4.8237,14.10907-10.77069,14.10907m-.30271-41.5694c-15.84017,0-28.67608,12.22661-28.67608,27.309,0,15.08179,12.83591,27.309,28.67608,27.309,15.83644,0,28.67192-12.2272,28.67192-27.309,0-15.08239-12.83549-27.309-28.67192-27.309M654.89587,121.15919l4.8541-16.689,4.85552,16.689Zm-54.31464,0,4.85449-16.689,4.85555,16.689Zm119.85487-3.94414-9.10218-28.8266H689.48734v49.45969L669.15752,88.38846h-18.5114l-17.90162,45.81783L615.14618,88.38846H596.33272l-19.72274,51.28h17.90248l2.42773-7.88909h16.68839l3.034,7.88909h32.16326l2.73216-7.88909h16.68938l2.42739,7.88909h35.50075V112.96611l8.79948,26.70234h11.53013l8.49656-25.48822v25.48822H751.69v-51.28H729.84386Z" style="fill:#28377f"/><path d="M783.24563,126.62115c-5.91766,0-10.71543-6.31644-10.71543-14.10946,0-7.79242,4.79777-14.10989,10.71543-14.10989,4.3096,0,8.01556,3.36033,9.71613,8.19261H810.824c-2.764-12.31238-14.194-21.54263-27.87942-21.54263-15.75516,0-28.52492,12.2257-28.52492,27.30853,0,15.08222,12.76976,27.309,28.52492,27.309,13.79924,0,25.30888-9.38328,27.95016-21.84807H793.16813c-1.59383,5.15929-5.43284,8.79991-9.9225,8.79991m56.59109,0c-5.94866,0-10.77112-6.31644-10.77112-14.10946,0-7.79242,4.82246-14.10989,10.77112-14.10989,5.94905,0,10.77194,6.31747,10.77194,14.10989,0,7.793-4.82289,14.10946-10.77194,14.10946m-.3027-41.56936c-15.83769,0-28.67485,12.2257-28.67485,27.30853,0,15.08222,12.83716,27.309,28.67485,27.309,15.83682,0,28.67526-12.22677,28.67526-27.309,0-15.08283-12.83844-27.30853-28.67526-27.30853M657.01927,119.94549l4.85556-16.689,4.8541,16.689Zm-54.31421,0,4.85491-16.689,4.85513,16.689Zm119.85526-3.94456-9.10257-28.82638H691.61156v49.45994L671.28178,87.17455h-18.5114l-17.902,45.81851L617.27,87.17455H598.457l-19.72274,51.28068h17.90243l2.42778-7.88956h16.6884l3.034,7.88956h32.16327l2.73215-7.88956h16.689l2.42692,7.88956h35.5016V111.75246l8.79948,26.70277h11.53013l8.49574-25.48912v25.48912h16.6896V87.17455h-21.847Z" style="fill:#fff"/><path d="M767.15343,90.56292s-12.0363,6.02149-12.0363,22.10431c0,16.08191,14.5277,26.48045,27.57548,26.48045,12.1376,0,18.82054-7.2222,18.82054-7.2222s-5.252,4.15848-18.602,4.15848c-10.01377,0-24.6955-9.15971-24.6955-23.42114,0-16.84787,8.93782-22.09989,8.93782-22.09989" style="fill:#79aadb"/><path d="M823.83493,90.56292s-12.03673,6.02149-12.03673,22.10431c0,16.08191,14.52813,26.48045,27.57548,26.48045,12.1376,0,18.82139-7.2222,18.82139-7.2222s-5.25245,4.15848-18.60289,4.15848c-10.01335,0-24.6955-9.15971-24.6955-23.42114,0-16.84787,8.93825-22.09989,8.93825-22.09989" style="fill:#79aadb"/><path d="M780.91457,97.81255s1.5176-4.30879,5.9905-3.65215c3.53807.51916,6.60637,2.38028,8.78169,8.18614h10.31772l3.38734,3.33731H793.86644c-.64138-2.0855-2.9808-7.133-7.65883-8.0354-3.57614-.69038-5.293.16411-5.293.16411" style="fill:#79aadb"/><polygon points="737.529 112.216 739.967 105.171 739.967 134.222 751.497 134.222 753.393 138.024 737.522 138.024 737.529 112.216" style="fill:#79aadb"/><polygon points="708.298 110.443 708.298 102.043 719.222 133.903 727.112 133.903 728.262 138.009 717.337 138.009 708.298 110.443" style="fill:#79aadb"/><polygon points="707.545 137.848 705.213 134.072 695.807 134.072 695.807 90.209 692.165 88.085 692.165 137.848 707.545 137.848" style="fill:#79aadb"/><polygon points="662.185 102.593 664.005 96.828 671.352 120.028 667.293 120.028 662.185 102.593" style="fill:#79aadb"/><polygon points="607.91 102.593 609.731 96.828 617.078 120.028 613.019 120.028 607.91 102.593" style="fill:#79aadb"/><polygon points="673.256 137.952 691.212 137.952 687.058 133.6 676.031 133.6 674.011 127.834 654.625 127.834 654.036 129.901 670.695 129.959 673.256 137.952" style="fill:#79aadb"/><polygon points="653.222 87.918 654.895 91.727 638.206 133.903 649.139 133.903 650.671 138.067 618.992 138.067 616.038 130.212 599.241 130.212 600.116 127.834 619.393 127.834 621.728 133.769 632.89 133.769 634.421 136.221 635.98 132.117 653.222 87.918" style="fill:#79aadb"/><polygon points="581.897 132.255 598.858 88.046 600.277 91.726 583.588 133.903 594.572 133.903 596.341 137.848 579.49 137.848 581.897 132.255" style="fill:#79aadb"/><path d="M837.295,98.05871a6.95123,6.95123,0,0,1,6.03114-3.60148c4.24809,0,11.227,3.94435,11.227,14.56452,0,10.62043-5.11136,12.75472-5.11136,12.75472s1.57707-.90619,1.96937-8.61715c.49232-9.68427-4.76008-14.27965-8.12483-15.18288-4.10194-1.1-5.99136.08227-5.99136.08227" style="fill:#79aadb"/><polygon points="624.802 58.942 624.802 73.398 621.201 73.398 621.201 58.942 616.031 58.942 616.031 55.393 629.972 55.393 629.972 58.942 624.802 58.942" style="fill:#191c4e"/><path d="M642.26676,58.89072h-4.70671v4.62989h4.70671c1.67189,0,2.57221-.77158,2.57221-2.34067,0-1.62-.97735-2.28923-2.57221-2.28923m2.13493,14.50678-3.21526-6.48141h-3.62638v6.48141h-3.601V55.39287h8.385c3.39527,0,6.199,1.87788,6.199,5.71a5.132,5.132,0,0,1-3.4468,5.29866l3.4468,6.99594Z" style="fill:#191c4e"/><path d="M661.14659,62.69755c-.36007-1.0546-.7203-2.1345-.90032-2.80371-.18.6692-.54008,1.7491-.90032,2.80371l-1.15736,3.26674h4.11557Zm3.80682,10.7-1.41463-4.01218H656.954l-1.41484,4.01218h-3.85788l6.89313-18.00464h3.49824l6.84164,18.00464Z" style="fill:#191c4e"/><path d="M683.62743,73.39751l-6.6101-9.8254c-.43728-.66877-1.02884-1.56909-1.26038-2.03213,0,.66882.05132,2.93244.05132,3.93556v7.922H672.2587V55.39287h3.44676l6.37861,9.51687c.43728.66877,1.02884,1.56849,1.26038,2.03149,0-.66835-.05149-2.93181-.05149-3.93492V55.39287h3.54973V73.39751Z" style="fill:#191c4e"/><path d="M697.08024,73.68053a8.34634,8.34634,0,0,1-6.99593-3.26679l2.59733-2.31495a5.8337,5.8337,0,0,0,4.60438,2.05768c2.13493,0,3.138-.59153,3.138-1.95428,0-1.15758-.61729-1.67249-4.0126-2.44369-3.318-.77157-5.63275-1.82613-5.63275-5.37591,0-3.26674,2.881-5.27251,6.43009-5.27251a8.60516,8.60516,0,0,1,6.55883,2.829l-2.59754,2.52072a5.49068,5.49068,0,0,0-4.08981-1.8519c-1.92916,0-2.57221.82306-2.57221,1.62036,0,1.13186.77158,1.49188,3.62681,2.1607s6.019,1.64612,6.019,5.55554c0,3.421-2.16108,5.736-7.07357,5.736" style="fill:#191c4e"/><path d="M721.72156,73.39751V66.78736c0-.97752.05149-3.26675.05149-3.96128-.25726.66882-.79751,1.95449-1.26034,2.98376l-3.65215,7.99922L713.208,65.80984c-.463-1.02927-1.00329-2.31494-1.26034-2.98376,0,.69454.05127,2.98376.05127,3.96128v6.61014h-3.52337V55.39287h3.47209l3.75529,8.15351c.463,1.00308,1.00312,2.36643,1.23462,3.00948.23154-.6692.74607-1.98064,1.20907-3.00948l3.62638-8.15351h3.54977V73.39751Z" style="fill:#191c4e"/><rect x="729.69566" y="55.39287" width="3.60083" height="18.00464" style="fill:#191c4e"/><path d="M743.79132,73.68053a8.34825,8.34825,0,0,1-6.99654-3.26679l2.59814-2.31495a5.8325,5.8325,0,0,0,4.604,2.05768c2.13472,0,3.13779-.59153,3.13779-1.95428,0-1.15758-.61712-1.67249-4.01239-2.44369-3.3178-.77157-5.633-1.82613-5.633-5.37591,0-3.26674,2.88074-5.27251,6.43052-5.27251a8.606,8.606,0,0,1,6.55861,2.829l-2.59775,2.52072a5.48979,5.48979,0,0,0-4.08938-1.8519c-1.92916,0-2.57221.82306-2.57221,1.62036,0,1.13186.77157,1.49188,3.62638,2.1607,2.85519.66877,6.019,1.64612,6.019,5.55554,0,3.421-2.16065,5.736-7.07314,5.736" style="fill:#191c4e"/><path d="M759.89273,73.68053a8.34667,8.34667,0,0,1-6.99572-3.26679l2.59776-2.31495a5.83242,5.83242,0,0,0,4.60391,2.05768c2.13471,0,3.13783-.59153,3.13783-1.95428,0-1.15758-.61712-1.67249-4.01238-2.44369-3.31785-.77157-5.633-1.82613-5.633-5.37591,0-3.26674,2.88118-5.27251,6.43052-5.27251a8.606,8.606,0,0,1,6.55866,2.829l-2.59776,2.52072a5.49068,5.49068,0,0,0-4.08981-1.8519c-1.92877,0-2.57182.82306-2.57182,1.62036,0,1.13186.77158,1.49188,3.62638,2.1607,2.85524.66877,6.019,1.64612,6.019,5.55554,0,3.421-2.1607,5.736-7.07357,5.736" style="fill:#191c4e"/><rect x="770.51646" y="55.39287" width="3.60083" height="18.00464" style="fill:#191c4e"/><path d="M785.35776,58.68517c-2.9063,0-4.11541,2.49457-4.11541,5.70983s1.20911,5.71043,4.11541,5.71043c2.90667,0,4.11535-2.49517,4.11535-5.71043s-1.20868-5.70983-4.11535-5.70983m0,14.99554c-4.91249,0-7.81922-3.80678-7.81922-9.28571,0-5.47829,2.90673-9.28511,7.81922-9.28511,4.91287,0,7.81916,3.80682,7.81916,9.28511,0,5.47893-2.90629,9.28571-7.81916,9.28571" style="fill:#191c4e"/><path d="M807.70963,73.39751l-6.61053-9.8254c-.43706-.66877-1.02863-1.56909-1.26012-2.03213,0,.66882.05149,2.93244.05149,3.93556v7.922h-3.54977V55.39287h3.44719l6.37861,9.51687c.43705.66877,1.02862,1.56849,1.26016,2.03149,0-.66835-.05149-2.93181-.05149-3.93492V55.39287h3.5493V73.39751Z" style="fill:#191c4e"/><path d="M820.64771,73.68053a8.34656,8.34656,0,0,1-6.99567-3.26679l2.59771-2.31495a5.83257,5.83257,0,0,0,4.604,2.05768c2.13472,0,3.13779-.59153,3.13779-1.95428,0-1.15758-.61707-1.67249-4.01239-2.44369-3.3178-.77157-5.633-1.82613-5.633-5.37591,0-3.26674,2.88117-5.27251,6.43052-5.27251a8.60588,8.60588,0,0,1,6.55861,2.829l-2.59771,2.52072a5.4907,5.4907,0,0,0-4.08985-1.8519c-1.92873,0-2.57178.82306-2.57178,1.62036,0,1.13186.77158,1.49188,3.62638,2.1607,2.85519.66877,6.019,1.64612,6.019,5.55554,0,3.421-2.16065,5.736-7.07357,5.736" style="fill:#191c4e"/><polygon points="625.141 156.846 625.141 171.062 621.599 171.062 621.599 156.846 616.515 156.846 616.515 153.356 630.225 153.356 630.225 156.846 625.141 156.846" style="fill:#191c4e"/><path d="M638.92444,156.59336c-2.85815,0-4.04733,2.45376-4.04733,5.61543,0,3.16206,1.18917,5.61581,4.04733,5.61581,2.85858,0,4.04737-2.45376,4.04737-5.61581,0-3.16167-1.18879-5.61543-4.04737-5.61543m0,14.74749c-4.83146,0-7.69-3.744-7.69-9.13206s2.85858-9.13168,7.69-9.13168,7.69,3.74359,7.69,9.13168-2.85854,9.13206-7.69,9.13206" style="fill:#191c4e"/><polygon points="656.249 156.846 656.249 171.062 652.708 171.062 652.708 156.846 647.623 156.846 647.623 153.356 661.334 153.356 661.334 156.846 656.249 156.846" style="fill:#191c4e"/><path d="M669.779,160.53917c-.35419-1.037-.70817-2.09952-.88522-2.75681-.1771.65728-.53129,1.71982-.88527,2.75681l-1.13872,3.21277h4.04733Zm3.7438,10.52329-1.39118-3.94624h-6.476l-1.391,3.94624h-3.79447l6.77948-17.70695H670.69l6.72838,17.70695Z" style="fill:#191c4e"/><polygon points="680.095 171.062 680.095 153.356 683.637 153.356 683.637 167.572 692.516 167.572 692.516 171.062 680.095 171.062" style="fill:#191c4e"/><path d="M712.01131,158.51583a3.36292,3.36292,0,0,0-3.23807-1.92247c-2.65572,0-4.17379,2.32729-4.17379,5.61543,0,3.18761,1.54336,5.61581,4.19913,5.61581,1.594,0,2.52989-.68284,3.46562-2.25154l2.985,1.77092a6.764,6.764,0,0,1-6.55128,3.99687c-4.62946,0-7.74067-3.54137-7.74067-9.13206,0-5.38809,3.23806-9.13168,7.86671-9.13168a6.67945,6.67945,0,0,1,6.47592,3.92069Z" style="fill:#191c4e"/><path d="M725.84155,160.53917c-.35419-1.037-.708-2.09952-.88484-2.75681-.17753.65728-.5315,1.71982-.88565,2.75681l-1.13833,3.21277h4.04711Zm3.744,10.52329-1.39122-3.94624h-6.4757l-1.39139,3.94624h-3.79447l6.77943-17.70695h3.44033l6.72859,17.70695Z" style="fill:#191c4e"/><path d="M744.32843,156.79558h-4.62907v4.55328h4.62907c1.64407,0,2.52951-.759,2.52951-2.30174,0-1.59383-.96123-2.25154-2.52951-2.25154m2.09956,14.26688-3.16253-6.3744h-3.5661v6.3744H736.158V153.35551h8.24624c3.33915,0,6.09643,1.84624,6.09643,5.61539a5.04584,5.04584,0,0,1-3.38987,5.21056l3.38987,6.881Z" style="fill:#191c4e"/><path d="M770.45117,158.51583a3.363,3.363,0,0,0-3.23789-1.92247c-2.65636,0-4.174,2.32729-4.174,5.61543,0,3.18761,1.54316,5.61581,4.19909,5.61581,1.59383,0,2.52951-.68284,3.46562-2.25154l2.985,1.77092a6.76514,6.76514,0,0,1-6.55192,3.99687c-4.62908,0-7.74051-3.54137-7.74051-9.13206,0-5.38809,3.23789-9.13168,7.86735-9.13168a6.67914,6.67914,0,0,1,6.47575,3.92069Z" style="fill:#191c4e"/><path d="M784.28137,160.53917c-.35419-1.037-.70834-2.09952-.88544-2.75681-.17753.65728-.53086,1.71982-.88505,2.75681l-1.13829,3.21277h4.04711Zm3.744,10.52329-1.39161-3.94624H780.158l-1.39118,3.94624H774.9726l6.77927-17.70695h3.44007l6.729,17.70695Z" style="fill:#191c4e"/><path d="M802.7683,156.79558h-4.62907v4.55328h4.62907c1.64445,0,2.52947-.759,2.52947-2.30174,0-1.59383-.96119-2.25154-2.52947-2.25154m2.09952,14.26688-3.16167-6.3744h-3.56692v6.3744h-3.54137V153.35551h8.24663c3.33876,0,6.096,1.84624,6.096,5.61539a5.046,5.046,0,0,1-3.3894,5.21056l3.3894,6.881Z" style="fill:#191c4e"/><polygon points="812.047 171.062 812.047 153.356 824.341 153.356 824.341 156.821 815.589 156.821 815.589 159.882 820.673 159.882 820.673 163.322 815.589 163.322 815.589 167.597 824.72 167.597 824.72 171.062 812.047 171.062" style="fill:#191c4e"/><path d="M861.38607,80.851a4.46451,4.46451,0,0,1,4.57086,4.45446,4.45448,4.45448,0,1,1-8.909,0,4.35314,4.35314,0,0,1,.68909-2.38126,4.1624,4.1624,0,0,1,1.72445-1.57878A4.49721,4.49721,0,0,1,861.38607,80.851Zm.22606.87082a3.48835,3.48835,0,0,0-2.66095,1.08114,3.5417,3.5417,0,0,0-1.019,2.50546,3.58369,3.58369,0,0,0,7.16736,0,3.501,3.501,0,0,0-.52962-1.87475,3.43333,3.43333,0,0,0-1.36271-1.28461A3.4972,3.4972,0,0,0,861.61213,81.72181Zm-2.07234,5.9616V82.95433h2.234a1.62975,1.62975,0,0,1,1.207.386,1.3054,1.3054,0,0,1,.37721.94906,1.21128,1.21128,0,0,1-.31818.87669,1.718,1.718,0,0,1-.96.44687,1.174,1.174,0,0,1,.46261.3004,5.98416,5.98416,0,0,1,.54428.81933l.5526.95073h-1.17893l-.39393-.76425a3.5522,3.5522,0,0,0-.62256-.93024.99764.99764,0,0,0-.70376-.248H860.491v1.94253Zm.95119-2.69276h.77406a1.64251,1.64251,0,0,0,.82937-.15408.549.549,0,0,0,.24534-.50363.52409.52409,0,0,0-.24243-.47119,1.37045,1.37045,0,0,0-.73389-.1572H860.491Z" style="fill:#fff"/></g></svg>