<svg xmlns="http://www.w3.org/2000/svg" xmlns:xlink="http://www.w3.org/1999/xlink" viewBox="0 0 2583.38217 2010.04497"><defs><clipPath id="a" transform="translate(-13.457 -19.8028)"><rect width="2607.26073" height="1609.34885" style="fill:none"/></clipPath><linearGradient id="b" x1="452.05565" y1="92.67626" x2="452.05565" y2="325.27215" gradientTransform="translate(1080.02088)" gradientUnits="userSpaceOnUse"><stop offset="0" stop-color="#b6bfbe"/><stop offset="1" stop-color="#fff"/></linearGradient><linearGradient id="c" x1="-159.86206" y1="88.38709" x2="-159.86206" y2="311.69637" gradientTransform="translate(1066.56388 -19.8028)" xlink:href="#b"/><linearGradient id="d" x1="776.279" y1="673.62388" x2="1298.63" y2="673.62388" gradientTransform="translate(1080.02088)" gradientUnits="userSpaceOnUse"><stop offset="0" stop-color="#717070"/><stop offset="0.23895" stop-color="#898887"/><stop offset="0.74478" stop-color="#b6b5b4"/><stop offset="1" stop-color="#c7c6c5"/></linearGradient><linearGradient id="e" x1="-925.61293" y1="665.08962" x2="-417.79757" y2="665.08962" xlink:href="#d"/><linearGradient id="f" x1="1413.27533" y1="635.0551" x2="1413.27533" y2="569.39223" gradientTransform="translate(1080.02088)" gradientUnits="userSpaceOnUse"><stop offset="0" stop-color="#e8e9f5"/><stop offset="0.09615" stop-color="#d9e8e6"/><stop offset="1" stop-color="#fff"/></linearGradient><linearGradient id="g" x1="215.04269" y1="452.19558" x2="215.04269" y2="304.76207" xlink:href="#f"/><linearGradient id="h" x1="444.40802" y1="810.78052" x2="444.40802" y2="375.17766" gradientTransform="translate(1066.56388 -19.8028)" xlink:href="#f"/><linearGradient id="i" x1="55.59854" y1="824.03498" x2="605.10647" y2="444.61787" gradientTransform="translate(1066.56388 -19.8028)" gradientUnits="userSpaceOnUse"><stop offset="0" stop-color="#eaeef3"/><stop offset="0.50574" stop-color="#f7f9fb"/><stop offset="1" stop-color="#fff"/></linearGradient><linearGradient id="j" x1="-251.63291" y1="807.90974" x2="-251.63291" y2="329.35855" xlink:href="#f"/><linearGradient id="k" x1="-325.06283" y1="779.36724" x2="-103.66879" y2="355.1097" gradientTransform="translate(1080.02088)" xlink:href="#i"/><linearGradient id="l" x1="159.29444" y1="817.69384" x2="159.29444" y2="658.17544" gradientTransform="translate(1080.02088)" gradientUnits="userSpaceOnUse"><stop offset="0" stop-color="#fff"/><stop offset="0.16713" stop-color="#e1e1e1"/><stop offset="0.41769" stop-color="#bababa"/><stop offset="0.64849" stop-color="#9e9e9e"/><stop offset="0.84999" stop-color="#8d8d8d"/><stop offset="1" stop-color="#878787"/></linearGradient><linearGradient id="m" x1="-1006.77558" y1="366.75668" x2="-815.772" y2="366.75668" gradientTransform="translate(1066.56388 -19.8028)" gradientUnits="userSpaceOnUse"><stop offset="0" stop-color="#fff"/><stop offset="1" stop-color="#878787"/></linearGradient><linearGradient id="n" x1="-1006.77558" y1="449.08526" x2="-882.85543" y2="449.08526" xlink:href="#m"/><linearGradient id="o" x1="-407.43978" y1="375.93737" x2="-407.43978" y2="523.36113" gradientTransform="translate(1080.02088)" gradientUnits="userSpaceOnUse"><stop offset="0" stop-color="#b6bfbe"/><stop offset="0.12684" stop-color="#cbd2d1"/><stop offset="0.30644" stop-color="#e2e6e5"/><stop offset="0.50027" stop-color="#f2f4f4"/><stop offset="0.71637" stop-color="#fcfcfc"/><stop offset="1" stop-color="#fff"/></linearGradient><linearGradient id="p" x1="-395.96566" y1="388.04927" x2="-395.96566" y2="417.81658" gradientTransform="translate(1080.02088)" gradientUnits="userSpaceOnUse"><stop offset="0" stop-color="#fff"/><stop offset="0.28363" stop-color="#fcfcfc"/><stop offset="0.49973" stop-color="#f2f4f4"/><stop offset="0.69356" stop-color="#e2e6e5"/><stop offset="0.87316" stop-color="#cbd2d1"/><stop offset="1" stop-color="#b6bfbe"/></linearGradient><linearGradient id="q" x1="878.95638" y1="487.01089" x2="878.95638" y2="412.83662" gradientTransform="translate(1066.56388 -19.8028)" xlink:href="#b"/><linearGradient id="r" x1="2107.88071" y1="908.06067" x2="2107.88071" y2="704.36942" gradientUnits="userSpaceOnUse"><stop offset="0" stop-color="#a1b2b2"/><stop offset="0.3335" stop-color="#a5b4b4"/><stop offset="0.64465" stop-color="#b0bab9"/><stop offset="0.94612" stop-color="#c3c4c3"/><stop offset="1" stop-color="#c7c6c5"/></linearGradient><linearGradient id="s" x1="2107.88016" y1="882.36181" x2="2107.88016" y2="697.61359" xlink:href="#r"/><linearGradient id="t" x1="2094.42371" y1="804.42442" x2="2094.42371" y2="734.71957" xlink:href="#r"/><linearGradient id="u" x1="2094.4238" y1="781.48473" x2="2094.4238" y2="748.44476" xlink:href="#r"/><linearGradient id="v" x1="412.43572" y1="908.06067" x2="412.43572" y2="704.36942" xlink:href="#r"/><linearGradient id="w" x1="412.43517" y1="882.36181" x2="412.43517" y2="697.61359" xlink:href="#r"/><linearGradient id="x" x1="398.97872" y1="804.42442" x2="398.97872" y2="734.71957" xlink:href="#r"/><linearGradient id="y" x1="398.97881" y1="781.48473" x2="398.97881" y2="748.44476" xlink:href="#r"/></defs><title>frame2-lift</title><g style="isolation:isolate"><g style="clip-path:url(#a)"><rect x="1402.80599" y="94.2086" width="168.14918" height="1748.87449" style="fill:#04243e"/><polygon points="1570.955 1694.701 1402.806 1694.701 1402.806 96.166 1444.964 96.166 1444.964 692.922 1570.955 885.455 1444.964 1363.301 1444.964 1642.313 1570.955 1694.701" style="fill:#07182d"/><path d="M1784.43262,905.25743h-604.034V846.77222H1842.918A58.48652,58.48652,0,0,1,1784.43262,905.25743Z" transform="translate(-13.457 -19.8028)" style="fill:#191919"/><rect x="1200.89955" y="1693.78854" width="571.96379" height="162.75284" style="fill:#3e3e3e"/><path d="M2392.98446,933.30247c0,39.485-21.73812,70.584-55.71517,70.584-33.97895,0-57.72028-32.00981-57.72028-71.49477,0-39.48306,13.449-71.49287,57.72028-71.49287C2382.264,860.89887,2392.98446,893.81941,2392.98446,933.30247Z" transform="translate(-13.457 -19.8028)" style="fill:#152f55"/><path d="M2427.37256,1253.9137c16.11644-49.27572,57.76933-133.73838,33.47891-148.48228-31.66332-19.2199-122.8095-31.11613-122.8095-31.11613l-.00207,1.56395s-91.95863,7.55845-123.68064,26.68368c-24.334,14.67006,17.8434,103.32281,33.81233,152.64776,3.83035,11.83564,3.33049,64.87544,1.78737,111.90748-.37868,11.60086-9.87786,64.936-8.30634,86.996.46974,6.58146,74.88206,47.441,95.74732,48.51647l.00379-1.56584c20.86715-1.013,95.4029-41.64911,95.89311-48.23057,1.63779-22.05242-7.70235-75.416-8.04695-87.01875C2423.84877,1318.77967,2423.50606,1265.738,2427.37256,1253.9137Z" transform="translate(-13.457 -19.8028)" style="fill:#fbbc95"/><path d="M2432.28765,1180.02189c-17.52341-6.37508-24.45326-43.98367-8.384-74.77413s26.51156-38.366,30.89081-46.26143c4.52144-8.153,29.89678-63.94389,38.05544-76.08626s31.96816-22.42732,45.0951-15.577c10.97982,5.72943,23.16574,10.58032,16.01627,34.7685C2546.80992,1026.27974,2464.8882,1191.88215,2432.28765,1180.02189Z" transform="translate(-13.457 -19.8028)" style="fill:#fbbc95"/><path d="M2376.14646,1059.76451c-2.07138-9.39315-7.21953-55.83257-7.21953-55.83257l-30.7791-.04734-.00189,1.56584-30.781-.04544s-5.28637,46.42426-7.38615,55.81174c-2.10167,9.38747-27.45619,23.51981-27.45619,23.51981l65.504.09846.00189-1.56584,65.50215.09846S2378.21991,1069.15767,2376.14646,1059.76451Z" transform="translate(-13.457 -19.8028)" style="fill:#fbbc95"/><path d="M2288.51236,1402.3903c-37.56126-.17041-52.2086,26.00774-51.28462,106.35036.92209,80.34262,12.77287,167.48255,17.97025,180.01117,5.19927,12.52862,58.42841,12.87133,63.65609,5.57606,5.22768-7.29716,18.51934-173.95987,18.5591-200.04523S2329.427,1402.57586,2288.51236,1402.3903Z" transform="translate(-13.457 -19.8028)" style="fill:#fbbc95"/><path d="M2314.69646,1753.68885l-57.66167-1.46551a3.2531,3.2531,0,0,1-3.16017-3.32536l2.0711-81.13667a3.25294,3.25294,0,0,1,3.32543-3.15963l57.66131,1.47652a3.25331,3.25331,0,0,1,3.15963,3.32543l-2.07082,81.12558A3.25307,3.25307,0,0,1,2314.69646,1753.68885Z" transform="translate(-13.457 -19.8028)" style="fill:#fbbc95"/><path d="M2285.45263,1703.899c-11.47779-.017-39.65536,3.73946-38.20123,78.64235,1.45224,74.90478,33.12124,177.53461,33.12124,177.53461l27.1288.03976s13.44675-138.64986,13.55089-165.25023C2321.289,1734.34679,2321.70933,1703.952,2285.45263,1703.899Z" transform="translate(-13.457 -19.8028)" style="fill:#fbbc95"/><path d="M2387.60342,1403.06057c37.34559-4.03673,54.60753,20.49416,61.95978,100.50543,7.35189,80.01128,4.53451,167.90667.65494,180.90486-3.88147,12.99629-56.79252,18.8185-62.74347,12.09882s-36.32866-171.12924-39.05326-197.0707C2345.69681,1473.55562,2346.92563,1407.457,2387.60342,1403.06057Z" transform="translate(-13.457 -19.8028)" style="fill:#fbbc95"/><path d="M2390.04541,1664.20754h61.30945a1.43128,1.43128,0,0,1,1.43128,1.43128v84.77993a1.43434,1.43434,0,0,1-1.43434,1.43434h-61.29624a1.43786,1.43786,0,0,1-1.43786-1.43786v-84.78a1.42771,1.42771,0,0,1,1.42771-1.42771Z" transform="translate(5027.05988 3071.60561) rotate(172.62951)" style="fill:#fbbc95"/><path d="M2421.68461,1702.65128c11.41341-1.19852,39.82766-.36164,46.0931,74.29321,6.26508,74.65674-14.67024,179.99981-14.67024,179.99981l-26.98094,2.83442s-27.64724-136.53115-30.48941-162.98C2389.17305,1736.62833,2385.62482,1706.43618,2421.68461,1702.65128Z" transform="translate(-13.457 -19.8028)" style="fill:#fbbc95"/><path d="M2242.55577,1171.992c14.59432-11.60654,14.67763-40.54715-5.26158-68.986-19.93956-28.437-36.65449-45.64229-42.02607-52.90158-5.54387-7.496-34.41632-53.30677-44.084-64.28281-9.66959-10.97793-28.94629-19.46983-41.06956-10.97036-10.14122,7.10972-21.5906,13.50562-11.35489,36.55776C2108.99743,1034.46112,2206.96554,1200.29452,2242.55577,1171.992Z" transform="translate(-13.457 -19.8028)" style="fill:#fbbc95"/><path d="M2247.78362,1386.232s-13.60235,66.16106-15.74379,102.15458c-2.13954,35.99353,15.24,193.36532,15.27405,210.68614.036,17.31893-1.21178,70.531-.18366,122.70365,1.02812,52.17073,14.33871,154.88765,14.33871,154.88765l66.7802-1.55827s.42791-220.56022.479-255.22647,8.67177-217.24866,8.67177-217.24866l.17041-113.46954Z" transform="translate(-13.457 -19.8028)" style="fill:#04243e"/><path d="M2477.26914,1078.07369c-4.12951-6.86925-29.64117-11.89434-51.18616,1.27994-16.09182,9.8381-36.51042-5.03834-36.51042-5.03834l-11.34714,6.01722a81.06127,81.06127,0,0,1-80.57361-.12118l-9.71882-5.58363s-18.7617,7.14569-36.08441-.31241c-21.26666-9.15837-53.68545-7.85571-57.19581-.64944-3.56338,7.3161,45.21059,180.1172,49.30619,192.06645,4.09336,11.94924-6.5627,95.49739,3.82467,120.49973l89.5917,2.92151v.01136l.1723-.00568.02272.00189v-.00189l89.60134-2.65455c8.22889-28.64145-.05491-110.12012,4.0746-122.05611C2435.37578,1252.51069,2484.1668,1089.54769,2477.26914,1078.07369Z" transform="translate(-13.457 -19.8028)" style="fill:#b8b4b4"/><path d="M2426.4219,1384.3765s20.34079,64.40966,26.17435,99.99232c5.83546,35.58266,4.74675,193.90494,6.49625,211.13866,1.74761,17.23183,8.46539,70.03117,12.81453,122.03149,4.34725,52.00032,1.48443,155.5617,1.48443,155.5617l-66.58329,5.32424s-22.93475-219.36359-26.55682-253.8405c-3.62018-34.47691-43.11821-216.25463-43.11821-216.25463l.4372-119.16867Z" transform="translate(-13.457 -19.8028)" style="fill:#04243e"/><path d="M2268.47451,1976.49933s-22.83044,26.65907-21.62641,33.7044c.68352,4.00265,10.302,18.52881,27.78942,19.60426,13.29356.81984,34.98245-11.3036,38.36217-11.65009,7.82542-.80091,7.8027-42.87793,7.8027-42.87793Z" transform="translate(-13.457 -19.8028)" style="fill:#191919"/><path d="M2464.05511,1973.90159s25.453,24.16735,24.98151,31.29789c-.26886,4.05187-8.34042,19.49065-25.62527,22.36294-13.1383,2.1812-35.95944-7.64555-39.3562-7.63987-7.869.00757-12.17645-41.84792-12.17645-41.84792Z" transform="translate(-13.457 -19.8028)" style="fill:#191919"/><path d="M2418.60612,1519.27554c3.75822,23.5804,8.01837,182.06362,8.65645,191.05537.62293,8.78348,23.16953,253.227,24.213,264.52306l21.91592-1.75329s2.86282-103.56138-1.48443-155.5617-11.06692-104.80156-12.81453-122.03149c-1.7495-17.23372-.6608-175.556-6.49625-211.14055-5.83356-35.58266-26.17435-99.99043-26.17435-99.99043l-52.93188,3.71864S2414.84565,1495.69325,2418.60612,1519.27554Z" transform="translate(-13.457 -19.8028)" style="fill:#152f55"/><path d="M2326.95784,1458.74734c-12.38473-21.84226-45.51543-14.47693-47.672,10.53677-2.21528,25.70479-2.76815,43.49328-.52258,55.34218,5.648,29.79643,13.73851,175.46512,12.65548,179.28032-1.083,3.81709-.33135,271.32794-.33135,271.32794l1.18338.71,35.97648-.83878s.4298-220.56022.48092-255.22647,8.67177-217.24866,8.67177-217.24866l.01515-9.91384.69488-14.30085Z" transform="translate(-13.457 -19.8028)" style="fill:#152f55"/><path d="M2542.40776,1009.864c12.99647-7.816,19.60047-21.06975-.35785-58.58367-19.95643-37.51392-77.4798-118.45486-77.4798-118.45486l-21.02431,12.64412s22.18307,83.62578,32.11773,104.47211C2485.59631,970.788,2508.38716,1030.32215,2542.40776,1009.864Z" transform="translate(-13.457 -19.8028)" style="fill:#fbbc95"/><path d="M2393.117,972.63595c-.04734,31.51374-29.33822,58.30913-54.24021,58.27126-23.79624-.036-54.2724-26.92035-54.22507-58.4322.04734-31.51374,10.89083-58.70107,53.37493-58.70107C2384.70084,913.77394,2393.16434,941.12221,2393.117,972.63595Z" transform="translate(-13.457 -19.8028)" style="fill:#fbbc95"/><path d="M2284.81851,975.47037c-2.46538-2.51443-14.07-28.32715-12.25426-33.13828s11.59707-15.26269,14.85561-18.39627c3.26043-3.13547,32.20862-11.46453,36.54829-11.66713,4.34174-.20259,15.91592-.81227,24.9569.03787s24.94932,4.43245,28.56,8.62443,12.57407,9.01826,15.49937,12.37147c2.92341,3.35321,7.97518,11.94356,7.24983,13.197-.72517,1.25532-4.72024,11.71446-5.08378,12.55135-.36164.83688-2.22853,13.58514-2.22853,13.58514s-5.74836-30.728-6.25751-32.80883c-6.42448-26.24252-65.2259-40.53958-93.64582-4.76758C2289.98353,938.88042,2284.81851,975.47037,2284.81851,975.47037Z" transform="translate(-13.457 -19.8028)" style="fill:#8e3c27"/><polygon points="2290.78 1537.5 2218.401 1537.5 2216.386 1534.052 2211.115 1531.702 2218.248 1428.224 2285.316 1426.588 2290.78 1537.5" style="fill:#1e5c92"/><polygon points="2283.494 1531.702 2211.115 1531.702 2215.016 1426.374 2283.494 1426.374 2283.494 1531.702" style="fill:#152f55"/><polygon points="2218.401 1537.5 2216.386 1534.052 2285.923 1534.052 2285.316 1426.588 2290.78 1537.5 2218.401 1537.5" style="fill:#094977"/><polygon points="2373.77 1538.028 2445.804 1530.977 2447.472 1527.349 2452.49 1524.498 2435.311 1422.205 2368.404 1427.111 2373.77 1538.028" style="fill:#1e5c92"/><polygon points="2380.455 1531.549 2452.49 1524.498 2438.348 1420.05 2370.195 1426.721 2380.455 1531.549" style="fill:#152f55"/><polygon points="2445.804 1530.977 2447.472 1527.349 2378.266 1534.122 2368.404 1427.111 2373.77 1538.028 2445.804 1530.977" style="fill:#094977"/><path d="M2099.2046,1010.663c-8.58278-12.504-9.094-27.30282,24.62555-53.15909,33.71766-25.85626,119.63255-75.647,119.63255-75.647l13.88619,20.22529s-54.87072,66.89191-72.557,81.74C2167.10587,998.67019,2121.67547,1043.39039,2099.2046,1010.663Z" transform="translate(-13.457 -19.8028)" style="fill:#fbbc95"/><polygon points="2324.113 1369.337 2413.296 1366.429 2411.121 1347.315 2395.275 1152.644 2253.026 1152.644 2236.502 1347.315 2234.327 1366.429 2323.509 1369.337 2323.509 1369.358 2323.812 1369.347 2324.113 1369.358 2324.113 1369.337" style="fill:#152f55"/><path d="M2291.76729,1172.4464s13.15517,153.13058,29.1809,182.27c16.02763,29.13942,104.98711,24.33018,104.98711,24.33018l.81795,10.11833s-43.51789,10.35311-84.315,10.35311c-40.79518,0-95.04865-10.35311-95.04865-10.35311l19.093-216.71851Z" transform="translate(-13.457 -19.8028)" style="fill:#04243e"/><polygon points="2390.81 1163.815 2408.207 1061.567 2383.99 1058.271 2368.807 1163.815 2378.52 1180.109 2390.81 1163.815" style="fill:#094977"/><polygon points="2257.913 1163.815 2244.477 1056.538 2269.532 1056.538 2279.918 1163.815 2270.204 1180.109 2257.913 1163.815" style="fill:#094977"/><path d="M2245.93927,1395.51726l-.36732-16.91753s47.89939,7.63229,92.05347,7.63229c44.152,0,91.22192-7.63229,91.22192-7.63229l1.00161,16.91753s-56.86068,10.19406-92.71581,10.19406C2301.27955,1405.71133,2245.93927,1395.51726,2245.93927,1395.51726Z" transform="translate(-13.457 -19.8028)" style="fill:#094977"/><circle cx="2267.66121" cy="1161.89712" r="5.46336" style="fill:#303030"/><circle cx="2381.06254" cy="1161.89712" r="5.4634" style="fill:#303030"/><path d="M2220.34619,1182.417s-16.38737-10.3834-46.269-45.82974c-29.88352-35.44633-70.72415-109.05981-70.72415-109.05981s9.1205-13.17238,29.85134-25.74455c20.73272-12.57028,30.8946-13.27462,30.8946-13.27462l51.47585,78.56661S2247.52026,1172.32712,2220.34619,1182.417Z" transform="translate(-13.457 -19.8028)" style="fill:#b8b4b4"/><path d="M2448.1638,1183.42433s15.02981-9.80213,38.84688-49.57867c23.81518-39.77654,65.46429-116.77163,65.46429-116.77163s-10.9571-11.51755-33.43554-20.60587c-22.47844-9.08642-33.24052-8.69638-33.24052-8.69638l-45.16326,85.26735S2419.72323,1177.81987,2448.1638,1183.42433Z" transform="translate(-13.457 -19.8028)" style="fill:#b8b4b4"/><path d="M2447.72453,854.54841s-11.40962-2.505-13.07582-3.31345c-1.66808-.81038-14.56971-9.47836-19.43764-9.999-4.86982-.52068-7.9182.61346-8.827.1155-.90883-.49986-4.33967-9.30985,4.07838-10.2395,8.41995-.93155,16.97433,2.34782,19.20854.89747,2.2361-1.44845-4.20524-18.23154-6.9183-21.01673-2.71153-2.7833-23.11669-18.54964-24.04067-19.40166-.924-.85392-3.02755-3.74893-2.50479-4.99668.5224-1.24964,6.98836-2.79087,8.49172-2.41976,1.50147.36921,1.13036-2.99914,2.56366-3.41948,1.4333-.42412,6.64015-1.19663,6.64015-1.19663s5.7086-2.397,8.20789-2.00322c2.50118.39193,13.42249,3.14115,14.47693,3.9288,1.05273.78955,19.9356,14.24215,22.664,18.94725,2.72839,4.707,11.07639,39.74056,11.07639,39.74056Z" transform="translate(-13.457 -19.8028)" style="fill:#fbbc95"/><path d="M2251.76526,907.49164s11.40962-2.505,13.07582-3.31534c1.66619-.80848,14.56971-9.47646,19.43764-9.99715s7.9182.61346,8.827.1136c.90883-.498,4.33967-9.308-4.07838-10.2395-8.41995-.92966-16.97622,2.34971-19.20854.89936-2.2361-1.44845,4.20524-18.23344,6.91848-21.01673,2.71135-2.7833,23.11651-18.54964,24.04049-19.40166.924-.85392,3.02754-3.74893,2.505-4.99668-.52258-1.24964-6.99026-2.79087-8.4919-2.42166-1.50146.37111-1.13018-2.99725-2.56366-3.41759-1.4333-.42412-6.64015-1.19663-6.64015-1.19663s-5.7086-2.397-8.20961-2.00511c-2.49929.39193-13.42248,3.14115-14.47521,3.9307-1.05273.78765-19.9356,14.24026-22.664,18.94725s-11.07639,39.73867-11.07639,39.73867Z" transform="translate(-13.457 -19.8028)" style="fill:#fbbc95"/><path d="M2446.21847,459.62062c-21.473-7.4699-268.12395-69.18009-285.89269-73.05669-62.52253-13.64225-92.6468-60.24828-92.6468-60.24828s-63.48613-15.20572-77.42771-21.59857c-119.49823-54.80822-394.90645-221.121-576.35551-267.33955C1172.90266-24.00659,364.65021,95.12026,364.65021,95.12026l-186.996,204.61511L48.58795,563.89721,15.27006,627.55572s-17.05115,88.666,53.42782,159.14494c17.40126,17.40126,61.757,30.21634,118.61238,39.668,38.3411,0,405.43112,26.30634,454.87009,26.30634,5.45209-.01737,8.698-.04276,8.698-.04276l1207.07024.06013s6.43293.10156,18.044.25122c39.07733,0,432.83189-2.31714,467.47-2.31714,131.95-3.93807,242.10491-11.94382,253.37658-27.5491V634.37618C2596.83917,613.9148,2511.82,482.44056,2446.21847,459.62062Z" transform="translate(-13.457 -19.8028)" style="fill:#47686d"/><path d="M2446.21847,459.62062c-21.473-7.4699-268.12395-69.18009-285.89269-73.05669-62.52253-13.64225-92.6468-60.24828-92.6468-60.24828s-63.48613-15.20572-77.42771-21.59857c-119.49823-54.80822-394.90645-221.121-576.35551-267.33955C1172.90266-24.00659,364.65021,95.12026,364.65021,95.12026l-186.996,204.61511L48.58795,563.89721,15.27006,627.55572s-17.05115,88.666,53.42782,159.14494c17.40126,17.40126,61.757,30.21634,118.61238,39.668a229.37687,229.37687,0,0,1-4.9002-47.05636c0-126.19052,102.29753-228.48805,228.488-228.48805,126.18918,0,228.48671,102.29753,228.48671,228.48805,0,14.5496,2.52426,46.48843,2.79553,73.3627,5.45209-.01737,8.698-.04276,8.698-.04276l1207.07024.06013s6.43293.10156,18.044.25122c-.95-30.66267-.99287-60.88569-.99287-73.63129,0-126.19052,110.97143-236.70361,237.16195-236.70361s228.488,102.29753,228.488,228.48805c0,15.68278,2.9305,51.561,2.81291,79.52971,131.95-3.93807,242.10491-11.94382,253.37658-27.5491V634.37618C2596.83917,613.9148,2511.82,482.44056,2446.21847,459.62062Z" transform="translate(-13.457 -19.8028)" style="fill:#c0d3e2"/><path d="M2446.21847,459.62062c-21.473-7.4699-268.12395-69.18009-285.89269-73.05669-62.52253-13.64225-92.6468-60.24828-92.6468-60.24828s-63.48613-15.20572-77.42771-21.59857c-119.49823-54.80822-394.90645-221.121-576.35551-267.33955C1172.90266-24.00659,364.65021,95.12026,364.65021,95.12026l-186.996,204.61511L48.58795,563.89721,15.27006,627.55572s-17.05115,88.666,53.42782,159.14494c17.40126,17.40126,61.757,30.21634,118.61238,39.668a229.37687,229.37687,0,0,1-4.9002-47.05636c0-126.19052,102.29753-228.48805,228.488-228.48805,126.18918,0,228.48671,102.29753,228.48671,228.48805,0,14.5496,2.52426,46.48843,2.79553,73.3627,5.45209-.01737,8.698-.04276,8.698-.04276l1207.07024.06013s6.43293.10156,18.044.25122c-.95-30.66267-.99287-60.88569-.99287-73.63129,0-126.19052,110.97143-236.70361,237.16195-236.70361s228.488,102.29753,228.488,228.48805c0,15.68278,2.9305,51.561,2.81291,79.52971,131.95-3.93807,242.10491-11.94382,253.37658-27.5491V634.37618C2596.83917,613.9148,2511.82,482.44056,2446.21847,459.62062Z" transform="translate(-13.457 -19.8028)" style="fill:#c74347"/><path d="M1978.68029,366.09989S1696.127,172.93417,1485.89678,90.0998c-125.84709-49.586-335.91028-42.62787-335.91028-42.62787l32.39718,289.4125Z" transform="translate(-13.457 -19.8028)" style="fill:#385c61"/><polygon points="1136.53 27.669 659.124 61.455 546.195 274.007 1168.927 317.082 1136.53 27.669" style="fill:#385c61"/><path d="M672.5811,81.25752S479.9165,104.62668,469.639,122.4903c-17.8556,31.03817,52.62337,171.98942,93.92964,171.98942Z" transform="translate(-13.457 -19.8028)" style="fill:#385c61"/><path d="M648.44232,102.375s-150.96421,24.51036-156.872,37.51253c-5.90777,13.0035,51.15344,122.7696,72.75209,122.7696Z" transform="translate(-13.457 -19.8028)" style="fill:#47686d"/><path d="M1879.75691,335.62564s-237.09113-162.08613-413.497-231.59227c-105.59808-41.60828-281.86375-35.77-281.86375-35.77l27.18429,248.82382Z" transform="translate(-13.457 -19.8028)" style="fill:#47686d"/><path d="M1879.75691,335.62564s-237.09113-162.08613-413.497-231.59227c-105.59808-41.60828-281.86375-35.77-281.86375-35.77L1564.3334,326.87423Z" transform="translate(-13.457 -19.8028)" style="mix-blend-mode:soft-light;fill:url(#b)"/><polygon points="1113.706 52.322 676.874 79.504 587.854 253.839 1136.53 289.462 1113.706 52.322" style="fill:#47686d"/><polygon points="1113.706 52.322 676.874 79.504 1055.63 284.209 1136.53 289.462 1113.706 52.322" style="mix-blend-mode:soft-light;fill:url(#c)"/><path d="M2400.37013,848.58189c.02138-.21648,34.63548-354.02646-286.7693-354.02646-323.05777,0-291.97952,352.70353-291.48242,358.13424l33.45152.00267,20.41193-.155c-.93808-30.52236-.98218-60.53692-.98218-73.22506,0-126.19052,110.97143-236.70361,237.16195-236.70361s228.488,102.29753,228.488,228.48805c0,15.39147,2.80622,50.19532,2.79954,77.92348l56.64028-.42494C2400.18438,848.58991,2400.27525,848.5859,2400.37013,848.58189Z" transform="translate(-13.457 -19.8028)" style="mix-blend-mode:soft-light;fill:url(#d)"/><path d="M681.22561,852.63354c.02138-.21648,52.40956-375.12926-268.99521-375.12926-292.97773,0-292.49667,328.74239-291.99949,334.1731l67.07936,14.69125c-.2539-6.14162-4.71045-25.10367-4.71045-37.79181,0-126.19052,88.55246-236.87465,228.19139-236.87465,126.18918,0,228.488,102.29753,228.488,228.48805,0,15.39147,2.90778,44.75659,2.9011,72.48475C642.18035,852.675,681.13207,852.63889,681.22561,852.63354Z" transform="translate(-13.457 -19.8028)" style="mix-blend-mode:soft-light;fill:url(#e)"/><path d="M2596.83917,634.37618c0-9.37813-13.46052-31.24128-13.46052-31.24128l-193.6254-38.62032,51.32315,51.90979S2596.83917,643.328,2596.83917,634.37618Z" transform="translate(-13.457 -19.8028)" style="mix-blend-mode:soft-light;fill:url(#f)"/><path d="M1866.47412,454.76719,340.55544,317.22216,559.652,293.81023l622.73169,43.07419,796.2966,29.21546L2249.57171,417.256s-138.28668-6.82046-257.487,9.0935C1960.17258,430.611,1866.47412,454.76719,1866.47412,454.76719Z" transform="translate(-13.457 -19.8028)" style="mix-blend-mode:soft-light;fill:url(#g)"/><polygon points="1168.927 317.082 1170.939 796.454 1792.201 796.454 1853.017 434.964 1853.017 342.181 1168.927 317.082" style="mix-blend-mode:multiply;fill:url(#h)"/><polygon points="1168.927 317.082 1170.939 796.454 1792.201 796.454 1853.017 434.964 1853.017 342.181 1168.927 317.082" style="mix-blend-mode:multiply;fill:url(#i)"/><polygon points="1792.201 796.454 1170.939 796.454 1168.927 317.102 1179.211 317.458 1181.13 786.223 1783.542 786.223 1847.822 434.995 1830.937 342.471 1841.008 340.634 1858.213 434.928 1858.059 435.808 1792.201 796.454" style="fill:#c0d3e2;mix-blend-mode:multiply"/><path d="M559.652,293.81023l-87.27221,188.6036s121.93174,9.03738,179.88827,140.9125c41.07643,93.46461,32.1366,192.93053,32.1366,192.93053h499.99149l-2.01246-479.37244Z" transform="translate(-13.457 -19.8028)" style="mix-blend-mode:multiply;fill:url(#j)"/><path d="M559.652,293.81023l-87.27221,188.6036s121.93174,9.03738,179.88827,140.9125c41.07643,93.46461,32.1366,192.93053,32.1366,192.93053h499.99149l-2.01246-479.37244Z" transform="translate(-13.457 -19.8028)" style="mix-blend-mode:multiply;fill:url(#k)"/><path d="M1184.39615,816.25687H684.40466s13.01687-84.46866-34.54194-197.22673C597.00416,493.70287,472.37979,481.97954,472.37979,481.97954L563.9669,293.81023l11.11131,1.0677L486.80244,475.18447c27.62267,4.59552,125.26847,28.90945,169.93419,135.18647,43.78118,104.17236,40.10895,171.91726,39.75082,195.65524h487.90869Z" transform="translate(-13.457 -19.8028)" style="fill:#c0d3e2;mix-blend-mode:multiply"/><path d="M1805.65791,816.25687H684.40466a689.47356,689.47356,0,0,0-3.008-84.013c-5.10332-52.68217-19.45773-84.01432-19.45773-84.01432L1816.69171,750.67008Z" transform="translate(-13.457 -19.8028)" style="mix-blend-mode:soft-light;fill:url(#l)"/><path d="M271.15227,323.93037c14.66578,26.2569-.61878,116.06005-92.18986,180.85575-75.30567,53.28617-163.69235,122.7696-163.69235,122.7696l33.31789-63.65851Z" transform="translate(-13.457 -19.8028)" style="fill:#c0d3e2;mix-blend-mode:soft-light"/><path d="M2274.85311,426.3495c.85256,18.75626,92.0762,136.41052,120.21193,139.82075,28.13439,3.41023,188.31362,36.96464,188.31362,36.96464s-.72026-107.82847-96.0303-127.52548C2392.03966,455.91373,2274.85311,426.3495,2274.85311,426.3495Z" transform="translate(-13.457 -19.8028)" style="fill:#a3a2a3"/><ellipse cx="2473.75272" cy="516.24365" rx="14.60506" ry="41.49135" style="fill:#a3a2a3"/><path d="M42.139,392.763c-6.19774,61.35607-3.05745,170.3725,8.96388,173.442,12.02266,3.06947,220.04941-192.43744,220.04941-242.27463,0-9.27524-77.08169-20.25826-159.7142-20.25826C70.18919,303.67211,47.25432,342.1187,42.139,392.763Z" transform="translate(-13.457 -19.8028)" style="fill:#bc2025"/><polygon points="192.789 381.712 59.788 381.712 80.25 312.196 250.792 312.196 192.789 381.712" style="mix-blend-mode:soft-light;fill:url(#m)"/><polygon points="114.352 464.04 59.788 464.04 59.788 394.525 183.708 394.525 114.352 464.04" style="mix-blend-mode:soft-light;fill:url(#n)"/><path d="M250.26595,315.02395C237.31449,365.94755,88.2626,510.48676,43.40579,543.89151c1.935,12.98613,4.49,21.49433,7.69848,22.31348,12.02126,3.06947,220.048-192.43744,220.048-242.27463C271.15227,320.99719,263.4137,317.897,250.26595,315.02395Z" transform="translate(-13.457 -19.8028)" style="fill:#bc2025;mix-blend-mode:multiply"/><path d="M67.56069,366.75734c-4.63829,18.62664.55991,34.75708,9.66276,34.75708S89.897,385.57107,93.70667,366.75734c4.04631-19.98031,9.10285-34.75842,0-34.75842S73.2453,343.93473,67.56069,366.75734Z" transform="translate(-13.457 -19.8028)" style="fill:#e41e26"/><ellipse cx="59.78797" cy="429.28246" rx="14.91909" ry="34.75708" style="fill:#e41e26"/><ellipse cx="110.06647" cy="323.22559" rx="57.69061" ry="31.26066" style="fill:#fff;mix-blend-mode:soft-light"/><circle cx="331.73706" cy="394.52504" r="49.14566" style="fill:#fff;mix-blend-mode:soft-light"/><path d="M717.34838,430.45861H627.81382a29.02934,29.02934,0,0,1-28.94419-28.94419h0a29.02934,29.02934,0,0,1,28.94419-28.94419h89.53456a29.02928,29.02928,0,0,1,28.94419,28.94419h0A29.02928,29.02928,0,0,1,717.34838,430.45861Z" transform="translate(-13.457 -19.8028)" style="mix-blend-mode:multiply;fill:url(#o)"/><path d="M731.05478,416.75222H637.05565a15.28285,15.28285,0,0,1-15.23779-15.23779h0a15.282,15.282,0,0,1,15.23779-15.23779h93.99913a15.28285,15.28285,0,0,1,15.23779,15.23779h0A15.28371,15.28371,0,0,1,731.05478,416.75222Z" transform="translate(-13.457 -19.8028)" style="mix-blend-mode:soft-light;fill:url(#p)"/><g style="mix-blend-mode:multiply"><path d="M1339.83019,463.90078h-89.53456a29.02928,29.02928,0,0,1-28.94419-28.94419h0a29.02928,29.02928,0,0,1,28.94419-28.94419h89.53456a29.02928,29.02928,0,0,1,28.94419,28.94419h0A29.02928,29.02928,0,0,1,1339.83019,463.90078Z" transform="translate(-13.457 -19.8028)" style="fill:#0080ae;mix-blend-mode:multiply"/></g><ellipse cx="1945.5206" cy="447.88271" rx="37.08691" ry="17.49146" style="fill:#dc5926"/><ellipse cx="1945.5206" cy="447.88271" rx="37.08691" ry="17.49146" style="mix-blend-mode:soft-light;fill:url(#q)"/><path d="M1898.53856,336.88443s-119.55447-33.978-128.66-45.0332c-9.10419-11.05518-44.22062-70.23443-58.52846-74.13641-14.30639-3.902-53.32493-14.30639-63.73067,0-10.40441,14.30773-21.962,88.61385,6.50376,98.84855s70.88387-1.30022,83.89,5.2022c4.53272,2.26636,14.47343,9.14161,29.37314,10.74249Z" transform="translate(-13.457 -19.8028)" style="fill:#c74347"/><path d="M1767.38637,309.77364c-14.89971-1.60088-24.84042-8.47747-29.3718-10.74249-13.00751-6.50376-55.42692,5.03249-83.89138-5.2022-10.92423-3.92871-15.92064-17.3144-17.38244-33.10408-1.95779,24.17227,1.407,50.09376,17.38244,55.8385,28.46446,10.2347,70.88387-1.30022,83.89138,5.2022,4.53138,2.26636,14.47209,9.14161,29.3718,10.74249l131.15352,4.37637s-45.62117-12.97277-82.65129-25.49387Z" transform="translate(-13.457 -19.8028)" style="fill:#c74347;mix-blend-mode:multiply"/><circle cx="2094.4232" cy="760.73313" r="207.23392" style="fill:#191919"/><circle cx="2094.4232" cy="758.25841" r="156.50033" style="fill:#010101"/><circle cx="2094.42325" cy="760.81105" r="144.33508" style="fill:#47686d"/><path d="M2107.87969,633.39767a147.21618,147.21618,0,1,0,147.21618,147.21618A147.2151,147.2151,0,0,0,2107.87969,633.39767Zm0,256.6642a111.31514,111.31514,0,1,1,111.31615-111.31412A111.3137,111.3137,0,0,1,2107.87969,890.06187Z" transform="translate(-13.457 -19.8028)" style="fill:url(#r)"/><path d="M2107.8858,633.24284c31.67481.3504,18.98085,125.28339,18.98085,125.28339s110.322-53.139,120.24532-24.12892c10.02112,29.29941-110.927,55.11108-110.927,55.11108s82.28973,90.04954,57.74725,108.55979c-24.70139,18.63248-89.088-85.90989-89.088-85.90989s-58.65789,103.20188-83.00684,85.90989c-24.28986-17.25124,53.64224-106.42273,53.64224-106.42273s-116.75148-28.623-106.822-57.24813c9.81554-28.29505,117.95344,20.95085,117.95344,20.95085S2076.90161,632.90059,2107.8858,633.24284Z" transform="translate(-13.457 -19.8028)" style="fill:url(#s)"/><circle cx="2094.4232" cy="760.81105" r="50.37911" style="fill:url(#t)"/><circle cx="2073.27442" cy="732.2863" r="8.41426" style="fill:#47686d"/><circle cx="2116.71404" cy="732.2863" r="8.41426" style="fill:#47686d"/><circle cx="2128.78054" cy="770.05192" r="8.41375" style="fill:#47686d"/><circle cx="2060.06485" cy="770.05192" r="8.41375" style="fill:#47686d"/><circle cx="2093.12702" cy="795.67006" r="8.41375" style="fill:#47686d"/><circle cx="2094.42325" cy="760.81156" r="23.87932" style="fill:url(#u)"/><circle cx="398.97821" cy="760.73313" r="207.23392" style="fill:#191919"/><circle cx="398.97821" cy="758.25841" r="156.50033" style="fill:#010101"/><circle cx="398.97826" cy="760.81105" r="144.33508" style="fill:#47686d"/><path d="M412.4347,633.39767A147.21618,147.21618,0,1,0,559.65088,780.61385,147.2151,147.2151,0,0,0,412.4347,633.39767Zm0,256.6642A111.31514,111.31514,0,1,1,523.75085,778.74775,111.3137,111.3137,0,0,1,412.4347,890.06187Z" transform="translate(-13.457 -19.8028)" style="fill:url(#v)"/><path d="M412.44081,633.24284c31.67481.3504,18.98085,125.28339,18.98085,125.28339s110.322-53.139,120.24532-24.12892c10.02112,29.29941-110.927,55.11108-110.927,55.11108s82.28973,90.04954,57.74725,108.55979c-24.70138,18.63248-89.088-85.90989-89.088-85.90989s-58.65789,103.20188-83.00684,85.90989c-24.28986-17.25124,53.64224-106.42273,53.64224-106.42273s-116.75148-28.623-106.822-57.24813c9.81554-28.29505,117.95344,20.95085,117.95344,20.95085S381.45662,632.90059,412.44081,633.24284Z" transform="translate(-13.457 -19.8028)" style="fill:url(#w)"/><circle cx="398.97821" cy="760.81105" r="50.37911" style="fill:url(#x)"/><circle cx="377.82942" cy="732.2863" r="8.41426" style="fill:#47686d"/><circle cx="421.26905" cy="732.2863" r="8.41426" style="fill:#47686d"/><circle cx="433.33555" cy="770.05192" r="8.41375" style="fill:#47686d"/><circle cx="364.61986" cy="770.05192" r="8.41375" style="fill:#47686d"/><circle cx="397.68203" cy="795.67006" r="8.41375" style="fill:#47686d"/><circle cx="398.97826" cy="760.81156" r="23.87932" style="fill:url(#y)"/></g></g></svg>