<svg xmlns="http://www.w3.org/2000/svg" xmlns:xlink="http://www.w3.org/1999/xlink" viewBox="0 0 1113.64392 919.03858"><defs><clipPath id="a"><polyline points="-0.852 1.511 1108.322 1.511 1108.322 1108.33 -0.852 1108.33" style="fill:none"/></clipPath></defs><title>frame6-car</title><g style="clip-path:url(#a)"><path d="M1026.55182-386.66839c23.70874-98.659-16.322-242.50174-43.25159-411.3-6.90692-51.00891-32.82227-115.25558-133.674-117.174-187.73822-90.42237-402.57053-90.9025-603.479,10.96346-101.87955,9.48334-115.47429,83.73447-120.079,132.49538C98.76855-636.3923,77.62289-515.03875,84.95445-410.54174l45.29333,80.14423c-74.63464,329.11426-8.46914,594.26935-6.85206,888.75238,8.346,156.6427,65.83636,286.41052,221.945,323.02942,38.05737,54.22839,384.042,47.63708,426.608-5.35876C928.3722,838.338,978.47626,720.13672,991.33094,573.77247c-2.74084-298.07349,57.3808-501.81873-8.25018-894.22052Z"/><path d="M832.33118,29.93561C648.86853,71.2,465.41968,55.68641,281.957,31.42933L236.60868,277.30225C225.37108,335.9303,440.368,361.29749,538.10852,362.21546c105.94977-.918,338.22784,7.22241,339.57086-87.84583Z" style="fill:#2d5879"/><path d="M214.613-409.14379,188.27291-291.326V205.57276l26.34006,1.49365L249.03907,4.33533l-5.13921-277.35217c-3.16579-37.41333-5.78348-133.93451-29.28691-136.12708Z" style="fill:#2d5879"/><path d="M895.98859-409.14379l26.34027,117.81787v496.8988l-26.34027,1.49365L861.6175,4.33539l5.08441-277.35211C869.85407-310.43,872.48542-406.95123,895.98859-409.14379Z" style="fill:#2d5879"/><path d="M942.72089,617.24317l-65.68579,49.0896L875.32227,699.21l-56.32562,23.599L771.9488,853.2212c32.12378-8.93506,89.92926-27.09326,140.732-96.26062,21.95453-27.61426,30.41046-83.7207,30.04016-139.71729Z" style="fill:#2d5879"/><path d="M944.64612,613.38135l.02008,3.85437c.435,64.66821-10.6665,116.03345-30.46045,140.95325-53.085,72.27-115.21039,89.53442-141.73615,96.89526l-3.64026,1.01709L817.451,721.34461l.78961-.32117,55.19287-23.13977,1.69971-32.56165ZM775.066,850.31983c27.85742-7.84265,86.008-26.392,136.0415-94.49963,18.904-23.79553,29.644-72.7384,29.67084-134.68982l-61.84436,46.226-1.72644,33.17725-1.13092.46838-55.53412,23.287Z" style="fill:#ed1c24"/><path d="M907.70588,371.9596A349.10941,349.10941,0,0,0,873.335,346.099c-18.78894,41.53845-65.89136,44.485-104.55182,58.998l1.08282,45.55371,41.90845,32.603,70.87976-.5343,24.84637-37.2627Z" style="fill:#2d5879"/><path d="M872.51,343.18531l1.91382,1.28479a354.11485,354.11485,0,0,1,34.54907,26.00378l.68927.58887-.00671.89673-.20746,74.07678-.32123.49524-25.42163,38.12915-1.03723.01343-71.554.522-43.17462-33.57874-1.13757-47.85876,1.29816-.48181c8.98022-3.386,18.53589-6.16968,27.7771-8.85974,31.67163-9.24792,61.59009-17.97375,75.676-49.13025Zm33.2442,29.6709a343.442,343.442,0,0,0-31.62482-23.87585c-15.23022,31.10291-46.70111,40.29724-77.16156,49.17041-8.726,2.55627-17.73291,5.17932-26.20459,8.2843l1.03052,43.22815L812.43891,481.288l69.165-.50854,23.94946-35.9209Z" style="fill:#ed1c24"/><path d="M820.13416,423.35157a24.99651,24.99651,0,1,0-.00006-.05945Z" style="fill:#2d5879"/><path d="M845.12769,391.00391a32.314,32.314,0,1,1-32.294,32.34753A32.314,32.314,0,0,1,845.12769,391.00391Zm0,50.04028a17.72623,17.72623,0,1,0-17.69275-17.75964c-.00006.02222-.00006.04456,0,.06689A17.7134,17.7134,0,0,0,845.12769,441.04419Z" style="fill:#ed1c24"/><path d="M872.85529,375.86524a9.045,9.045,0,1,0,9.04523-9.0448h-.00024a9.03632,9.03632,0,0,0-9.045,9.02771Z" style="fill:#2d5879"/><path d="M881.89838,364.679a11.18176,11.18176,0,1,1-11.18848,11.175h0A11.195,11.195,0,0,1,881.89838,364.679Zm0,18.08093a6.89911,6.89911,0,1,0,.00745-13.79822h-.00745a6.81556,6.81556,0,0,0-6.89239,6.73779q-.00092.07745,0,.15466a6.91118,6.91118,0,0,0,6.89239,6.90564Z" style="fill:#ed1c24"/><path d="M837.63477,466.91822a9.07246,9.07246,0,1,0,9.09979-9.045h-.05481a9.03925,9.03925,0,0,0-9.045,9.03357Z" style="fill:#2d5879"/><path d="M846.68018,455.73914a11.18848,11.18848,0,1,1-11.19513,11.18848A11.18837,11.18837,0,0,1,846.68018,455.73914Zm0,18.09424a6.90583,6.90583,0,1,0-6.89911-6.91248v.00671A6.94126,6.94126,0,0,0,846.68018,473.83338Z" style="fill:#ed1c24"/><path d="M782.28193,428.10706a9.04514,9.04514,0,1,0,9.04523-9.045h0A9.06263,9.06263,0,0,0,782.28193,428.10706Z" style="fill:#2d5879"/><path d="M791.32673,416.92737a11.18848,11.18848,0,1,1-11.19513,11.18848A11.18837,11.18837,0,0,1,791.32673,416.92737Zm0,18.09424a6.90583,6.90583,0,1,0-6.89911-6.91248v.00671a6.91265,6.91265,0,0,0,6.89911,6.90588Z" style="fill:#ed1c24"/><path d="M207.87072,371.2605c12.046-9.63428,21.83115-17.45959,33.2469-25.1615,25.90176,33.35693,63.21887,47.65076,103.5788,58.77869l-.10959,45.77307-38.27673,36.17993-73.81241-.09583L208.02124,447.2793Z" style="fill:#2d5879"/><path d="M241.53955,343.453l1.11751,1.44543c24.458,31.491,58.6859,45.99854,102.55644,58.097l1.43872.38806-.12045,48.09973L307.08442,488.796l-75.66934-.10706-25.34132-40.85925-.15392-77.51624.73608-.58887c11.64349-9.31482,21.69438-17.35815,33.37134-25.25439ZM342.7443,406.35462C299.476,394.323,265.469,379.73523,240.7098,348.726c-10.6799,7.32068-20.12184,14.84216-30.882,23.46106l.14052,74.51843L233.58319,484.781l71.94879.10706L342.63727,449.797Z" style="fill:#ed1c24"/><path d="M294.31864,423.35157a24.97109,24.97109,0,1,1,.00012-.05969l-.00006.05957Z" style="fill:#2d5879"/><path d="M269.32334,391.00391a32.31405,32.31405,0,1,1-32.3542,32.34753A32.31413,32.31413,0,0,1,269.32334,391.00391Zm0,50.04028a17.72622,17.72622,0,1,0-17.753-17.69946l0,.00671a17.71194,17.71194,0,0,0,17.73119,17.69275Z" style="fill:#ed1c24"/><path d="M241.59732,375.86524a9.05184,9.05184,0,1,1-9.05887-9.0448h.014A9.07163,9.07163,0,0,1,241.59732,375.86524Z" style="fill:#2d5879"/><path d="M232.55265,364.679a11.18179,11.18179,0,1,1-11.20854,11.175A11.18178,11.18178,0,0,1,232.55265,364.679Zm0,18.08093a6.9057,6.9057,0,1,1,0-.00012Z" style="fill:#ed1c24"/><path d="M276.81784,470.02906a9.07237,9.07237,0,1,1-9.09961-9.045h0a9.04812,9.04812,0,0,1,9.09946,8.99658Z" style="fill:#2d5879"/><path d="M267.71735,458.83057A11.18848,11.18848,0,1,1,256.52219,470.019,11.18847,11.18847,0,0,1,267.71735,458.83057Zm0,18.09424a6.85691,6.85691,0,0,0,6.95215-6.76025q.001-.07288.00049-.14551a6.9259,6.9259,0,1,0-6.95264,6.90576Z" style="fill:#ed1c24"/><path d="M332.17048,428.10706a9.04494,9.04494,0,1,1-9.045-9.045A9.04488,9.04488,0,0,1,332.17048,428.10706Z" style="fill:#2d5879"/><path d="M323.12433,416.92737a11.18848,11.18848,0,1,1-11.18845,11.18848A11.18849,11.18849,0,0,1,323.12433,416.92737Zm0,18.09424a6.90584,6.90584,0,1,0-6.89239-6.91919v.01343a6.91257,6.91257,0,0,0,6.89239,6.90588Z" style="fill:#ed1c24"/><polygon points="388.647 396.148 388.811 548.077 356.428 615.695 345.395 616.394 344.971 646.42 220.506 647.654 220.397 522.71 343.463 523.244 344.587 581.105 350.905 580.625 369.543 543.636 369.803 454.447 352.248 452.954 352.028 388.556 388.647 396.148" style="fill:#2d5879"/><path d="M350.065,386.15919l40.5314,8.40479-.02676,154.36328-32.87616,68.62964-10.37207.66919-.42828,30.11255-1.90042.02673L218.56037,649.61l-.12045-128.85474h1.96066l124.97354.54871,1.11752,57.70886,3.16516-.24084,17.94034-35.613.25427-86.91138-17.55225-1.51233Zm36.63687,11.59-32.71555-6.79871.20743,60.19824,17.56561,1.51233-.4751,91.84985-19.13815,37.98169-9.46872.72266-1.13089-58.03015-119.19862-.522.10707,121.01209,120.5972-1.19116.41489-29.92517,11.697-.74951,31.69171-66.16724Z" style="fill:#ed1c24"/><polygon points="689.132 666.923 690.146 721.795 665.314 764.732 333.075 764.252 313.697 714.039 263.223 691.769 262.634 663.551 357.921 662.797 359.1 636.252 391.484 635.868 392.073 663.825 416.275 700.17 494.432 699.526 494.542 665.908 523.499 665.908 523.774 685.547 582.497 685.547 582.497 666.169 637.371 665.908 639.453 733.197 651.87 732.663 666.328 710.393 665.314 667.991 689.132 666.923" style="fill:#2d5879"/><path d="M393.3935,633.91138l.62231,29.30945,23.29367,34.984,75.18085-.629.11377-33.63232H525.42l.27435,19.66016h54.85828V664.23792l58.71265-.29443,2.07446,67.21118,9.442-.40149,13.57733-20.93152-1.03723-43.68323,27.72357-1.24463,1.064,57.40112-.27435.46838L666.44019,766.674H665.316l-333.57947-.46838L312.17008,715.4961l-50.87674-22.44385-.65579-31.45081,95.41644-.73608,1.17773-26.55249Zm21.84158,68.20142-.58887-.86987-24.51157-36.8175-.55542-26.57935-28.61356.32117-1.17773,26.57935-95.16217.73608.522,25L315.2215,712.5785l19.19168,49.71912,329.77859.46838,23.99634-41.48828-.97028-52.31543-19.90771.89673.98364,41.08679-.33459.49524-14.996,23.113-15.39752.66919-2.08783-67.3717-51.03064.2677V687.5116H521.8534l-.27435-19.66016H496.48529l-.11377,33.60559Z" style="fill:#ed1c24"/><rect x="421.72983" y="402.46534" width="283.24515" height="267.12878" style="fill:#2d5879"/><path d="M419.19657,399.944h288.317V672.13416h-288.317Zm283.24478,5.059H424.26883V667.07532H702.44135Z" style="fill:#ed1c24"/><polygon points="764.617 771.104 493.733 772.173 494.008 796.526 537.478 816.713 707.921 816.713 707.921 789.619 784.16 788.386 783.831 691.495 765.206 691.549 764.617 771.104" style="fill:#2d5879"/><path d="M785.77265,689.53248,786.1139,790.309l-1.92053.04016L709.869,791.54029v27.11462l-173.21375-.18738-44.57986-20.67725-.31451-27.5697,1.96735-.01343,268.9581-1.04395.58887-79.56384ZM782.206,786.48133l-.31451-93.04089-14.74841.04016-.58887,79.56384-1.92719.01343-268.91791,1.04395.23422,21.17249,41.96341,19.47278H705.97455v-27.0343l1.91382-.04016Z" style="fill:#ed1c24"/><polygon points="689.393 778.217 688.858 806.914 638.645 806.914 627.777 797.595 627.298 777.682 689.393 778.217" style="fill:#2d5879"/><path d="M625.29981,775.72107l66.0802.57544-.60895,32.56165H637.92029l-12.07178-10.34534Zm62.10535,4.42993-58.1037-.49524.40149,17.037,9.66278,8.25757h47.5777Z" style="fill:#ed1c24"/><path d="M573.6034,789.08423a10.066,10.066,0,1,0,10.07282-10.0592A10.0659,10.0659,0,0,0,573.6034,789.08423Z" style="fill:#2d5879"/><path d="M583.67768,776.87208a12.21228,12.21228,0,1,1-12.219,12.219A12.21224,12.21224,0,0,1,583.67768,776.87208Zm0,20.142a7.92963,7.92963,0,1,0-7.92291-7.9364v.01343a7.92783,7.92783,0,0,0,7.92291,7.92285Z" style="fill:#ed1c24"/><path d="M538.21833,788.91944a9.881,9.881,0,1,0,9.86755-9.89441h-.01428A9.87564,9.87564,0,0,0,538.21833,788.91944Z" style="fill:#2d5879"/><path d="M548.07135,776.87208a12.05182,12.05182,0,1,1-11.998,12.10535l-.00012-.047A12.07307,12.07307,0,0,1,548.07135,776.87208Zm0,19.82068a7.76933,7.76933,0,1,0-7.70178-7.83618l-.00031.07385A7.76794,7.76794,0,0,0,548.07135,796.69275Z" style="fill:#ed1c24"/><path d="M498.98194,785.76771a5.28209,5.28209,0,1,0,0-.04333C498.98188,785.73878,498.98188,785.7533,498.98194,785.76771Z" style="fill:#2d5879"/><path d="M504.28778,778.33082a7.44111,7.44111,0,1,1-7.4545,7.42773h0A7.44233,7.44233,0,0,1,504.28778,778.33082Zm0,10.59961a3.15847,3.15847,0,1,0-.02393,0Z" style="fill:#ed1c24"/><path d="M665.46473,792.19507a8.79294,8.79294,0,1,0-.00012-.04224Z" style="fill:#2d5879"/><path d="M674.24933,781.48926a10.68,10.68,0,1,1-10.65979,10.70667A10.67992,10.67992,0,0,1,674.24933,781.48926Zm0,17.61243a6.93259,6.93259,0,1,0-6.91248-6.95264q-.00009.02344,0,.04688a6.91115,6.91115,0,0,0,6.91248,6.90588Z" style="fill:#ed1c24"/><path d="M760.27265,638.49878a56.80105,56.80105,0,1,0,14.34882-37.6875c-21.40662.42493-27.51886,0-46.56836.16455-.4245,17.87073.58948,25.47668.20575,37.194,11.032-.31519,17.88452-.09583,32.01373.329Z" style="fill:#2d5879"/><path d="M817.02271,579.61512a58.85988,58.85988,0,1,1-58.85986,60.96106c-12.848-.40149-19.4259-.56213-29.83813-.25427l-2.28857.06689.08032-2.27515c.174-5.43359.05353-9.93042-.09369-15.12317-.16058-5.86194-.34125-12.51343-.12042-22.06909l.05353-2.07446,2.0744-.01343c7.92291-.09363,13.63092-.04016,19.10468-.01343,7.50134.06689,14.6012.09363,26.519-.14722A59.0082,59.0082,0,0,1,817.02271,579.61512Zm0,113.43713A54.57721,54.57721,0,1,0,776.22364,602.233l-.62231.69592-.93011.01343c-12.54016.25427-19.82739.20081-27.563.174-4.97192-.02673-10.11108-.04016-16.95667-.01343-.15393,8.3512.01337,14.38708.16058,19.76721.12714,4.52356.24091,8.52515.14722,13.1023,9.42859-.24084,16.02655-.04016,28.31244.32117l3.647.10706v2.08777A54.64392,54.64392,0,0,0,817.02271,693.05225Zm-58.9-54.56384Z" style="fill:#ed1c24"/><rect x="781.52826" y="611.51441" width="65.68579" height="58.07971" style="fill:#2d5879"/><path d="M777.0467,607.0376h74.65222v67.05054H777.0467Zm65.68536,8.9668H786.01355v49.11682h56.71857Z" style="fill:#ed1c24"/><path d="M759.47779,411.30506l-38.81146,1.54871,1.54889,173.88306h46.56793c37.74225-30.94495,76.82764-20.72131,94.21863,2.083l.53448-35.714h30.52008v-61.876l-20.98169.53455-.21936,44.26575-27.94336.47949V556.2168H832.49555V497.69837l-29.01257,2.0968L760.54676,459.97Z" style="fill:#2d5879"/><path d="M761.38819,409.25879l1.09076,49.83948,41.70917,38.67786,30.253-2.16809v58.64575h8.52521V534.60706l27.95111-.48181.21411-44.27209,24.87292-.629v65.84595H865.457l-.58887,39.40051-3.41943-4.4834c-8.51178-11.16174-21.88171-18.54932-36.68372-20.27576-12.84131-1.53906-32.749.49524-54.74451,18.53589l-.542.44165H720.28131l-.01337-1.94055-1.56586-175.77661Zm41.39465,92.53235-44.17169-40.953-.01337-.82971-1.0238-46.681-34.93719,1.39185,1.51233,170.062h43.9375c22.83862-18.48242,43.65643-20.5166,57.12671-18.95081a58.52236,58.52236,0,0,1,35.91412,17.74622l.48846-32.41443h30.494V493.21241l-17.09723.44165-.21411,44.29883-27.93768.48181v19.72705H830.54657V499.81043Z" style="fill:#ed1c24"/><path d="M570.561,721.2605a24.88736,24.88736,0,1,0,24.88739-24.88733h-.00024A24.86928,24.86928,0,0,0,570.561,721.22449Z" style="fill:#2d5879"/><path d="M595.44831,690.36219a30.9021,30.9021,0,1,1-30.9021,30.9021v-.01343A30.92886,30.92886,0,0,1,595.44831,690.36219Zm0,49.786A18.88385,18.88385,0,1,0,576.57776,721.251,18.884,18.884,0,0,0,595.44831,740.1482Z" style="fill:#ed1c24"/><path d="M170.334,617.24317l65.64438,49.0896,1.754,32.8772L294.058,722.809,341.1059,853.2212c-32.10953-8.93506-89.92929-27.09326-140.73177-96.26062-21.95432-27.61426-30.46506-83.7207-30.04015-139.71729Z" style="fill:#2d5879"/><path d="M168.413,613.38135,237.87922,665.322l1.73314,32.56165,55.98915,23.46106.28775.81641,48.33389,133.94031-3.64026-1.01709c-26.53244-7.37427-88.67125-24.6521-141.783-96.96216-19.80064-24.9198-30.90211-76.29834-30.41362-140.88635Zm65.6653,53.975-61.81091-46.226c-.02008,61.89795,10.72675,110.82739,29.63069,134.62292,50.067,68.16125,108.231,86.71057,136.08839,94.56665L292.51,724.28895l-56.65833-23.75537Z" style="fill:#ed1c24"/><rect x="347.25934" y="713.22962" width="76.01898" height="35.75525" style="fill:#2d5879"/><path d="M345.40757,711.374h79.72452v39.48084H345.40757Zm76.0173,3.72058H349.11478v32.03967H421.4249Z" style="fill:#ed1c24"/><path d="M273.70685,680.20191a7.0127,7.0127,0,1,0,0-.00781Z" style="fill:#2d5879"/><path d="M280.726,670.36756a9.83674,9.83674,0,1,1-9.85013,9.82336h0a9.81426,9.81426,0,0,1,9.8049-9.82349Zm0,14.02576a4.17737,4.17737,0,1,0-.04572-.00012Z" style="fill:#ed1c24"/><path d="M368.46021,651.66883a7.01663,7.01663,0,1,0,7.01666-7.0166h0A7.0479,7.0479,0,0,0,368.46021,651.66883Z" style="fill:#2d5879"/><path d="M375.47992,641.83423a9.83674,9.83674,0,1,1-9.85016,9.82336A9.83677,9.83677,0,0,1,375.47992,641.83423Zm0,14.02576a4.189,4.189,0,1,0-4.189-4.20239A4.24936,4.24936,0,0,0,375.47992,655.86Z" style="fill:#ed1c24"/><path d="M504.06635,679.44825a4.79,4.79,0,1,0,4.82428-4.75574A4.78991,4.78991,0,0,0,504.06635,679.44825Z" style="fill:#2d5879"/><path d="M508.89164,672.74976a6.73186,6.73186,0,1,1-6.75858,6.70508v-.00012a6.70979,6.70979,0,0,1,6.71457-6.70508Zm0,9.58252a2.84915,2.84915,0,0,0,2.82394-2.874l-.00006-.00342a2.85742,2.85742,0,1,0-2.8909,2.87756C508.847,682.33265,508.8693,682.33265,508.89164,682.33228Z" style="fill:#ed1c24"/><path d="M672.05664,679.44825a4.76227,4.76227,0,1,0,4.7688-4.75574h-.01331A4.79049,4.79049,0,0,0,672.05664,679.44825Z" style="fill:#2d5879"/><path d="M676.81226,672.74976a6.73193,6.73193,0,1,1-6.69159,6.77209c-.00012-.02246-.00012-.0448-.00006-.06714A6.7127,6.7127,0,0,1,676.81226,672.74976Zm0,9.58252a2.856,2.856,0,0,0,2.83728-2.87476v-.00269a2.831,2.831,0,1,0-2.83728,2.87744Z" style="fill:#ed1c24"/><path d="M621.51429,679.44825a4.79684,4.79684,0,1,0,4.83771-4.75562l-.01386-.00012A4.81356,4.81356,0,0,0,621.51429,679.44825Z" style="fill:#2d5879"/><path d="M626.337,672.74976a6.73186,6.73186,0,1,1-6.75861,6.70508v-.00012a6.71267,6.71267,0,0,1,6.72021-6.70508Zm0,9.58252a2.856,2.856,0,0,0,2.83728-2.87476v-.00269a2.82724,2.82724,0,0,0-2.83075-2.82385H626.337a2.85093,2.85093,0,1,0-.08032,5.70129Q626.29682,682.33283,626.337,682.33228Z" style="fill:#ed1c24"/><path d="M591.15876,679.44825a4.79674,4.79674,0,1,0,4.83746-4.75562c-.02271-.00024-.04547-.00024-.06818-.00012A4.80188,4.80188,0,0,0,591.15876,679.44825Z" style="fill:#2d5879"/><path d="M595.93012,672.74976a6.73186,6.73186,0,1,1-6.705,6.75867c-.00006-.01794-.00006-.03577,0-.05371A6.74138,6.74138,0,0,1,595.93012,672.74976Zm0,9.58252a2.85093,2.85093,0,1,0,.08032-5.70129q-.0401-.00055-.08032,0a2.82732,2.82732,0,0,0-2.83728,2.81726v.00659a2.85613,2.85613,0,0,0,2.83453,2.87744Z" style="fill:#ed1c24"/><rect x="406.31201" y="718.14966" width="10.33319" height="24.57227" style="fill:#2d5879"/><path d="M553.15027-648.02423c23.61487,0,48.04614,2.35547,72.59784,8.68579l2.12793.54871L612.77979-585.5776l-2.05432-.5621c-44.71368-12.36621-86.6972-12.35281-128.37289-.01337l-2.18149.64239-12.70078-54.22925,2.26178-.37473C495.36777-644.34381,523.62665-648.02423,553.15027-648.02423Zm69.39258,12.29929c-52.8374-13.10226-105.21973-7.78909-149.85315-.52194l10.62637,45.34271c41.1069-11.73718,82.54837-11.73718,126.49252.06693ZM404.16706,716.01807h14.628v28.85449h-14.628Zm10.33194,4.28271h-6.03589V740.59H414.499Z" style="fill:#ed1c24"/><path d="M828.206,402.46583l-74.19635.10962-39.51007,19.06311-300.04712.47949L369.80338,403.11l-79.0614.10962c9.63391,11.40222,10.33319,27.88879-2.042,42.34692l538.97159.26062c-10.114-10.00452-15.9519-31.84937.53448-43.41589Z" style="fill:#2d5879"/><path d="M831.89161,395.34009v10.76025l-2.52277.04016A19.39022,19.39022,0,0,0,821.64,420.32679c-.77625,9.14087,3.76739,18.08093,8.62555,22.8855l6.36377,6.31689-8.96014-.01343-546.97-.281,5.20612-6.076c10.47916-12.24573,11.25537-26.64624,2.02087-37.567l-5.11243-6.06262,88.437.20081L415.2016,418.413l298.455-.455,40.344-19.07129,72.95923-.09363Zm-11.83752,46.80151a37.30463,37.30463,0,0,1-5.76154-22.44385,26.82447,26.82447,0,0,1,4.88495-13.53052l-64.327.08032-40.344,19.07129-300.80371.48181-.69592-.30786L369.056,406.79627l-71.33984.09363c5.86191,10.81372,5.2262,23.54126-1.78,34.984Z" style="fill:#ed1c24"/><path d="M443.3006,469.22059a17.96675,17.96675,0,1,0,18.00766-17.92578h-.01358A17.99659,17.99659,0,0,0,443.3006,469.22059Z" style="fill:#2d5879"/><path d="M461.29383,448.76636a20.52852,20.52852,0,1,1-.00317,0Zm0,35.90747a15.45265,15.45265,0,1,0-.01022,0Z" style="fill:#ed1c24"/><path d="M458.82776,457.87317h-51.7619c-5.94785.10962-6.05743,23.28381,0,23.28381h51.7619C468.9556,480.89661,468.84562,457.92786,458.82776,457.87317Z" style="fill:#2d5879"/><path d="M458.82459,455.73914h.01337c5.61432.02673,9.60254,5.58081,9.68954,13.50378.07361,6.63818-2.91086,13.87854-9.6427,14.06592H407.06458c-4.82468,0-6.598-6.91919-6.64481-13.3833-.05353-6.50427,1.64615-14.106,6.61136-14.18628Zm-.01337,4.28271H407.06458c-.60226.01343-2.409,3.41272-2.35547,9.86353.05353,6.38379,1.80676,9.14087,2.35547,9.14087h51.76c3.60013-.10706,5.4671-4.97864,5.41357-9.743-.05353-4.5907-1.9339-9.23474-5.42694-9.26147Z" style="fill:#ed1c24"/><path d="M443.3006,522.01026a17.96673,17.96673,0,1,0,17.99432-17.93909h-.00024A17.98487,17.98487,0,0,0,443.3006,522.01026Z" style="fill:#2d5879"/><path d="M461.29383,501.55018a20.48991,20.48991,0,1,1-20.53,20.44971h0a20.48362,20.48362,0,0,1,20.51743-20.44971Zm0,35.9209a15.45358,15.45358,0,1,0-.00839,0Z" style="fill:#ed1c24"/><path d="M458.82776,510.663h-51.7619c-5.94785.10974-6.05743,23.28406,0,23.28406h51.7619C468.9556,533.67286,468.84562,510.7179,458.82776,510.663Z" style="fill:#2d5879"/><path d="M458.82459,508.50953h.01337c5.63437.04016,9.61591,5.60767,9.68954,13.55725.06024,6.63818-2.93094,13.85168-9.64938,14.01233H407.06458c-4.79791,0-6.57791-6.8656-6.64481-13.303-.06693-6.5177,1.62607-14.173,6.60468-14.2666Zm-.01337,4.28271H407.06458c-.59555.01343-2.42239,3.45288-2.35547,9.94385.06693,6.33032,1.80676,9.06055,2.35547,9.06055h51.76c3.59341-.09363,5.4537-4.95178,5.41357-9.68958C464.19132,517.50318,462.31766,512.819,458.81122,512.79224Z" style="fill:#ed1c24"/><path d="M443.3006,575.33472a17.94708,17.94708,0,1,0,0-.09424Q443.30046,575.28773,443.3006,575.33472Z" style="fill:#2d5879"/><path d="M461.29383,554.8025a20.52649,20.52649,0,1,1-.007,0Zm0,35.9342A15.4377,15.4377,0,1,0,445.836,575.3191l0,.01343A15.42877,15.42877,0,0,0,461.2894,590.7367Z" style="fill:#ed1c24"/><path d="M458.82776,563.97352h-51.7619c-5.94785.10974-6.05743,23.29785,0,23.29785h51.7619C468.9556,586.94239,468.84562,564.02845,458.82776,563.97352Z" style="fill:#2d5879"/><path d="M458.82459,561.84217h.01337c5.60092.02673,9.58246,5.55408,9.68954,13.43689.087,6.66492-2.89081,13.9187-9.636,14.13281H407.06458c-4.81131,0-6.58459-6.89246-6.64481-13.34314-.06024-6.50427,1.63278-14.14624,6.60468-14.22644Zm-.01337,4.28271H407.06458c-.60226.01343-2.41568,3.43958-2.35547,9.90369.06021,6.35706,1.80676,9.10071,2.35547,9.10071h51.76c3.61349-.12048,5.47379-5.0188,5.41357-9.7832-.06024-4.56384-1.9473-9.19458-5.42694-9.22131Z" style="fill:#ed1c24"/><path d="M443.3006,631.22181a17.94708,17.94708,0,1,0,0-.09424Q443.30046,631.17481,443.3006,631.22181Z" style="fill:#2d5879"/><path d="M461.29383,610.7046a20.5217,20.5217,0,1,1-.0166,0Zm0,35.9209a15.431,15.431,0,1,0-15.45776-15.40417h0a15.42877,15.42877,0,0,0,15.45334,15.40417Z" style="fill:#ed1c24"/><path d="M458.82776,619.8744h-51.7619c-5.94785.09595-6.05743,23.28381,0,23.28381h51.7619C468.9556,642.82947,468.84562,619.91529,458.82776,619.8744Z" style="fill:#2d5879"/><path d="M458.82459,617.73084h.01337c5.60092.02673,9.58246,5.55408,9.68954,13.43689.087,6.66492-2.89081,13.9187-9.636,14.13281H407.06458c-4.81131,0-6.58459-6.89246-6.64481-13.34314-.06024-6.50427,1.63278-14.14624,6.60468-14.22644Zm-.01337,4.28271H407.06458c-.60226.01343-2.41568,3.43958-2.35547,9.90369.06021,6.35706,1.80676,9.10071,2.35547,9.10071h51.76c3.61349-.12048,5.47379-5.0188,5.41357-9.7832C464.17792,626.671,462.29087,622.04029,458.81122,622.01356Z" style="fill:#ed1c24"/><path d="M684.15784,469.22059A17.95984,17.95984,0,1,1,666.164,451.29481h.05432A17.98515,17.98515,0,0,1,684.15784,469.22059Z" style="fill:#2d5879"/><path d="M666.21936,448.76636A20.48318,20.48318,0,1,1,645.7027,469.2295,20.48315,20.48315,0,0,1,666.21936,448.76636Zm0,35.90747A15.42433,15.42433,0,1,0,650.775,469.2295,15.42435,15.42435,0,0,0,666.21936,484.67383Z" style="fill:#ed1c24"/><path d="M668.6305,457.87317h51.76215c6.00244.10962,6.05743,23.28381,0,23.28381H668.6305C658.51667,480.89661,658.61249,457.92786,668.6305,457.87317Z" style="fill:#2d5879"/><path d="M668.615,455.73914h51.78009c5.01209.08032,6.71844,7.6687,6.66492,14.13281-.04681,6.50427-1.82684,13.43689-6.66492,13.43689H668.62836c-6.78534-.18738-9.76984-7.42773-9.68951-14.07922C659.02576,461.32,663.00739,455.76587,668.615,455.73914Zm.07361,23.287h51.70648c.55542,0,2.32867-2.77039,2.37555-9.181.04681-6.35706-1.68628-9.81006-2.409-9.82336H668.64179c-3.48639.02673-5.3667,4.67078-5.41357,9.26123C663.17463,474.04749,665.03492,478.919,668.6886,479.02613Z" style="fill:#ed1c24"/><path d="M684.15784,522.01026a17.95982,17.95982,0,1,1-17.98053-17.93909h.041A17.97342,17.97342,0,0,1,684.15784,522.01026Z" style="fill:#2d5879"/><path d="M666.21936,501.55018a20.48989,20.48989,0,1,1-20.51666,20.463v-.01331A20.48359,20.48359,0,0,1,666.21936,501.55018Zm0,35.9209A15.431,15.431,0,1,0,650.775,521.99988,15.43107,15.43107,0,0,0,666.21936,537.47107Z" style="fill:#ed1c24"/><path d="M668.6305,510.663h51.76215c6.00244.10974,6.05743,23.28406,0,23.28406H668.6305C658.51667,533.67286,658.61249,510.7179,668.6305,510.663Z" style="fill:#2d5879"/><path d="M668.62165,508.50953h51.77344c5.0321.09363,6.73181,7.72217,6.66492,14.22644-.06689,6.45081-1.84692,13.34314-6.66492,13.34314H668.62836c-6.76526-.16064-9.75647-7.38757-9.68951-14.01233.06689-7.94971,4.04846-13.51721,9.67615-13.55725Zm.06024,23.287h51.7132c.54871,0,2.30859-2.74353,2.37555-9.10071.06689-6.39722-1.68628-9.89026-2.41571-9.90369H668.64179c-3.49976.02673-5.37341,4.69751-5.41357,9.31482C663.18134,526.84473,665.04163,531.70289,668.68189,531.79651Z" style="fill:#ed1c24"/><path d="M684.15784,575.33472a17.92789,17.92789,0,1,1,.00012-.06287Z" style="fill:#2d5879"/><path d="M666.21936,554.8025a20.49659,20.49659,0,1,1-20.51666,20.53A20.4966,20.4966,0,0,1,666.21936,554.8025Zm0,35.9342a15.43768,15.43768,0,1,0-15.4444-15.43091l.00006.02673A15.42876,15.42876,0,0,0,666.21936,590.7367Z" style="fill:#ed1c24"/><path d="M668.6305,563.97352h51.76215c6.00244.10974,6.05743,23.29785,0,23.29785H668.6305C658.51667,586.94239,658.61249,564.02845,668.6305,563.97352Z" style="fill:#2d5879"/><path d="M668.615,561.84217h51.78009c5.02545.08032,6.7251,7.69543,6.66492,14.18628-.05353,6.46411-1.84021,13.3833-6.66492,13.3833H668.62836c-6.80542-.21411-9.77649-7.48132-9.68951-14.13281C659.03919,567.39625,663.02076,561.8689,668.615,561.84217Zm.08032,23.287h51.69977c.55542,0,2.31531-2.757,2.37555-9.14087.05353-6.37048-1.68628-9.8501-2.41571-9.86353H668.64179c-3.473.02673-5.35333,4.644-5.41357,9.20776-.067,4.77783,1.79333,9.67615,5.467,9.79663Z" style="fill:#ed1c24"/><path d="M684.15784,631.22181a17.92789,17.92789,0,1,1,.00012-.06287Z" style="fill:#2d5879"/><path d="M666.21936,610.7046a20.515,20.515,0,1,1-.00323,0Zm0,35.9209a15.431,15.431,0,1,0-15.44434-15.4176v.01343A15.42876,15.42876,0,0,0,666.21936,646.62549Z" style="fill:#ed1c24"/><path d="M668.6305,619.8744h51.76215c6.00244.09595,6.05743,23.28381,0,23.28381H668.6305C658.51667,642.82947,658.61249,619.91529,668.6305,619.8744Z" style="fill:#2d5879"/><path d="M668.615,617.73084h51.78009c5.02545.08032,6.7251,7.69543,6.66492,14.18628-.05353,6.46411-1.84021,13.3833-6.66492,13.3833H668.62836c-6.80542-.21411-9.77649-7.48132-9.68951-14.13281C659.03919,623.28492,663.02076,617.75757,668.615,617.73084Zm.08032,23.287h51.69977c.55542,0,2.31531-2.757,2.37555-9.14087.05353-6.37048-1.68628-9.8501-2.41571-9.86353H668.64179c-3.473.02673-5.35333,4.644-5.41357,9.20776-.067,4.778,1.79333,9.67627,5.467,9.79663Z" style="fill:#ed1c24"/><path d="M617.88239,522.49c.53473-27.35425-1.71283-54.59875-45.348-55.62671H500.05094V669.22437H617.49884l-.15057-42.073-17.13068-.38379-.21936-54.85913,17.61035.36987Z" style="fill:#2d5879"/><path d="M495.95664,462.77869h76.57944c50.54883,1.17773,49.86627,37.82129,49.4447,59.74316l-.29443,53.92139-17.57233-.36133.18738,46.681,17.13068.36133.174,50.1875H495.95664ZM613.53589,568.09217l.25427-45.69067c.55542-28.58679-2.14136-50.52209-41.34778-51.43213H504.14725v194.152H613.38868l-.12042-33.96692-17.13068-.36133-.25427-63.06226Zm4.34961-45.61035Z" style="fill:#ed1c24"/><path d="M588.2262,647.0094a9.04492,9.04492,0,1,0,9.0448-9.045h-.00018a9.03619,9.03619,0,0,0-9.04462,9.02783Z" style="fill:#2d5879"/><path d="M597.26844,635.81177A11.19513,11.19513,0,1,1,586.08,647.01356v-.01331A11.20641,11.20641,0,0,1,597.26844,635.81177Zm0,18.10767a6.9125,6.9125,0,1,0-6.89239-6.93262v.01343A6.91544,6.91544,0,0,0,597.26844,653.91944Z" style="fill:#ed1c24"/><path d="M567.9845,500.53528a15.30792,15.30792,0,1,0,15.308-15.30786h-.00018A15.3209,15.3209,0,0,0,567.9845,500.53528Z" style="fill:#2d5879"/><path d="M583.28955,481.609A18.96419,18.96419,0,1,1,564.35212,500.6v-.05359A18.96425,18.96425,0,0,1,583.28955,481.609Zm0,30.67456A11.71046,11.71046,0,1,0,571.61933,500.533l-.00006.01343A11.72627,11.72627,0,0,0,583.28955,512.28357Z" style="fill:#ed1c24"/><rect x="502.24371" y="500.53528" width="44.64929" height="166.86621" style="fill:#2d5879"/><path d="M499.71067,498.017h49.71909V669.93921H499.71067Zm44.64682,5.059H504.783V664.88038h39.57449Z" style="fill:#ed1c24"/><polygon points="302.514 534.701 234.416 534.907 234.416 636.677 327.347 636.677 327.347 567.565 302.994 566.66 302.514 534.701" style="fill:#2d5879"/><path d="M305.01,532.15784l.48181,32.0531,24.39111.91v74.07678H231.87677V532.38538Zm19.80063,37.86145-24.31082-.91-.48181-31.86572-63.06894.20081v96.69458h87.86154Z" style="fill:#ed1c24"/><path d="M333.12989,546.89783a9.062,9.062,0,1,1,.00006-.01978Z" style="fill:#2d5879"/><path d="M324.08793,535.66431a11.21523,11.21523,0,1,1-11.19516,11.24194A11.21527,11.21527,0,0,1,324.08793,535.66431Zm0,18.14783a6.93264,6.93264,0,1,0-6.89908-6.96606c-.00009.02014-.00012.04016,0,.0603A6.91125,6.91125,0,0,0,324.08793,553.81214Z" style="fill:#ed1c24"/><rect x="221.1913" y="494.34095" width="148.07732" height="21.57104" style="fill:#2d5879"/><path d="M218.65407,491.80713H371.80619v26.63281H218.65407Zm148.07982,5.059H223.72635v16.515H366.73392Z" style="fill:#ed1c24"/><polygon points="771.949 672.651 731.534 707.817 690.681 707.817 690.146 689.192 730.506 688.178 762.575 657.124 771.949 672.651" style="fill:#2d5879"/><path d="M762.97413,654.02649l11.48962,19.00427-42.19763,36.75061H688.79035l-.64911-22.484,41.55524-1.05725Zm6.45746,18.22815-7.26044-12.01819-30.85529,29.85815-.76288.02673-38.39679.97705.42157,14.77515h38.22949Z" style="fill:#ed1c24"/><path d="M879.76258,440.96168a9.07249,9.07249,0,1,0,9.1001-9.0448h-.00024A9.09482,9.09482,0,0,0,879.76258,440.96168Z" style="fill:#2d5879"/><path d="M888.86444,429.7754a11.19594,11.19594,0,1,1-.04547-.00012Zm0,18.1344a6.928,6.928,0,1,0-.04932,0Z" style="fill:#ed1c24"/><path d="M237.47232,443.09974a9.04493,9.04493,0,1,1-9.04483-9.045A9.04489,9.04489,0,0,1,237.47232,443.09974Z" style="fill:#2d5879"/><path d="M228.43059,431.90333a11.222,11.222,0,1,1-11.19516,11.24878c0-.02014,0-.04016,0-.0603A11.20064,11.20064,0,0,1,228.43059,431.90333Zm0,18.16113a6.93939,6.93939,0,1,0-6.89908-6.97949l0,.00684a6.94292,6.94292,0,0,0,6.89911,6.97278Z" style="fill:#ed1c24"/><path d="M235.43033,154.60572l-74.51147-12.78625-35.3851,39.98987-46.36257,7.59229L0,177.41l.53491,30.5199C36.34452,259.692,89.34,277.4668,128.8501,304.71131,166.81191,258.67786,224.46668,244.809,235.43033,154.60572Z"/><path d="M7.27719,194.75989c0,4.54993-.05479,8.25024-.10958,13.97864,11.99146,18.08984,35.60467,36.399,57.60059,51.0083,18.74753,12.41614,36.30312,22.16028,44.70408,26.81982l-1.06941-18.364c-41.33274-16.54138-73.2365-41.64807-101.12569-73.44275Z" style="fill:#2d5879"/><path d="M832.33118,27.044l12.79968,68.04291c-193.57623,35.16577-384.05554,34.57642-575.69977,1.439l11.99167-67.87854C487.74457,56.7555,660.76423,63.49793,832.33124,27.04407Z" style="fill:#2d5879"/><path d="M629.28455,62.5796a1067.15578,1067.15578,0,0,1-155.9436.329l11.71753,49.73376c.918,4.276,128.37018,4.33081,129.54877,0Z" style="fill:#2d5879"/><path d="M878.21381,154.60572l74.51166-12.78625,35.38489,39.98987,46.36237,7.59229,79.17114-11.99146-.47974,30.5199c-35.81006,51.76208-88.86011,69.53687-128.37036,96.78137-37.94757-46.03345-95.60254-59.90234-106.58-150.10559Z"/><path d="M1106.42157,194.75989c-.05481,4.54993,0,8.25024.05505,13.97864-11.99146,18.08984-35.60449,36.399-57.60022,51.0083-18.6792,12.41614-36.30335,22.16028-44.64948,26.81982l1.01422-18.364c41.33276-16.54138,73.29175-41.64807,101.18054-73.44275Z" style="fill:#2d5879"/></g></svg>