<svg xmlns="http://www.w3.org/2000/svg" xmlns:xlink="http://www.w3.org/1999/xlink" viewBox="0 0 997.02521 1000.49597"><defs><linearGradient id="a" x1="172.10937" y1="500.24798" x2="827.66004" y2="500.24798" gradientUnits="userSpaceOnUse"><stop offset="0" stop-color="#ee2e32"/><stop offset="1" stop-color="#982126"/></linearGradient><linearGradient id="b" x1="169.36517" y1="500.24844" x2="827.66004" y2="500.24844" gradientUnits="userSpaceOnUse"><stop offset="0" stop-color="#982126"/><stop offset="1" stop-color="#ee2e32"/></linearGradient><linearGradient id="c" x1="215.36989" y1="494.21019" x2="783.46256" y2="494.21019" gradientUnits="userSpaceOnUse"><stop offset="0" stop-color="#1f2b56"/><stop offset="1" stop-color="#274593"/></linearGradient></defs><title>frame8-burst</title><g style="opacity:0.4"><path d="M881.19781,625.52815a10.72616,10.72616,0,0,1-2.47437-.33437c-1.20375-.33437-131.309-38.58684-131.309-38.58684l5.21625-17.655S881.33156,606.73629,883.70562,607.405a9.24053,9.24053,0,0,1-2.50781,18.12311Z" style="fill:#fff"/><path d="M938.44276,727.57932a8.89465,8.89465,0,0,1-4.24656-1.07c-3.51093-1.73875-92.38774-44.87309-92.38774-44.87309l8.025-16.585c27.55248,13.375,91.78586,44.53871,92.92274,45.14059a9.22361,9.22361,0,0,1-4.31343,17.38749Z" style="fill:#fff"/><path d="M691.5739,569.8882a8.443,8.443,0,0,1-2.84219-.46812c-2.14-.66875-40.125-11.83687-40.125-11.83687l5.21625-17.655s39.45622,11.56937,40.66,11.97062a9.22758,9.22758,0,0,1-2.90906,17.98936Z" style="fill:#fff"/><path d="M814.3563,667.25812a9.004,9.004,0,0,1-3.91218-.86937c-1.17031-.535-19.02592-9.22874-19.02592-9.22874l8.025-16.585s17.72186,8.56,18.8253,9.095a9.225,9.225,0,0,1-3.91218,17.58811Z" style="fill:#fff"/><path d="M624.33114,550.16009a8.63356,8.63356,0,0,1-2.87562-.46812c-1.37094-.46812-11.90374-3.54437-11.90374-3.54437l5.14937-17.655s11.3353,3.27687,12.57249,3.67812a9.23784,9.23784,0,0,1-2.9425,17.98936Z" style="fill:#fff"/><path d="M575.91368,535.91572a9.44034,9.44034,0,0,1-2.675-.40125l-2.20687-.66875a9.2239,9.2239,0,0,1,5.35-17.655l2.20687.66875a9.2268,9.2268,0,0,1-2.675,18.05624Z" style="fill:#fff"/><path d="M783.69414,792.71551a9.39716,9.39716,0,0,1-6.48687-2.675c-1.80562-1.73875-98.139-95.0293-98.139-95.0293l12.84-13.24124s97.43679,94.29367,98.30617,95.163a9.24539,9.24539,0,0,1-6.52031,15.78249Z" style="fill:#fff"/><path d="M787.27195,909.47917a9.29612,9.29612,0,0,1-7.42312-3.745c-.83594-1.13687-61.224-82.85806-61.224-82.85806l14.84624-10.96749s60.48839,81.85493,61.224,82.85806a9.24908,9.24908,0,0,1-7.42312,14.71249Z" style="fill:#fff"/><path d="M641.75206,655.22063a9.09209,9.09209,0,0,1-6.38656-2.60812l-30.26091-29.29123,12.84-13.24124,30.194,29.29123a9.19616,9.19616,0,0,1-6.38656,15.84936Z" style="fill:#fff"/><path d="M705.24983,798.53363a9.29612,9.29612,0,0,1-7.42312-3.745l-12.50561-16.91936,14.84624-10.96749,12.50561,16.91936a9.24908,9.24908,0,0,1-7.42312,14.71249Z" style="fill:#fff"/><path d="M591.42867,606.46879a9.09209,9.09209,0,0,1-6.38656-2.60812l-9.16187-8.82749,12.77311-13.24124,9.16187,8.82749a9.19616,9.19616,0,0,1-6.38656,15.84936Z" style="fill:#fff"/><path d="M554.04557,571.02507a7.622,7.622,0,0,1-5.35-2.27375l-1.63844-1.605a9.284,9.284,0,0,1-.13375-13.10749,9.39047,9.39047,0,0,1,13.04061-.13375c3.64468,3.61125,4.51406,10.23187.96969,13.91A10.03561,10.03561,0,0,1,554.04557,571.02507Z" style="fill:#fff"/><path d="M619.78365,895.5023a9.29011,9.29011,0,0,1-8.76062-6.28624c-.40125-1.20375-42.73309-129.938-42.73309-129.938l17.52124-5.75125s42.23153,128.333,42.73309,129.80427a9.24194,9.24194,0,0,1-5.85156,11.70312A8.82639,8.82639,0,0,1,619.78365,895.5023Z" style="fill:#fff"/><path d="M568.28994,1000.496a9.21017,9.21017,0,0,1-9.06156-7.69062c-.20062-1.20375-15.58186-101.91742-15.58186-101.91742l18.25686-2.80875S577.084,987.656,577.41837,989.796a9.22466,9.22466,0,0,1-7.62374,10.56624A11.43171,11.43171,0,0,1,568.28994,1000.496Z" style="fill:#fff"/><path d="M557.9912,707.78433a9.25885,9.25885,0,0,1-8.82749-6.48687c-.535-1.80562-13.07405-39.85747-13.07405-39.85747l17.52124-5.75125s12.84,38.98809,13.2078,40.19184a9.15644,9.15644,0,0,1-6.11906,11.43562A7.70286,7.70286,0,0,1,557.9912,707.78433Z" style="fill:#fff"/><path d="M547.49183,864.138a9.22593,9.22593,0,0,1-9.095-7.75749l-3.21-20.865,18.25686-2.80875,3.14312,20.73123a9.1885,9.1885,0,0,1-7.65718,10.56624A10.95484,10.95484,0,0,1,547.49183,864.138Z" style="fill:#fff"/><path d="M536.08965,641.24376a9.23671,9.23671,0,0,1-8.82749-6.55374c-.36781-1.20375-3.91218-11.90374-3.91218-11.90374l17.52124-5.75125s3.67812,11.03437,4.04593,12.305a9.22587,9.22587,0,0,1-6.11906,11.50249A9.49209,9.49209,0,0,1,536.08965,641.24376Z" style="fill:#fff"/><path d="M520.30716,593.29443a9.27265,9.27265,0,0,1-8.79406-6.42l-.70219-2.20687a9.23177,9.23177,0,0,1,17.58811-5.6175l.70219,2.20687a9.19728,9.19728,0,0,1-5.98531,11.56937A8.2546,8.2546,0,0,1,520.30716,593.29443Z" style="fill:#fff"/><path d="M427.05005,910.14792a14.07867,14.07867,0,0,1-1.67187-.13375,9.28579,9.28579,0,0,1-7.45656-10.7c.46812-2.675,22.33623-134.81989,22.33623-134.81989l18.19,3.07625S436.31223,901.32042,436.07817,902.591A9.2248,9.2248,0,0,1,427.05005,910.14792Z" style="fill:#fff"/><path d="M332.68951,979.49723a9.721,9.721,0,0,1-3.04281-.535,9.23449,9.23449,0,0,1-5.65093-11.77c.60187-1.73875,33.404-97.303,33.404-97.303l17.45436,6.01874s-33.06966,96.29992-33.47091,97.43679A9.17718,9.17718,0,0,1,332.68951,979.49723Z" style="fill:#fff"/><path d="M459.31721,715.14058a11.43154,11.43154,0,0,1-1.50469-.13375,9.21762,9.21762,0,0,1-7.59031-10.63312l6.85468-41.46247,18.19,2.9425L468.41221,707.45A9.2188,9.2188,0,0,1,459.31721,715.14058Z" style="fill:#fff"/><path d="M377.46228,849.02422a8.82639,8.82639,0,0,1-2.90906-.46812,9.24194,9.24194,0,0,1-5.85156-11.70312c.40125-1.20375,6.88812-19.92873,6.88812-19.92873l17.45436,6.01875s-6.42,18.59123-6.82124,19.795A9.29011,9.29011,0,0,1,377.46228,849.02422Z" style="fill:#fff"/><path d="M470.75283,646.05876a10.95484,10.95484,0,0,1-1.43781-.13375,9.1885,9.1885,0,0,1-7.65718-10.56624L463.731,622.7194l18.19,3.07625-2.07312,12.50561A9.22593,9.22593,0,0,1,470.75283,646.05876Z" style="fill:#fff"/><path d="M478.91157,595.1a7.369,7.369,0,0,1-1.20375-.13375c-5.01562-.8025-8.62687-4.41375-7.79093-9.42937l.36781-2.27375c.8025-5.0825,5.38343-8.22562,10.56624-7.62374a9.20012,9.20012,0,0,1,7.62374,10.56624C487.73907,590.82005,483.49251,595.1,478.91157,595.1Z" style="fill:#fff"/><path d="M249.22957,833.50923a8.89293,8.89293,0,0,1-5.6175-1.93937,9.204,9.204,0,0,1-1.70531-12.90686c1.03656-1.3375,82.624-108.80554,82.624-108.80554l14.71249,11.10124S257.32144,828.89486,256.55238,829.898A9.26194,9.26194,0,0,1,249.22957,833.50923Z" style="fill:#fff"/><path d="M133.66967,851.23109a9.04973,9.04973,0,0,1-6.65406-2.87562,9.15452,9.15452,0,0,1,.2675-12.97374c.90281-.86937,74.89994-70.82057,74.89994-70.82057l12.63936,13.375S141.4606,847.35234,140.05623,848.623A9.09209,9.09209,0,0,1,133.66967,851.23109Z" style="fill:#fff"/><path d="M368.7351,676.08561a9.24908,9.24908,0,0,1-7.42312-14.71249c.73562-1.00312,25.47935-33.57122,25.47935-33.57122l14.71249,11.10124s-24.309,32.0331-25.3456,33.43747A9.3436,9.3436,0,0,1,368.7351,676.08561Z" style="fill:#fff"/><path d="M233.94865,756.46929a9.19616,9.19616,0,0,1-6.38656-15.84936l15.3478-14.51186,12.63936,13.375-15.214,14.37811A9.09209,9.09209,0,0,1,233.94865,756.46929Z" style="fill:#fff"/><path d="M411.06694,620.3119a9.24908,9.24908,0,0,1-7.42312-14.71249l7.75749-10.23187,14.71249,11.10124-7.62374,10.09812A9.29612,9.29612,0,0,1,411.06694,620.3119Z" style="fill:#fff"/><path d="M441.66223,578.84944a7.8382,7.8382,0,0,1-4.94875-1.605c-4.07937-3.07625-5.55062-7.95812-2.47437-11.97062L435.61,563.4682a9.21543,9.21543,0,1,1,14.71249,11.10124A11.11,11.11,0,0,1,441.66223,578.84944Z" style="fill:#fff"/><path d="M127.58405,683.375a9.225,9.225,0,0,1-3.91218-17.58811l123.71865-58.1812,7.82437,16.71874L131.49623,682.5056A9.004,9.004,0,0,1,127.58405,683.375Z" style="fill:#fff"/><path d="M16.906,645.05563a9.23013,9.23013,0,0,1-2.47437-18.12311l99.17554-27.7531,4.94875,17.78874-99.17554,27.7531A10.72616,10.72616,0,0,1,16.906,645.05563Z" style="fill:#fff"/><path d="M306.44109,599.2463a9.225,9.225,0,0,1-3.91218-17.58811l38.01841-17.92249,7.89124,16.71874-38.08528,17.92249A8.90047,8.90047,0,0,1,306.44109,599.2463Z" style="fill:#fff"/><path d="M149.75309,607.87316a9.23013,9.23013,0,0,1-2.47437-18.12311l20.22967-5.68437,5.01562,17.78874-20.29655,5.68437A10.72616,10.72616,0,0,1,149.75309,607.87316Z" style="fill:#fff"/><path d="M369.8051,569.42007a9.225,9.225,0,0,1-3.91218-17.58811l11.53593-5.41687,7.82437,16.71874-11.53593,5.41687A8.90047,8.90047,0,0,1,369.8051,569.42007Z" style="fill:#fff"/><path d="M416.95194,547.08384c-3.57781,0-7.18906-1.67187-8.69374-4.815-2.24031-4.61437-1.3375-9.63,3.24343-11.83687l2.07312-1.00312c4.61437-2.54125,10.06468-.33437,12.305,4.28a9.19745,9.19745,0,0,1-4.28,12.305A11.13067,11.13067,0,0,1,416.95194,547.08384Z" style="fill:#fff"/><path d="M225.92366,499.6695s-135.4552-5.95187-136.69239-6.01875a9.20443,9.20443,0,0,1-8.69374-9.69687c.23406-5.0825,5.38343-8.49312,9.66343-8.76062,2.17344.13375,136.5252,6.01875,136.5252,6.01875Z" style="fill:#fff"/><path d="M108.02313,429.71831S8.4129,408.6527,7.20915,408.3852A9.24485,9.24485,0,0,1,11.18821,390.329c1.93937.46812,100.64679,21.33311,100.64679,21.33311Z" style="fill:#fff"/><path d="M328.81076,504.15012s-40.894-1.73875-42.13122-1.80562a9.23639,9.23639,0,0,1,.50156-18.45748h.50156c1.50469.06687,41.93059,1.80562,41.93059,1.80562Z" style="fill:#fff"/><path d="M162.82715,441.35455s-19.46061-4.07937-20.66436-4.34687a9.26543,9.26543,0,0,1-6.98843-11.03437,9.07585,9.07585,0,0,1,11.00093-7.02187l20.46373,4.34687Z" style="fill:#fff"/><path d="M369.5376,505.95575l-12.87343-.535a9.20893,9.20893,0,0,1-8.72718-9.69687c.2675-5.14937,4.5475-8.15874,9.69687-8.76062l12.63936.535Z" style="fill:#fff"/><path d="M409.89663,507.6945h-.2675c-5.0825-.13375-10.23187-4.41375-10.09812-9.56312.16719-4.94875,3.17656-8.96124,8.09187-8.96124h.2675l2.27375.06687a9.23065,9.23065,0,0,1-.2675,18.45748Z" style="fill:#fff"/><path d="M257.65582,375.61648C222.44616,355.08587,140.424,307.20341,139.354,306.53466a9.22265,9.22265,0,0,1-2.9425-12.70624,9.36639,9.36639,0,0,1,12.60593-3.00937h0c2.675,1.605,117.934,68.88119,117.934,68.88119Z" style="fill:#fff"/><path d="M185.99931,258.85283S107.78907,193.7835,106.81938,192.981a9.21952,9.21952,0,0,1-1.23719-12.97374,9.08261,9.08261,0,0,1,13.00718-1.20375c.96969.8025,79.17993,65.87182,79.17993,65.87182Z" style="fill:#fff"/><path d="M346.59949,427.57831s-34.37372-20.06248-36.17935-21.06561a9.2335,9.2335,0,0,1,8.89437-16.18374c1.10344.60187,36.58059,21.33311,36.58059,21.33311Z" style="fill:#fff"/><path d="M229.03334,294.6978,212.883,281.18906a9.21952,9.21952,0,0,1-1.23719-12.97374,9.08261,9.08261,0,0,1,13.00718-1.20375l16.21717,13.50874Z" style="fill:#fff"/><path d="M381.74228,448.10892,370.8751,441.7558a9.20747,9.20747,0,1,1,9.02812-16.05l11.13468,6.48687Z" style="fill:#fff"/><path d="M420.96443,469.57578a8.93193,8.93193,0,0,1-4.64781-1.27062c-4.41375-2.60812-6.85468-8.82749-4.28-13.17436,2.57469-4.41375,7.35624-6.55374,11.63624-3.87875l1.93937,1.13687a9.2191,9.2191,0,0,1-4.64781,17.18686Z" style="fill:#fff"/><path d="M343.55668,280.58718s-72.05775-114.69053-72.7265-115.76053a9.22265,9.22265,0,0,1,2.9425-12.70624,9.12009,9.12009,0,0,1,12.70624,2.9425c.70219,1.13687,72.7265,115.76053,72.7265,115.76053Z" style="fill:#fff"/><path d="M334.22763,143.8948S295.64079,51.273,294.6711,48.99925A9.223,9.223,0,0,1,311.557,41.57613c.50156,1.13687,39.72372,95.22992,39.72372,95.22992Z" style="fill:#fff"/><path d="M398.32726,367.79211s-21.16592-33.705-22.23592-35.37685a9.237,9.237,0,0,1,15.38124-10.23187c.66875,1.07,22.50342,35.845,22.50342,35.845Z" style="fill:#fff"/><path d="M355.72792,195.58913l-8.05843-19.39373a9.27728,9.27728,0,0,1,5.01562-12.10437,9.382,9.382,0,0,1,12.03749,5.01562l8.05843,19.39373Z" style="fill:#fff"/><path d="M419.96131,402.29958l-6.78781-10.83374a9.22244,9.22244,0,0,1,15.64874-9.76374L435.61,392.53584Z" style="fill:#fff"/><path d="M449.08535,440.55205a9.18137,9.18137,0,0,1-7.82437-4.34687c-2.70844-4.34687-1.97281-11.03437,2.37406-13.70936,4.31343-2.47437,9.39593-2.34062,12.07093,2.00625l1.20375,1.93937a9.25407,9.25407,0,0,1-7.82437,14.11061Z" style="fill:#fff"/><path d="M463.69752,236.38284S453.49909,101.563,453.36534,100.09171a9.21231,9.21231,0,0,1,8.45968-9.89749c5.58406-1.40437,9.56312,3.41062,9.93093,8.42624.10031,1.27062,10.33218,136.42489,10.33218,136.42489Z" style="fill:#fff"/><path d="M537.32684,112.79795l-18.39061-1.605S527.864,10.21178,527.99778,8.60678c.43469-4.94875,4.38031-9.76374,9.96437-8.35937a9.17926,9.17926,0,0,1,8.42624,9.89749C546.28808,11.34865,537.32684,112.79795,537.32684,112.79795Z" style="fill:#fff"/><path d="M471.48845,339.10276s-3.10968-40.92747-3.17656-42.19809a9.14,9.14,0,0,1,8.66031-9.63c6.15249-.8025,9.42937,3.54437,9.7303,8.62687.13375,1.93937,3.17656,41.73,3.17656,41.73Z" style="fill:#fff"/><path d="M532.37809,168.57165l-18.39061-1.605s1.77219-19.92873,1.90594-21.13248c.56844-5.0825,5.04906-8.29249,10.165-8.15874a9.21415,9.21415,0,0,1,8.15874,10.165C534.0834,149.31167,532.37809,168.57165,532.37809,168.57165Z" style="fill:#fff"/><path d="M474.5647,379.69585l-.96969-12.70624a9.15051,9.15051,0,0,1,8.45968-9.89749,2.86823,2.86823,0,0,1,.73562-.06687,9.22077,9.22077,0,0,1,9.1953,8.49312l.96969,12.84Z" style="fill:#fff"/><path d="M486.76938,428.11331a9.22821,9.22821,0,0,1-9.1953-8.56c-.40125-5.0825,3.34375-10.56624,8.42624-10.96749,5.04906-.2675,9.39593,2.27375,9.79718,7.42312l.16719,2.20687a9.21557,9.21557,0,0,1-8.49312,9.89749Z" style="fill:#fff"/><path d="M607.71272,260.19033l-16.91936-7.35624s53.66714-124.45427,54.16871-125.59115a9.22291,9.22291,0,0,1,16.88592,7.42312C661.012,136.53855,607.71272,260.19033,607.71272,260.19033Z" style="fill:#fff"/><path d="M713.442,178.001l-15.515-10.03124s54.60339-84.52993,55.80714-86.4693a9.18449,9.18449,0,0,1,12.70624-2.87562,9.28694,9.28694,0,0,1,2.90906,12.70624C768.68071,92.40109,713.442,178.001,713.442,178.001Z" style="fill:#fff"/><path d="M566.88556,354.7515l-16.91936-7.35624s16.01655-37.04872,16.61842-38.52a9.33086,9.33086,0,0,1,12.07093-4.94875,9.21043,9.21043,0,0,1,4.98218,12.03749C583.13618,317.16778,566.88556,354.7515,566.88556,354.7515Z" style="fill:#fff"/><path d="M683.04734,225.081l-15.515-10.03124s10.66655-16.51811,11.3353-17.58811a9.22244,9.22244,0,0,1,15.64874,9.76374C693.84765,208.29537,683.04734,225.081,683.04734,225.081Z" style="fill:#fff"/><path d="M550.7687,392.13459l-16.91936-7.35624s4.51406-10.43249,4.98218-11.56937a9.3943,9.3943,0,0,1,12.03749-5.01562,9.27728,9.27728,0,0,1,5.01562,12.10437C555.41651,381.4346,550.7687,392.13459,550.7687,392.13459Z" style="fill:#fff"/><path d="M526.45966,434.46643a9.64431,9.64431,0,0,1-3.57781-.73562,9.22655,9.22655,0,0,1-4.91531-12.10437l.90281-2.14a9.34563,9.34563,0,0,1,12.07093-4.88187,9.22655,9.22655,0,0,1,4.91531,12.10437l-.90281,2.14A9.26841,9.26841,0,0,1,526.45966,434.46643Z" style="fill:#fff"/><path d="M707.12232,341.109l-11.63624-14.31124s104.45866-84.73056,106.164-86.06805a9.20258,9.20258,0,1,1,11.73655,14.17749C812.41692,255.7097,707.12232,341.109,707.12232,341.109Z" style="fill:#fff"/><path d="M838.8994,317.23465l-9.095-16.05s88.6093-50.29,89.71274-50.89183a9.079,9.079,0,0,1,12.47218,3.67812,9.20493,9.20493,0,0,1-3.61125,12.50561C926.33839,267.61344,838.8994,317.23465,838.8994,317.23465Z" style="fill:#fff"/><path d="M627.10645,405.97771l-11.63624-14.31124s31.4981-25.6131,32.60154-26.48248a9.21322,9.21322,0,1,1,11.77,14.17749C658.87205,380.164,627.10645,405.97771,627.10645,405.97771Z" style="fill:#fff"/><path d="M790.181,344.854l-9.095-16.05s17.32061-9.83062,18.424-10.43249a9.09361,9.09361,0,0,1,12.50561,3.67812,9.19382,9.19382,0,0,1-3.67812,12.50561C807.1338,335.224,790.181,344.854,790.181,344.854Z" style="fill:#fff"/><path d="M595.44117,431.59081,583.8718,417.27957l9.83062-7.95812a9.21326,9.21326,0,1,1,11.77,14.17749Z" style="fill:#fff"/><path d="M558.55963,458.87579a9.2153,9.2153,0,0,1-5.71781-16.45124c3.91218-3.14312,10.63312-3.34375,13.84311.8025,3.14312,4.0125,3.37718,9.095-.63531,12.23811l-1.77219,1.40437A9.17118,9.17118,0,0,1,558.55963,458.87579Z" style="fill:#fff"/><path d="M755.77385,459.00954a9.21557,9.21557,0,0,1-1.80562-18.25686c40.02465-7.95812,133.18145-26.48248,134.45208-26.6831,5.04906-.535,9.7303,2.54125,10.56624,7.62374A9.22845,9.22845,0,0,1,891.53,432.25956h0c-3.24343.60187-133.95051,26.54935-133.95051,26.54935A8.30086,8.30086,0,0,1,755.77385,459.00954Z" style="fill:#fff"/><path d="M884.87593,499.1345A9.23117,9.23117,0,0,1,884.575,480.677c30.62872-.93625,101.98429-3.21,103.22148-3.21a9.22923,9.22923,0,0,1,.13375,18.45748h0c-2.87562.06687-102.75335,3.21-102.75335,3.21Z" style="fill:#fff"/><path d="M656.5983,478.93827,652.98706,460.882l41.12809-8.22562a9.08154,9.08154,0,0,1,10.93405,7.08874,9.20106,9.20106,0,0,1-7.05531,10.96749C696.75671,470.98015,656.5983,478.93827,656.5983,478.93827Z" style="fill:#fff"/><path d="M829.13566,500.87325l-.535-18.45748s20.06248-.60187,21.29967-.60187a9.22877,9.22877,0,0,1,.03344,18.45748h0C848.32877,500.27138,829.13566,500.87325,829.13566,500.87325Z" style="fill:#fff"/><path d="M616.60709,486.82951l-3.54437-18.05624s11.03437-2.20687,12.27155-2.47437a9.24841,9.24841,0,0,1,4.0125,18.05624C628.10958,484.62264,616.60709,486.82951,616.60709,486.82951Z" style="fill:#fff"/><path d="M575.57931,494.85451a9.23706,9.23706,0,0,1-1.63844-18.32373c4.94875-.40125,10.90062,2.20687,11.80343,7.22249.93625,5.01562-1.30406,9.63-6.31968,10.56624l-2.20687.40125A13.52694,13.52694,0,0,1,575.57931,494.85451Z" style="fill:#fff"/></g><polygon points="498.758 252.601 172.109 328.349 172.109 664.378 499.943 747.895 827.66 665.023 827.66 328.349 498.758 252.601" style="fill:url(#a)"/><path d="M499.94416,734.2973,180.21739,642.3594V349.71461l318.54137-82.86739,317.89767,83.51594.32162,290.37753Zm-1.1854-481.695L171.19418,328.35016V664.37824l328.75,83.51676L827.66,665.02312v-336.673Z" style="fill:#7b221f"/><polygon points="788.612 367.216 498.759 317.538 210.203 365.921 218.38 423.742 780.377 423.742 788.612 367.216" style="fill:#fff"/><polygon points="210.203 622.722 498.225 673.316 788.612 624.017 785.929 562.081 212.945 562.081 210.203 622.722" style="fill:#fff"/><path d="M821.83219,656.603,499.9428,740.12424,175.03854,654.66V338.06209L498.7583,262.95877,821.83219,336.1191ZM498.7583,252.60188,169.36517,328.35016V664.37824L499.9428,747.895,827.66,665.02312v-336.673Z" style="fill:url(#b)"/><polygon points="776.137 493.032 783.463 565.574 215.37 565.574 223.611 494.863 217.201 422.847 782.547 422.847 776.137 493.032" style="fill:url(#c)"/><path d="M214.171,618.60751l14.63574-134.89289L215.8268,370.947l282.932-51.56456,284.22942,51.05981L769.7647,483.70978,784.1048,617.692,498.22227,671.3003ZM773.02527,484.31277l22.91207-121.958L498.75876,315.70736,202.87755,361.34307l22.84292,128.32629L201.44425,630.15072l296.778,45.59016,300.44144-46.2387Z" style="fill:#191c4e"/><path d="M619.18112,529.898c-12.63029,0-22.863-13.47888-22.863-30.10673,0-16.62684,10.23267-30.10581,22.863-30.10581,9.19471,0,17.10121,7.17005,20.729,17.48093h38.115c-5.8993-26.27226-30.28263-45.968-59.4898-45.968-33.61566,0-60.862,26.08775-60.862,58.27,0,32.18143,27.24636,58.27011,60.862,58.27011,29.44747,0,54.00681-20.02051,59.64348-46.618H640.35491c-3.40528,11.00855-11.59672,18.77748-21.17379,18.77748m120.752,0c-12.69459,0-22.98269-13.47888-22.98269-30.10673,0-16.62684,10.2881-30.10581,22.98269-30.10581,12.69111,0,22.98452,13.479,22.98452,30.10581,0,16.62785-10.29341,30.10673-22.98452,30.10673m-.64489-88.69965c-33.79786,0-61.18536,26.08775-61.18536,58.27,0,32.18143,27.3875,58.27011,61.18536,58.27011,33.79064,0,61.18-26.08868,61.18-58.27011,0-32.18226-27.38933-58.27-61.18-58.27M349.84959,515.65357l10.35817-35.60941,10.36046,35.60941Zm-115.892,0,10.35817-35.60941,10.36046,35.60941Zm255.74-8.41711-19.42337-61.50689H423.66029V551.26114L380.281,445.72957H340.78265L302.58629,543.494l-37.55193-97.76439h-40.142L182.81012,555.147h38.19911l5.17932-16.83239h35.60858l6.47458,16.83239h68.62782l5.8296-16.83239h35.609l5.18014,16.83239h75.751V498.17126L478.04324,555.147H502.645l18.12893-54.38514V555.147H556.3816V445.72957H509.7695Z" style="fill:#191c4e"/><path d="M625.0108,525.36548c-12.63028,0-22.863-13.47806-22.863-30.105s10.23276-30.10536,22.863-30.10536c9.192,0,17.10031,7.16867,20.728,17.47955h38.116c-5.9002-26.27133-30.28538-45.96721-59.48989-45.96721-33.61739,0-60.86193,26.08831-60.86193,58.27012,0,32.18052,27.24454,58.27011,60.86193,58.27011,29.44564,0,54.00506-20.0206,59.64174-46.618H646.18277c-3.40437,11.00938-11.59681,18.77574-21.172,18.77574m120.752,0c-12.69732,0-22.98452-13.47806-22.98452-30.105s10.2872-30.10536,22.98452-30.10536c12.6893,0,22.98178,13.47851,22.98178,30.10536s-10.29248,30.105-22.98178,30.105m-.64589-88.698c-33.79869,0-61.1871,26.08831-61.1871,58.27012,0,32.18052,27.38841,58.27011,61.1871,58.27011,33.79073,0,61.17823-26.08958,61.17823-58.27011,0-32.1818-27.3875-58.27012-61.17823-58.27012M355.67745,511.12234l10.35735-35.60986,10.36037,35.60986Zm-115.89295,0,10.35818-35.60986,10.36046,35.60986Zm255.73831-8.41574-19.42163-61.50827H429.48642V546.73211L386.108,441.19834H346.6096l-38.19728,97.763-37.5501-97.763H230.71931L188.63624,550.61616h38.19911l5.18014-16.83321h35.60858l6.47367,16.83321h68.62782l5.8297-16.83321h35.61068l5.17941,16.83321h75.74912V493.64049l18.77574,56.97567h24.60223l18.1294-54.385v54.385h35.60857V441.19834H515.59645Z" style="fill:#28377f"/><path d="M629.54156,522.77669c-12.62671,0-22.86387-13.4776-22.86387-30.10581,0-16.62694,10.23715-30.10673,22.86387-30.10673,9.19555,0,17.10305,7.17,20.73162,17.48084h38.1133c-5.89755-26.27134-30.28629-45.96621-59.48724-45.96621-33.61731,0-60.86457,26.08638-60.86457,58.26911,0,32.18144,27.24726,58.27011,60.86457,58.27011,29.4439,0,54.0024-20.02142,59.63817-46.618H650.71354c-3.4008,11.00855-11.59224,18.77665-21.172,18.77665m120.75028,0c-12.69285,0-22.98269-13.4776-22.98269-30.10581,0-16.62694,10.28984-30.10673,22.98269-30.10673,12.69369,0,22.98444,13.47979,22.98444,30.10673,0,16.62822-10.29076,30.10581-22.98444,30.10581m-.64588-88.69792c-33.7934,0-61.18446,26.08638-61.18446,58.26911,0,32.18144,27.39107,58.27011,61.18446,58.27011,33.79154,0,61.18535-26.08867,61.18535-58.27011,0-32.18273-27.39381-58.26911-61.18535-58.26911M360.20822,508.53263l10.36046-35.60985L380.926,508.53263Zm-115.892,0,10.35909-35.60985,10.35954,35.60985ZM500.05531,500.116l-19.42246-61.50781H434.01892V544.1425L390.64059,438.60818H351.1422L312.944,536.37266l-37.5501-97.76448h-40.142L193.16884,548.02746h38.199l5.18023-16.83421h35.60858l6.47366,16.83421h68.62783l5.82969-16.83421H388.6977l5.1784,16.83421H469.627V491.05088l18.77574,56.97658H513.005l18.12765-54.387v54.387H566.7438V438.60818H520.12813Z" style="fill:#fff"/><path d="M595.2051,445.83805s-25.68225,12.84826-25.68225,47.16469c0,34.31451,30.99823,56.5022,58.83871,56.5022,25.8984,0,40.158-15.41025,40.158-15.41025s-11.20641,8.8731-39.69177,8.8731c-21.36672,0-52.69361-19.54438-52.69361-49.97447,0-35.94886,19.07092-47.15527,19.07092-47.15527" style="fill:#79aadb"/><path d="M716.1483,445.83805s-25.68317,12.84826-25.68317,47.16469c0,34.31451,30.99914,56.5022,58.83872,56.5022,25.89839,0,40.15982-15.41025,40.15982-15.41025s-11.20732,8.8731-39.6936,8.8731c-21.36581,0-52.69361-19.54438-52.69361-49.97447,0-35.94886,19.07184-47.15527,19.07184-47.15527" style="fill:#79aadb"/><path d="M624.5677,461.30685s3.23816-9.19381,12.78213-7.79272c7.5493,1.10774,14.09623,5.07889,18.73778,17.467h22.01527l7.22768,7.12093h-33.127c-1.36853-4.44991-6.36024-15.22-16.3419-17.14541-7.63053-1.47309-11.29395.35016-11.29395.35016" style="fill:#79aadb"/><polygon points="531.995 492.04 537.196 477.008 537.196 538.995 561.799 538.995 565.843 547.106 531.98 547.106 531.995 492.04" style="fill:#79aadb"/><polygon points="469.624 488.258 469.624 470.333 492.933 538.315 509.767 538.315 512.222 547.074 488.911 547.074 469.624 488.258" style="fill:#79aadb"/><polygon points="468.016 546.732 463.042 538.675 442.971 538.675 442.971 445.082 435.201 440.551 435.201 546.732 468.016 546.732" style="fill:#79aadb"/><polygon points="371.23 471.506 375.115 459.205 390.791 508.708 382.129 508.708 371.23 471.506" style="fill:#79aadb"/><polygon points="255.423 471.506 259.307 459.205 274.983 508.708 266.323 508.708 255.423 471.506" style="fill:#79aadb"/><polygon points="394.854 546.955 433.167 546.955 424.303 537.668 400.773 537.668 396.464 525.365 355.1 525.365 353.843 529.776 389.389 529.899 394.854 546.955" style="fill:#79aadb"/><polygon points="352.105 440.195 355.675 448.321 320.066 538.315 343.394 538.315 346.662 547.199 279.069 547.199 272.765 530.439 236.925 530.439 238.792 525.365 279.923 525.365 284.906 538.029 308.722 538.029 311.99 543.26 315.316 534.504 352.105 440.195" style="fill:#79aadb"/><polygon points="199.917 534.797 236.108 440.468 239.136 448.321 203.526 538.315 226.962 538.315 230.737 546.732 194.781 546.732 199.917 534.797" style="fill:#79aadb"/><path d="M744.86857,461.83209a14.83207,14.83207,0,0,1,12.86884-7.68459c9.06428,0,23.95551,8.41619,23.95551,31.0768,0,22.66117-10.90628,27.21516-10.90628,27.21516s3.365-1.93356,4.2021-18.38669c1.05048-20.66366-10.15675-30.469-17.33622-32.39622-8.75245-2.34712-12.784.17554-12.784.17554" style="fill:#79aadb"/><polygon points="291.465 378.368 291.465 409.212 283.781 409.212 283.781 378.368 272.751 378.368 272.751 370.795 302.497 370.795 302.497 378.368 291.465 378.368" style="fill:#191c4e"/><path d="M328.7303,378.258H318.68744v9.879H328.7303c3.56738,0,5.4884-1.64635,5.4884-4.99436,0-3.4566-2.08541-4.8846-5.4884-4.8846m4.55538,30.9536-6.8605-13.82959h-7.73773v13.82959h-7.68367V370.79456h17.89137c7.2446,0,13.22705,4.0069,13.22705,12.18371,0,5.76263-2.47,9.3849-7.35455,11.30592l7.35455,14.92746Z" style="fill:#191c4e"/><path d="M369.01482,386.38081c-.76829-2.25025-1.53694-4.55446-1.921-5.98236-.3841,1.4279-1.15238,3.73211-1.921,5.98236l-2.46951,6.97035h8.78154Zm8.12275,22.83084-3.01844-8.56091H360.0689l-3.0189,8.56091h-8.23169l14.7081-38.41709h7.46432L385.589,409.21165Z" style="fill:#191c4e"/><path d="M416.98292,409.21165l-14.10419-20.96479c-.933-1.427-2.19527-3.348-2.68932-4.336,0,1.42708.10949,6.257.10949,8.39744v16.90337h-7.57381V370.79456h7.35446L413.68979,391.101c.933,1.427,2.19526,3.34674,2.68932,4.33465,0-1.42607-.10987-6.25569-.10987-8.39607v-16.245h7.57418v38.41709Z" style="fill:#191c4e"/><path d="M445.68763,409.81556c-6.42143,0-12.0197-2.68932-14.92745-6.97046l5.542-4.93948a12.44755,12.44755,0,0,0,9.82452,4.39055c4.55538,0,6.69567-1.26216,6.69567-4.16991,0-2.47-1.31713-3.56865-8.56182-5.21418-7.07977-1.64633-12.01878-3.89648-12.01878-11.47076,0-6.97035,6.14719-11.25012,13.72009-11.25012a18.36112,18.36112,0,0,1,13.99479,6.03642l-5.54246,5.37854a11.71565,11.71565,0,0,0-8.72656-3.95147c-4.1163,0-5.4884,1.7562-5.4884,3.45742,0,2.41508,1.64634,3.18327,7.73865,4.61035s12.84286,3.51239,12.84286,11.854c0,7.29949-4.61117,12.239-15.09311,12.239" style="fill:#191c4e"/><path d="M498.26563,409.21165V395.10737c0-2.08578.10986-6.97036.10986-8.45232-.54893,1.42708-1.70168,4.17036-2.68923,6.36655l-7.79271,17.0682L480.1,393.02159c-.988-2.19618-2.14075-4.93947-2.68923-6.36655,0,1.482.1094,6.36655.1094,8.45232v14.10428h-7.51792V370.79456h7.40852l8.01279,17.39742c.988,2.14029,2.14039,5.04933,2.63434,6.42143.494-1.4279,1.59191-4.22616,2.57982-6.42143l7.73773-17.39742h7.57427v38.41709Z" style="fill:#191c4e"/><rect x="515.28023" y="370.79456" width="7.68322" height="38.41709" style="fill:#191c4e"/><path d="M545.3566,409.81556c-6.4219,0-12.01934-2.68932-14.92874-6.97046l5.54375-4.93948a12.445,12.445,0,0,0,9.8236,4.39055c4.55493,0,6.69521-1.26216,6.69521-4.16991,0-2.47-1.31676-3.56865-8.56136-5.21418-7.07931-1.64633-12.01924-3.89648-12.01924-11.47076,0-6.97035,6.14674-11.25012,13.721-11.25012a18.363,18.363,0,0,1,13.99433,6.03642l-5.54291,5.37854a11.71374,11.71374,0,0,0-8.72565-3.95147c-4.1163,0-5.4884,1.7562-5.4884,3.45742,0,2.41508,1.64633,3.18327,7.73773,4.61035,6.09221,1.427,12.84286,3.51239,12.84286,11.854,0,7.29949-4.61026,12.239-15.0922,12.239" style="fill:#191c4e"/><path d="M579.71271,409.81556c-6.42106,0-12.01841-2.68932-14.927-6.97046l5.54292-4.93948a12.44483,12.44483,0,0,0,9.82352,4.39055c4.55491,0,6.69529-1.26216,6.69529-4.16991,0-2.47-1.31676-3.56865-8.56135-5.21418-7.07941-1.64633-12.01934-3.89648-12.01934-11.47076,0-6.97035,6.14766-11.25012,13.721-11.25012a18.363,18.363,0,0,1,13.99442,6.03642l-5.54292,5.37854a11.71565,11.71565,0,0,0-8.72656-3.95147c-4.11548,0-5.48758,1.7562-5.48758,3.45742,0,2.41508,1.64634,3.18327,7.73773,4.61035,6.09231,1.427,12.843,3.51239,12.843,11.854,0,7.29949-4.61035,12.239-15.09311,12.239" style="fill:#191c4e"/><rect x="602.38092" y="370.79456" width="7.68322" height="38.41709" style="fill:#191c4e"/><path d="M634.04829,377.81944c-6.20127,0-8.78118,5.32275-8.78118,12.18325s2.57992,12.18453,8.78118,12.18453c6.20207,0,8.78107-5.324,8.78107-12.18453s-2.579-12.18325-8.78107-12.18325m0,31.99648c-10.48194,0-16.68412-8.12265-16.68412-19.81323,0-11.6892,6.20218-19.81195,16.68412-19.81195,10.48275,0,16.684,8.12275,16.684,19.81195,0,11.69057-6.20126,19.81323-16.684,19.81323" style="fill:#191c4e"/><path d="M681.74122,409.21165l-14.10511-20.96479c-.93257-1.427-2.19481-3.348-2.68877-4.336,0,1.42708.10986,6.257.10986,8.39744v16.90337h-7.57427V370.79456h7.35538L678.44856,391.101c.93256,1.427,2.1948,3.34674,2.68885,4.33465,0-1.42607-.10986-6.25569-.10986-8.39607v-16.245h7.57327v38.41709Z" style="fill:#191c4e"/><path d="M709.34762,409.81556c-6.421,0-12.01841-2.68932-14.92689-6.97046l5.54282-4.93948a12.44515,12.44515,0,0,0,9.8236,4.39055c4.55492,0,6.69521-1.26216,6.69521-4.16991,0-2.47-1.31667-3.56865-8.56136-5.21418-7.07931-1.64633-12.01924-3.89648-12.01924-11.47076,0-6.97035,6.14765-11.25012,13.721-11.25012a18.36265,18.36265,0,0,1,13.99433,6.03642l-5.54283,5.37854a11.71569,11.71569,0,0,0-8.72665-3.95147c-4.11539,0-5.48749,1.7562-5.48749,3.45742,0,2.41508,1.64634,3.18327,7.73773,4.61035,6.09222,1.427,12.84286,3.51239,12.84286,11.854,0,7.29949-4.61026,12.239-15.09311,12.239" style="fill:#191c4e"/><polygon points="292.188 587.269 292.188 617.603 284.631 617.603 284.631 587.269 273.783 587.269 273.783 579.821 303.037 579.821 303.037 587.269 292.188 587.269" style="fill:#191c4e"/><path d="M321.59867,586.7294c-6.09853,0-8.63591,5.23566-8.63591,11.98183,0,6.747,2.53738,11.98265,8.63591,11.98265,6.09945,0,8.636-5.23566,8.636-11.98265,0-6.74616-2.53656-11.98183-8.636-11.98183m0,31.46721c-10.30905,0-16.4085-7.98874-16.4085-19.48539s6.09945-19.48456,16.4085-19.48456,16.4085,7.98782,16.4085,19.48456-6.09935,19.48539-16.4085,19.48539" style="fill:#191c4e"/><polygon points="358.565 587.269 358.565 617.603 351.008 617.603 351.008 587.269 340.16 587.269 340.16 579.821 369.414 579.821 369.414 587.269 358.565 587.269" style="fill:#191c4e"/><path d="M387.43408,595.1487c-.75575-2.21265-1.511-4.47982-1.88883-5.88229-.37788,1.40247-1.13364,3.66963-1.88893,5.88229l-2.42972,6.8552h8.63591Zm7.98828,22.45388-2.9684-8.42022H378.636l-2.96795,8.42022h-8.0964l14.4656-37.7819h7.34064l14.35657,37.7819Z" style="fill:#191c4e"/><polygon points="409.447 617.603 409.447 579.821 417.003 579.821 417.003 610.154 435.948 610.154 435.948 617.603 409.447 617.603" style="fill:#191c4e"/><path d="M477.54654,590.83143a7.17558,7.17558,0,0,0-6.90917-4.102c-5.66659,0-8.90575,4.96582-8.90575,11.98183,0,6.8015,3.29313,11.98265,8.95982,11.98265,3.40116,0,5.39811-1.457,7.39471-4.80418l6.3691,3.77867c-2.59007,5.3437-7.12441,8.52825-13.97869,8.52825-9.878,0-16.51652-7.55634-16.51652-19.48539,0-11.49674,6.90916-19.48456,16.78545-19.48456,7.12486,0,11.44259,3.4544,13.81789,8.3657Z" style="fill:#191c4e"/><path d="M507.05659,595.1487c-.75575-2.21265-1.51059-4.47982-1.888-5.88229-.37879,1.40247-1.13409,3.66963-1.88974,5.88229l-2.4289,6.8552h8.63545Zm7.98874,22.45388-2.96849-8.42022H498.25941l-2.96886,8.42022h-8.09639l14.4655-37.7819h7.34074l14.357,37.7819Z" style="fill:#191c4e"/><path d="M546.50266,587.16088h-9.8772v9.71548h9.8772c3.508,0,5.3973-1.61954,5.3973-4.9113,0-3.4008-2.051-4.80418-5.3973-4.80418m4.47991,30.44171-6.748-13.60127h-7.60911v13.60127h-7.55635v-37.7819h17.59527c7.12486,0,13.00816,3.93939,13.00816,11.98173,0,5.668-2.42889,9.22957-7.23308,11.11795l7.23308,14.68222Z" style="fill:#191c4e"/><path d="M602.2416,590.83143a7.17585,7.17585,0,0,0-6.9088-4.102c-5.668,0-8.90612,4.96582-8.90612,11.98183,0,6.8015,3.29269,11.98265,8.95973,11.98265,3.4008,0,5.3973-1.457,7.39471-4.80418l6.3692,3.77867c-2.59144,5.3437-7.125,8.52825-13.98005,8.52825-9.87722,0-16.51617-7.55634-16.51617-19.48539,0-11.49674,6.9088-19.48456,16.78683-19.48456,7.125,0,11.44222,3.4544,13.81751,8.3657Z" style="fill:#191c4e"/><path d="M631.75156,595.1487c-.75574-2.21265-1.51141-4.47982-1.88929-5.88229-.37879,1.40247-1.13272,3.66963-1.88847,5.88229l-2.4288,6.8552h8.63545Zm7.98874,22.45388-2.96932-8.42022h-13.8175l-2.96842,8.42022h-8.09594l14.46515-37.7819h7.34019l14.35794,37.7819Z" style="fill:#191c4e"/><path d="M671.19772,587.16088h-9.87721v9.71548h9.87721c3.50883,0,5.3972-1.61954,5.3972-4.9113,0-3.4008-2.05092-4.80418-5.3972-4.80418m4.47982,30.44171-6.74616-13.60127h-7.61086v13.60127h-7.55634v-37.7819h17.59611c7.124,0,13.00723,3.93939,13.00723,11.98173,0,5.668-2.42889,9.22957-7.23207,11.11795l7.23207,14.68222Z" style="fill:#191c4e"/><polygon points="690.997 617.603 690.997 579.821 717.228 579.821 717.228 587.214 698.553 587.214 698.553 593.746 709.402 593.746 709.402 601.086 698.553 601.086 698.553 610.208 718.038 610.208 718.038 617.603 690.997 617.603" style="fill:#191c4e"/><path d="M796.27241,425.1154a9.52606,9.52606,0,0,1,9.753,9.50463,9.50468,9.50468,0,1,1-19.00936,0,9.28843,9.28843,0,0,1,1.47034-5.081,8.88145,8.88145,0,0,1,3.67952-3.36869A9.59586,9.59586,0,0,1,796.27241,425.1154Zm.48236,1.8581a7.44321,7.44321,0,0,0-5.67775,2.30687,7.557,7.557,0,0,0-2.17432,5.346,7.64665,7.64665,0,0,0,15.29324,0,7.47019,7.47019,0,0,0-1.13006-4.00022,7.32581,7.32581,0,0,0-2.90766-2.741A7.4621,7.4621,0,0,0,796.75476,426.9735ZM792.33294,439.694V429.60336h4.76668a3.47745,3.47745,0,0,1,2.57533.82363,2.78538,2.78538,0,0,1,.80487,2.025,2.58455,2.58455,0,0,1-.67892,1.87063,3.66575,3.66575,0,0,1-2.04836.95351,2.505,2.505,0,0,1,.98709.641,12.76861,12.76861,0,0,1,1.16135,1.74824l1.17909,2.02861h-2.51552l-.84055-1.6307a7.57945,7.57945,0,0,0-1.32838-1.98489,2.12869,2.12869,0,0,0-1.50163-.52926h-.53146V439.694Zm2.0296-5.74563h1.65164a3.50468,3.50468,0,0,0,1.76966-.32876,1.17144,1.17144,0,0,0,.52349-1.07462,1.11827,1.11827,0,0,0-.51728-1.00538,2.92417,2.92417,0,0,0-1.56593-.33543h-1.86158Z" style="fill:#fff"/></svg>