<svg xmlns="http://www.w3.org/2000/svg" xmlns:xlink="http://www.w3.org/1999/xlink" viewBox="0 0 2183.40717 922.5861"><defs><linearGradient id="a" x1="108.13571" y1="228.33589" x2="108.13571" y2="397.095" gradientTransform="translate(1080.02088)" gradientUnits="userSpaceOnUse"><stop offset="0" stop-color="#b6bfbe"/><stop offset="1" stop-color="#fff"/></linearGradient><linearGradient id="b" x1="-335.83899" y1="225.2239" x2="-335.83899" y2="387.24514" xlink:href="#a"/><linearGradient id="c" x1="343.3748" y1="649.84036" x2="722.3647" y2="649.84036" gradientTransform="translate(1080.02088)" gradientUnits="userSpaceOnUse"><stop offset="0" stop-color="#717070"/><stop offset="0.23895" stop-color="#898887"/><stop offset="0.74478" stop-color="#b6b5b4"/><stop offset="1" stop-color="#c7c6c5"/></linearGradient><linearGradient id="d" x1="-891.42679" y1="643.64835" x2="-522.98318" y2="643.64835" xlink:href="#c"/><linearGradient id="e" x1="805.54521" y1="621.85691" x2="805.54521" y2="574.21545" gradientTransform="translate(1080.02088)" gradientUnits="userSpaceOnUse"><stop offset="0" stop-color="#e8e9f5"/><stop offset="0.09615" stop-color="#d9e8e6"/><stop offset="1" stop-color="#fff"/></linearGradient><linearGradient id="f" x1="-63.82819" y1="489.18384" x2="-63.82819" y2="382.21399" xlink:href="#e"/><linearGradient id="g" x1="102.587" y1="749.35386" x2="102.587" y2="433.30376" xlink:href="#e"/><linearGradient id="h" x1="-179.51232" y1="758.97059" x2="219.18119" y2="483.68586" gradientTransform="translate(1080.02088)" gradientUnits="userSpaceOnUse"><stop offset="0" stop-color="#eaeef3"/><stop offset="0.50574" stop-color="#f7f9fb"/><stop offset="1" stop-color="#fff"/></linearGradient><linearGradient id="i" x1="-402.423" y1="747.27098" x2="-402.423" y2="400.05987" xlink:href="#e"/><linearGradient id="j" x1="-455.69982" y1="726.56207" x2="-295.06816" y2="418.74353" xlink:href="#h"/><linearGradient id="k" x1="-104.27614" y1="754.3698" x2="-104.27614" y2="638.63179" gradientTransform="translate(1080.02088)" gradientUnits="userSpaceOnUse"><stop offset="0" stop-color="#fff"/><stop offset="0.16713" stop-color="#e1e1e1"/><stop offset="0.41769" stop-color="#bababa"/><stop offset="0.64849" stop-color="#9e9e9e"/><stop offset="0.84999" stop-color="#8d8d8d"/><stop offset="1" stop-color="#878787"/></linearGradient><linearGradient id="l" x1="-950.31406" y1="427.19395" x2="-811.7321" y2="427.19395" gradientTransform="translate(1080.02088)" gradientUnits="userSpaceOnUse"><stop offset="0" stop-color="#fff"/><stop offset="1" stop-color="#878787"/></linearGradient><linearGradient id="m" x1="-950.31406" y1="486.92716" x2="-860.40424" y2="486.92716" xlink:href="#l"/><linearGradient id="n" x1="-515.46812" y1="433.85497" x2="-515.46812" y2="540.81775" gradientTransform="translate(1080.02088)" gradientUnits="userSpaceOnUse"><stop offset="0" stop-color="#b6bfbe"/><stop offset="0.12684" stop-color="#cbd2d1"/><stop offset="0.30644" stop-color="#e2e6e5"/><stop offset="0.50027" stop-color="#f2f4f4"/><stop offset="0.71637" stop-color="#fcfcfc"/><stop offset="1" stop-color="#fff"/></linearGradient><linearGradient id="o" x1="-507.14312" y1="442.64272" x2="-507.14312" y2="464.24028" gradientTransform="translate(1080.02088)" gradientUnits="userSpaceOnUse"><stop offset="0" stop-color="#fff"/><stop offset="0.28363" stop-color="#fcfcfc"/><stop offset="0.49973" stop-color="#f2f4f4"/><stop offset="0.69356" stop-color="#e2e6e5"/><stop offset="0.87316" stop-color="#cbd2d1"/><stop offset="1" stop-color="#b6bfbe"/></linearGradient><linearGradient id="p" x1="417.87201" y1="514.44397" x2="417.87201" y2="460.62709" xlink:href="#a"/><linearGradient id="q" x1="-781.01808" y1="170.30384" x2="-737.49192" y2="170.30384" xlink:href="#h"/><linearGradient id="r" x1="-703.07706" y1="817.16233" x2="-703.07706" y2="677.93993" gradientTransform="translate(1080.02088)" gradientUnits="userSpaceOnUse"><stop offset="0" stop-color="#a1b2b2"/><stop offset="0.3335" stop-color="#a5b4b4"/><stop offset="0.64465" stop-color="#b0bab9"/><stop offset="0.94612" stop-color="#c3c4c3"/><stop offset="1" stop-color="#c7c6c5"/></linearGradient><linearGradient id="s" x1="-703.07731" y1="799.5971" x2="-703.07731" y2="673.32241" xlink:href="#r"/><linearGradient id="t" x1="-703.07757" y1="759.86255" x2="-703.07757" y2="712.21846" xlink:href="#r"/><linearGradient id="u" x1="-703.07709" y1="744.18187" x2="-703.07709" y2="721.59936" xlink:href="#r"/></defs><title>frame7-car</title><g style="isolation:isolate"><g style="opacity:0.5"><path d="M1083.3423,202.90292l-.00162-.01783a3.61173,3.61173,0,0,1,3.03017-4.07427l15.21893-2.26492a3.60728,3.60728,0,0,1,4.09048,3.04314l.00162.01783a3.61269,3.61269,0,0,1-3.03017,4.07427l-15.21893,2.26492A3.60722,3.60722,0,0,1,1083.3423,202.90292Z" style="fill:#735946"/><path d="M1081.72426,196.33513l-.00324-.01783a3.61173,3.61173,0,0,1,3.03017-4.07427L1099.97,189.9781a3.60487,3.60487,0,0,1,4.089,3.04314l.00324.01783a3.6118,3.6118,0,0,1-3.03017,4.07427l-15.21893,2.26492A3.6057,3.6057,0,0,1,1081.72426,196.33513Z" style="fill:#735946"/><path d="M1080.53424,189.85l-.00162-.01783a3.61269,3.61269,0,0,1,3.03007-4.07427l15.219-2.2633a3.60479,3.60479,0,0,1,4.09039,3.04152l.00172.01783a3.6118,3.6118,0,0,1-3.03017,4.07427l-15.21893,2.26492A3.60815,3.60815,0,0,1,1080.53424,189.85Z" style="fill:#735946"/><path d="M1079.98139,183.48488l-.00324-.01783a3.61139,3.61139,0,0,1,3.03179-4.07265l15.21731-2.26492a3.60522,3.60522,0,0,1,4.09048,3.04314l.00315.01783a3.61128,3.61128,0,0,1-3.03007,4.07265l-15.21893,2.26492A3.60522,3.60522,0,0,1,1079.98139,183.48488Z" style="fill:#735946"/><path d="M1134.32984,180.10938s-24.54127-6.78991-29.50725-6.67156-23.29289,6.56293-23.29289,6.56293,6.77532,5.54153,6.80936,9.99355c.03567,4.45365-.929,15.95337-.929,15.95337s16.76725,1.90176,24.45048.27237a78.47887,78.47887,0,0,0,14.872-4.9984Z" style="fill:#735946"/><path d="M1285.2059,80.16575s18.33989,45.66652,21.37654,47.89415c10.71664,7.85347,23.97058,10.24323,33.92522,20.68588,12.06879,12.66055,16.06848,82.64461,18.49382,106.61843,2.42552,23.97221,31.4253,86.88425,26.6247,109.71183-6.41864,30.52217-61.38966,31.3247-63.91237,32.171s-19.71311-16.70888-26.31333-22.44658,3.93322-57.06085-.85928-71.354c-4.79249-14.2948-41.21287-60.18343-42.95412-63.2444-11.6278-20.43944-11.77372-39.5851-12.48221-44.48947-.71021-4.90761-3.549-12.55841-2.218-16.29384,2.65088-7.4368,25.75732-23.81981,25.18987-26.90347-.56583-3.08367-10.80095-45.23363-10.80095-45.23363Z" style="fill:#735946"/><path d="M1306.58244,128.0599l-33.15674,38.6172-11.34894-14.16186s-23.635,19.83795-25.18987,26.90347c-1.55471,7.0639,1.03933,20.39242,1.46573,25.52215.42477,5.12972,7.07363,27.23422,15.28054,45.58059,4.80709,10.73772,20.38432,22.48549,28.40478,40.82376,6.86773,15.70207,2.69618,44.55756,2.69618,44.55756s17.7692,3.90241,44.16026,1.30026c30.33743-2.99126,57.82942,4.30773,58.73248,2.86966,3.87972-6.169-21.90183-75.21105-22.51954-80.27754-.61933-5.06649-14.06782-91.31682-17.12879-102.27827-3.05935-10.96308-9.25749-15.62749-18.13236-19.32238C1318.38047,133.42308,1306.58244,128.0599,1306.58244,128.0599Z" style="fill:#b8b4b4"/><path d="M1311.349,131.13871s42.52772,12.63461,22.66383,42.31047c-8.57493,12.81133-38.3886,39.29976-47.74013,45.96-33.41939,23.80359,22.54224,100.84182,29.03059,105.597,6.48835,4.75358,27.42715,9.36125,27.42715,9.36125l44.64025-4.03212c2.50163-8.28635-22.23582-70.96168-21.86292-83.88651s-13.36257-82.13228-16.26952-90.80287C1342.78394,136.39326,1311.349,131.13871,1311.349,131.13871Z" style="fill:#a39d9d"/><path d="M1241.83349,42.29758c10.73772-10.57559,43.11138-21.08147,59.90619-.14429s10.52857,42.424,2.32329,55.87894c-6.39918,10.49291-12.76107,16.3976-25.56916,22.70923-2.61188,1.28729-26.51761,6.30028-31.38468,4.83627-3.3301-1.00195-6.71209-24.87039-7.667-24.74069-.95493.13132-3.6739-1.20137-3.883-3.142-.30642-2.82426,2.14171-20.15248,1.38457-21.94561S1229.52962,54.41662,1241.83349,42.29758Z" style="fill:#735946"/><path d="M1235.551,53.21039s17.94916-10.9728,41.50308,9.00133c5.06973,4.29963-3.51817,23.65606-2.22763,25.30165,1.38457,1.76557,17.59572-14.572,17.02341-12.38656-5.82687,22.26014,1.81907,34.136,3.83594,34.20084,6.11546.19293,23.79711-31.5533,13.58468-56.354C1299.05971,28.173,1272.033,26.615,1265.63546,28.18922,1259.23628,29.76348,1239.82959,31.88249,1235.551,53.21039Z" style="fill:#3c2415"/><path d="M1281.30186,80.40408c-1.89527,7.08822-2.55838,16.57756,1.27919,17.56816,3.83585.9906,8.48252-3.95105,10.37942-11.0409,1.89689-7.0866.32426-13.63656-3.51331-14.62716S1283.19876,73.31585,1281.30186,80.40408Z" style="fill:#735946"/><rect x="1319.47321" y="758.87942" width="28.27661" height="5.27564" transform="translate(2667.22303 1523.03447) rotate(-180)" style="fill:#191919"/><path d="M1346.63771,721.71163c3.69975,5.18647,6.20949,15.22866,6.57428,19.8493.441,5.57071-2.87939,17.31848-6.54347,17.31848a271.9938,271.9938,0,0,0-34.49429,1.91959c-11.02793,1.48509-15.14921,7.82591-43.34647,7.75943-8.2296-.01783-22.7449-.51232-22.7449-3.883,0-14.60122,27.04939-9.41476,35.63405-17.32659,21.71376-20.01629,36.18042-24.85256,36.18042-24.85256S1345.87733,720.64646,1346.63771,721.71163Z" style="fill:#191919"/><polygon points="1381.753 771.91 1409.824 768.533 1409.164 763.126 1381.091 766.503 1381.753 771.91" style="fill:#191919"/><path d="M1403.4116,725.16171c4.3207,4.87356,8.06748,14.86711,9.00944,19.56071,1.13489,5.65664-.69229,18.09345-4.33043,18.5312a263.39685,263.39685,0,0,0-34.00629,6.0879c-10.76042,2.83886-14.05972,9.83143-42.06242,13.13072-8.17124.963-22.86811,2.2098-23.06753-1.2646-.99871-17.47575,25.67779-12.87943,33.21024-22.01532,19.05487-23.10806,32.81141-29.79421,32.81141-29.79421S1402.52314,724.15976,1403.4116,725.16171Z" style="fill:#191919"/><path d="M1333.70316,339.42906s37.17589,34.68885,38.89606,51.101c1.7218,16.41057-14.13754,68.93833-19.74716,110.25009-5.60962,41.31339-9.084,49.66783-7.68323,59.42305,1.40078,9.7536,13.6625,49.282,12.09473,75.57422-1.56615,26.29225-6.84179,95.05224-6.84179,95.05224s-7.76754,3.52466-21.31331,4.82816c-13.54739,1.30513-22.94594-10.35672-22.94594-10.35672s-10.89823-153.61926-12.6184-169.82879c-1.11382-10.48642-9.692-82.86024-12.31684-141.86014-.84631-18.98516,1.31324-62.87475,1.30513-70.72336Z" style="fill:#04243e"/><path d="M1385.86451,332.96664s10.7442,23.969,11.63266,44.31113c.71823,16.48353-2.29086,46.9911-5.53342,88.55578-3.24093,41.56468-1.58885,79.93707.36641,89.59664,1.95526,9.65795,15.93067,50.24014,17.278,76.54374,1.584,30.90641,8.28473,101.87782,8.28473,101.87782a135.14456,135.14456,0,0,1-25.45405,6.79153c-13.45012,2.07686-31.717-.85441-31.717-.85441S1338.55718,577.285,1331.59388,562.5168c-11.11548-23.57337-16.92938-99.48806-26.6311-150.92308-3.91376-20.74911-11.62131-67.11926-11.62131-67.11926Z" style="fill:#152f55"/><path d="M1370.32619,337.09117l-4.61415-88.22342s10.63882,29.30945,20.45079,65.82386c.796,2.96694,6.571,14.18293,1.20785,15.6437C1380.738,332.13979,1370.32619,337.09117,1370.32619,337.09117Z" style="fill:#152f55"/><polygon points="1271.978 156.249 1273.426 166.677 1290.945 146.465 1271.978 156.249" style="fill:#a39d9d"/><polygon points="1313.139 128.692 1301.887 120.917 1271.978 156.249 1282.401 167.645 1313.139 128.692" style="fill:#d8d5d4"/><polygon points="1273.426 166.677 1265.909 155.646 1262.025 161.502 1273.426 166.677" style="fill:#a39d9d"/><polygon points="1265.909 155.646 1260.392 168.842 1255.371 158.392 1260.443 148.746 1265.909 155.646" style="fill:#d0cccc"/><path d="M1280.58526,332.32948c-5.14918-3.13393-2.62323-17.693-7.76754-31.83864-12.09806-33.27023-30.38111-79.569-30.38111-79.569l58.61241-14.78443,51.84025,127.57182S1290.616,338.43683,1280.58526,332.32948Z" style="fill:#152f55"/><path d="M1280.58526,332.32948l1.83691,15.78476s37.16292,2.61512,72.23925,0c35.07471-2.61512,34.3337-5.03731,34.3337-5.03731l-1.62443-12.74162s-10.70367,1.02951-35.25962,1.99417C1328.25243,333.2682,1280.58526,332.32948,1280.58526,332.32948Z" style="fill:#094977"/><polygon points="1352.111 332.329 1360.534 384.467 1369.853 331.511 1352.111 332.329" style="fill:#04243e"/><path d="M1301.049,206.13737c-2.23088-11.28571,3.977-51.50311,18.15011-61.85659,7.2245-5.27726,16.54684-4.03212,16.54684-4.03212s-11.99583-6.50619-16.4284-7.16118c-4.82978-.71174-9.00619,1.06842-15.92589,11.29868-10.35663,15.30972-19.32391,45.14446-15.0097,64.94674C1292.69782,229.13519,1303.72575,219.66693,1301.049,206.13737Z" style="fill:#152f55"/><path d="M1242.43661,220.9218s-10.4848-40.339,1.09923-50.9989a81.15406,81.15406,0,0,0,7.01689-7.06553s-3.77271,22.37038-.74741,38.90579c3.0253,16.537,6.08952,27.99946.86414,29.58182S1242.43661,220.9218,1242.43661,220.9218Z" style="fill:#152f55"/><path d="M1249.45349,222.9111c6.33271-17.51466-30.55783-26.516-48.96581-30.59837s-73.8589-13.56685-73.8589-13.56685l-5.47505,19.71311s44.64187,26.33927,94.88354,39.87045C1232.29867,242.70852,1243.01054,240.7338,1249.45349,222.9111Z" style="fill:#735946"/><path d="M1339.75377,151.68353c11.84667,12.57787,4.96426,26.12364-8.155,36.9635-13.11775,10.83824-91.58433,50.48982-97.02533,51.21939-20.099,2.69943-23.80684-17.406-16.20467-28.26859,4.53471-6.48025,65.10239-52.40292,77.43706-59.43927C1308.13886,145.1206,1325.86915,136.94612,1339.75377,151.68353Z" style="fill:#735946"/><path d="M1340.10883,145.76587c-12.15309-14.09376-34.46835-1.55156-44.79913,5.535-14.63689,10.04057-54.5884,36.195-54.5884,36.195s.57717,10.77339,9.21372,23.862c10.01949,15.18326,21.87418,20.22057,21.87418,20.22057s61.01037-36.0037,68.35476-48.46484C1342.35592,179.39278,1357.46127,165.88592,1340.10883,145.76587Z" style="fill:#d0cccc"/><path d="M1312.85678,63.04344s-.689-35.00662-37.16616-38.33834c-36.4755-3.3301-44.01119,33.27185-44.01119,33.27185a258.18453,258.18453,0,0,0,46.28422,8.26851C1305.05033,68.72277,1312.85678,63.04344,1312.85678,63.04344Z" style="fill:#094977"/><path d="M1289.93192,66.868s-72.57323,4.01266-73.48763,3.29281c-.9144-.71823-4.85086-4.71467-6.79964-5.87227-1.9504-1.156-5.1735.6404-5.65349-.728-.48143-1.36674,28.53781-8.67221,28.53781-8.67221s14.45369,4.78439,21.6327,6.94393C1261.33908,63.99189,1290.04379,64.47016,1289.93192,66.868Z" style="fill:#094977"/></g><path d="M335.69255,243.993a15.67076,15.67076,0,0,1,0-31.34152V200.48661a27.83565,27.83565,0,0,0,0,55.6713Z" style="fill:#191919"/><path d="M1594.48142,417.64732a15.67076,15.67076,0,0,0,0-31.34152V374.13994a27.83613,27.83613,0,0,1,0,55.67227Z" style="fill:#191919"/><path d="M1851.409,494.57105c-15.57963-5.41976-194.53637-50.19337-207.42842-53.006-45.363-9.89809-67.21955-43.71292-67.21955-43.71292s-46.06213-11.03246-56.1774-15.67076c-86.70151-39.7659-286.523-160.43359-418.17268-193.96725-174.85169-44.537-761.27636,41.895-761.27636,41.895L205.4603,378.56689,111.81676,570.22856l-24.17367,46.1872s-12.3714,64.33128,38.76436,115.467c12.62542,12.62542,44.80754,21.92336,86.05879,28.781,27.81825,0,294.1591,19.08647,330.02937,19.08647,3.95575-.0126,6.31077-.031,6.31077-.031l875.78549.04363s4.66739.07369,13.09177.18227c28.35242,0,314.03962-1.68119,339.17121-1.68119,95.73582-2.85725,175.65835-8.6658,183.83647-19.98815V621.36432C1960.69131,606.51864,1899.00593,511.128,1851.409,494.57105Z" style="fill:#47686d"/><path d="M1851.409,494.57105c-15.57963-5.41976-194.53637-50.19337-207.42842-53.006-45.363-9.89809-67.21955-43.71292-67.21955-43.71292s-46.06213-11.03246-56.1774-15.67076c-86.70151-39.7659-286.523-160.43359-418.17268-193.96725-174.85169-44.537-761.27636,41.895-761.27636,41.895L205.4603,378.56689,111.81676,570.22856l-24.17367,46.1872s-12.3714,64.33128,38.76436,115.467c12.62542,12.62542,44.80754,21.92336,86.05879,28.781a165.77755,165.77755,0,1,1,328.00108-34.14157c0,10.55641,1.83147,33.72951,2.02829,53.228,3.95575-.0126,6.31077-.031,6.31077-.031l875.78549.04363s4.66739.07369,13.09177.18227c-.68926-22.24719-.72037-44.1754-.72037-53.42292,0-91.55708,80.51493-171.73945,172.072-171.73945A165.77864,165.77864,0,0,1,1774.814,720.56142c0,11.37858,2.12621,37.40991,2.04089,57.70249,95.73582-2.85725,175.65835-8.6658,183.83647-19.98815V621.36432C1960.69131,606.51864,1899.00593,511.128,1851.409,494.57105Z" style="fill:#c0d3e2"/><path d="M1851.409,494.57105c-15.57963-5.41976-194.53637-50.19337-207.42842-53.006-45.363-9.89809-67.21955-43.71292-67.21955-43.71292s-46.06213-11.03246-56.1774-15.67076c-86.70151-39.7659-286.523-160.43359-418.17268-193.96725-174.85169-44.537-761.27636,41.895-761.27636,41.895L205.4603,378.56689,111.81676,570.22856l-24.17367,46.1872s-12.3714,64.33128,38.76436,115.467c12.62542,12.62542,44.80754,21.92336,86.05879,28.781a165.77755,165.77755,0,1,1,328.00108-34.14157c0,10.55641,1.83147,33.72951,2.02829,53.228,3.95575-.0126,6.31077-.031,6.31077-.031l875.78549.04363s4.66739.07369,13.09177.18227c-.68926-22.24719-.72037-44.1754-.72037-53.42292,0-91.55708,80.51493-171.73945,172.072-171.73945A165.77864,165.77864,0,0,1,1774.814,720.56142c0,11.37858,2.12621,37.40991,2.04089,57.70249,95.73582-2.85725,175.65835-8.6658,183.83647-19.98815V621.36432C1960.69131,606.51864,1899.00593,511.128,1851.409,494.57105Z" style="fill:#00aeef"/><path d="M1577.38737,398.11777s92.7089-297.90834,110.7948-321.08823c18.08687-23.18086,39.06686-27.87346,38.89234-25.2712-.17452,2.60129-90.43531,277.20466-107.34612,306.62649C1599.01793,394.416,1577.38737,398.11777,1577.38737,398.11777Z" style="fill:#00aeef"/><path d="M1512.18835,426.71742S1307.18283,286.56672,1154.651,226.46654c-91.3079-35.97692-243.7185-30.9285-243.7185-30.9285l23.50566,209.9822Z" style="fill:#385c61"/><polygon points="910.933 195.538 564.553 220.051 482.617 374.268 934.438 405.52 910.933 195.538" style="fill:#385c61"/><path d="M564.55276,220.05106s-139.78711,16.95541-147.24389,29.91629c-12.95507,22.51963,38.1807,124.78631,68.15031,124.78631Z" style="fill:#385c61"/><path d="M547.039,235.37279s-109.53154,17.7834-113.8179,27.21708c-4.28636,9.43465,37.1142,89.075,52.785,89.075Z" style="fill:#47686d"/><path d="M1440.41485,404.60694s-172.02062-117.601-300.01127-168.03094c-76.61631-30.18873-204.50524-25.95279-204.50524-25.95279L955.6218,391.15643Z" style="fill:#47686d"/><path d="M1440.41485,404.60694s-172.02062-117.601-300.01127-168.03094c-76.61631-30.18873-204.50524-25.95279-204.50524-25.95279l275.66211,187.63418Z" style="mix-blend-mode:soft-light;fill:url(#a)"/><polygon points="894.373 213.425 577.431 233.147 512.843 359.635 910.933 385.481 894.373 213.425" style="fill:#47686d"/><polygon points="894.373 213.425 577.431 233.147 852.236 381.669 910.933 385.481 894.373 213.425" style="mix-blend-mode:soft-light;fill:url(#b)"/><path d="M1818.14391,776.78051c.01551-.15707,25.12965-256.86263-208.06444-256.86263-234.39341,0-211.84469,255.90278-211.484,259.843l24.27063.00194,14.80981-.11247c-.68062-22.14539-.71262-43.92235-.71262-53.12818,0-91.55708,80.51493-171.73945,172.072-171.73945A165.77864,165.77864,0,0,1,1774.814,720.56142c0,11.16722,2.036,36.419,2.0312,56.5371l41.09515-.30832C1818.00914,776.78633,1818.07507,776.78342,1818.14391,776.78051Z" style="mix-blend-mode:soft-light;fill:url(#c)"/><path d="M570.82475,779.72017c.01551-.15707,38.02557-272.17369-195.16851-272.17369-212.56894,0-212.21991,238.51786-211.85919,242.4581l48.66919,10.65918c-.18421-4.456-3.41765-18.21388-3.41765-27.41971,0-91.55708,64.24892-171.86356,165.56345-171.86356A165.77926,165.77926,0,0,1,540.39072,727.15918c0,11.16722,2.10973,32.473,2.10488,52.59105C542.49561,779.75023,570.75688,779.72405,570.82475,779.72017Z" style="mix-blend-mode:soft-light;fill:url(#d)"/><path d="M1960.69131,621.36432c0-6.80427-9.76623-22.667-9.76623-22.667l-140.48422-28.02083,37.23733,37.663S1960.69131,627.85931,1960.69131,621.36432Z" style="mix-blend-mode:soft-light;fill:url(#e)"/><path d="M1430.77756,491.04967,323.65273,391.25436l158.96472-16.98644L934.4382,405.52025l577.75015,21.19717,196.5443,37.11614s-100.3334-4.94856-186.81879,6.59776C1498.76015,473.52319,1430.77756,491.04967,1430.77756,491.04967Z" style="mix-blend-mode:soft-light;fill:url(#f)"/><polygon points="934.438 405.52 935.898 753.327 1386.653 753.327 1430.778 491.05 1430.778 423.731 934.438 405.52" style="mix-blend-mode:multiply;fill:url(#g)"/><polygon points="934.438 405.52 935.898 753.327 1386.653 753.327 1430.778 491.05 1430.778 423.731 934.438 405.52" style="mix-blend-mode:multiply;fill:url(#h)"/><polygon points="1386.653 753.327 935.898 753.327 934.438 405.535 941.9 405.794 943.292 745.904 1380.37 745.904 1427.008 491.072 1414.758 423.942 1422.064 422.608 1434.547 491.023 1434.436 491.661 1386.653 753.327" style="fill:#c0d3e2;mix-blend-mode:multiply"/><path d="M482.61745,374.26792l-63.32,136.84067s88.46714,6.557,130.51729,102.23856c29.80286,67.81291,23.3166,139.98006,23.3166,139.98006h362.767l-1.46014-347.807Z" style="mix-blend-mode:multiply;fill:url(#i)"/><path d="M482.61745,374.26792l-63.32,136.84067s88.46714,6.557,130.51729,102.23856c29.80286,67.81291,23.3166,139.98006,23.3166,139.98006h362.767l-1.46014-347.807Z" style="mix-blend-mode:multiply;fill:url(#j)"/><path d="M935.89834,753.32721H573.1313s9.44434-61.28593-25.06178-143.09714c-38.35134-90.93075-128.77211-99.43658-128.77211-99.43658l66.4507-136.52557,8.06177.77467L429.76172,505.86335c20.04153,3.33427,90.88809,20.97515,123.29515,98.08406,31.76528,75.58188,29.1009,124.734,28.84107,141.957H935.89834Z" style="fill:#c0d3e2;mix-blend-mode:multiply"/><path d="M1386.65259,753.32721H573.1313a500.24507,500.24507,0,0,0-2.18245-60.95532c-3.70269-38.22336-14.11749-60.95629-14.11749-60.95629L1394.65812,705.741Z" style="mix-blend-mode:soft-light;fill:url(#k)"/><path d="M273.29751,396.12148c10.64071,19.0506-.449,84.207-66.888,131.21924-54.63776,38.66159-118.7664,89.075-118.7664,89.075l24.17367-46.1872Z" style="fill:#c0d3e2;mix-blend-mode:soft-light"/><path d="M1727.07548,470.43131c.61857,13.60854,66.80555,98.97216,87.21933,101.44644,20.41281,2.47428,136.63027,26.81956,136.63027,26.81956s-.52259-78.23456-69.67444-92.52566C1812.09976,491.88154,1727.07548,470.43131,1727.07548,470.43131Z" style="fill:#a3a2a3"/><ellipse cx="1881.15005" cy="550.02154" rx="10.59665" ry="30.1039" style="fill:#a3a2a3"/><path d="M107.13774,446.06276c-4.49675,44.51668-2.21832,123.61316,6.50371,125.84021,8.723,2.227,159.65606-139.62229,159.65606-175.78149,0-6.72961-55.92634-14.69831-115.88007-14.69831C127.48947,381.42317,110.84916,409.318,107.13774,446.06276Z" style="fill:#bc2025"/><polygon points="226.205 452.412 129.707 452.412 144.552 401.976 268.289 401.976 226.205 452.412" style="mix-blend-mode:soft-light;fill:url(#l)"/><polygon points="169.295 512.145 129.707 512.145 129.707 461.709 219.617 461.709 169.295 512.145" style="mix-blend-mode:soft-light;fill:url(#m)"/><path d="M258.14352,389.65946c-9.39689,36.94744-117.54095,141.81734-150.08665,166.054,1.4039,9.422,3.25767,15.59514,5.5856,16.18947,8.722,2.227,159.655-139.62229,159.655-175.78149C273.29751,393.99332,267.68282,391.744,258.14352,389.65946Z" style="fill:#bc2025;mix-blend-mode:multiply"/><path d="M125.58237,427.19444c-3.36529,13.51449.40624,25.21788,7.01078,25.21788s9.19522-11.56765,11.95934-25.21788c2.93578-14.49664,6.60454-25.21885,0-25.21885S129.70682,410.63557,125.58237,427.19444Z" style="fill:#e41e26"/><ellipse cx="129.70657" cy="486.92716" rx="10.82449" ry="25.21788" style="fill:#e41e26"/><ellipse cx="166.18596" cy="409.97798" rx="41.85721" ry="22.68106" style="fill:#fff;mix-blend-mode:soft-light"/><circle cx="327.01827" cy="461.70904" r="35.65746" style="fill:#fff;mix-blend-mode:soft-light"/><path d="M597.0335,473.41267H532.072a21.06213,21.06213,0,0,1-21.00035-21.00035h0A21.06213,21.06213,0,0,1,532.072,431.412H597.0335a21.06209,21.06209,0,0,1,21.00035,21.00035h0A21.06209,21.06209,0,0,1,597.0335,473.41267Z" style="mix-blend-mode:multiply;fill:url(#n)"/><path d="M606.97813,463.468H538.7774a11.08842,11.08842,0,0,1-11.05573-11.05573h0a11.08779,11.08779,0,0,1,11.05573-11.05573h68.20073a11.08842,11.08842,0,0,1,11.05573,11.05573h0A11.089,11.089,0,0,1,606.97813,463.468Z" style="mix-blend-mode:soft-light;fill:url(#o)"/><g style="mix-blend-mode:multiply"><path d="M1048.67295,497.67651H983.71147a21.06209,21.06209,0,0,1-21.00035-21.00035h0a21.06209,21.06209,0,0,1,21.00035-21.00035h64.96148a21.06209,21.06209,0,0,1,21.00035,21.00035h0A21.06209,21.06209,0,0,1,1048.67295,497.67651Z" style="fill:#0080ae;mix-blend-mode:multiply"/></g><ellipse cx="1497.89313" cy="500.4225" rx="26.90828" ry="12.69086" style="fill:#dc5926"/><ellipse cx="1497.89313" cy="500.4225" rx="26.90828" ry="12.69086" style="mix-blend-mode:soft-light;fill:url(#p)"/><path d="M1454.04181,405.52025s-86.74232-24.65263-93.3488-32.67368c-6.60551-8.021-32.08411-50.95834-42.46512-53.78941-10.38-2.83107-38.68971-10.38-46.23956,0-7.54888,10.38092-15.93448,64.29346,4.71878,71.71921s51.42953-.94337,60.86612,3.77444c3.2887,1.64435,10.50114,6.63266,21.31158,7.79418Z" style="fill:#00aeef"/><path d="M1358.88481,385.85011c-10.81043-1.16152-18.02288-6.1508-21.31061-7.79418-9.43755-4.71878-40.2148,3.65131-60.86709-3.77444-7.926-2.85046-11.55116-12.5624-12.61177-24.01855-1.42046,17.53811,1.02085,36.34535,12.61177,40.51342,20.65229,7.42575,51.42953-.94337,60.86709,3.77444,3.28773,1.64435,10.50018,6.63266,21.31061,7.79418l95.158,3.17526s-33.10028-9.41235-59.96735-18.497Z" style="fill:#00aeef;mix-blend-mode:multiply"/><path d="M342.48034,231.08643,194.02258,95.41212S-13.402,8.87729.6865,3.59423C14.775-1.68979,71.38-.54863,78.6525,3.16279,85.92409,6.87421,219.68741,68.324,232.05881,79.04426,244.43021,89.76355,342.4164,188.73378,342.4164,188.73378Z" style="fill:#c0d3e2"/><path d="M342.48034,231.08643s.922-124.00292-5.26366-121.52864-34.63992,39.3393-37.1142,53.69148,0,29.10769,0,29.10769Z" style="fill:#c0d3e2"/><path d="M342.48034,231.08643s.922-124.00292-5.26366-121.52864-34.63992,39.3393-37.1142,53.69148,0,29.10769,0,29.10769Z" style="mix-blend-mode:multiply;fill:url(#q)"/><circle cx="376.45007" cy="730.06878" r="141.64354" style="fill:#191919"/><circle cx="376.94355" cy="729.66085" r="106.96752" style="fill:#010101"/><circle cx="376.94357" cy="730.0523" r="98.65244" style="fill:#47686d"/><path d="M376.94283,629.43094A100.62185,100.62185,0,1,0,477.56515,730.0523,100.62013,100.62013,0,0,0,376.94283,629.43094Zm0,175.42954a76.08362,76.08362,0,1,1,76.0841-76.08411A76.08389,76.08389,0,0,1,376.94283,804.86049Z" style="fill:url(#r)"/><path d="M376.9467,629.32526c21.65092.23948,12.97349,85.62928,12.97349,85.62928s75.40548-36.32014,82.18739-16.491c6.8499,20.026-75.81845,37.66878-75.81845,37.66878S452.5344,797.68,435.75933,810.3326c-16.88366,12.734-60.89133-58.71955-60.89133-58.71955s-40.09161,70.53831-56.73392,58.71955c-16.60341-11.79161,36.66342-72.74014,36.66342-72.74014S274.999,718.029,281.78583,698.46354c6.70828-19.34049,80.62061,14.31922,80.62061,14.31922S355.76892,629.09063,376.9467,629.32526Z" style="fill:url(#s)"/><circle cx="376.94355" cy="730.0523" r="34.43413" style="fill:url(#t)"/><circle cx="362.48765" cy="710.55596" r="5.75084" style="fill:#47686d"/><circle cx="392.17947" cy="710.55596" r="5.75086" style="fill:#47686d"/><circle cx="400.42691" cy="736.36865" r="5.75086" style="fill:#47686d"/><circle cx="353.46019" cy="736.36865" r="5.75086" style="fill:#47686d"/><circle cx="376.0569" cy="753.87864" r="5.75086" style="fill:#47686d"/><circle cx="376.94379" cy="730.0523" r="16.32133" style="fill:url(#u)"/><circle cx="1606.48827" cy="744.99397" r="67.48908" style="fill:#010101"/><circle cx="1606.48827" cy="745.5214" r="53.70603" style="fill:#a3a2a3"/><circle cx="1583.94125" cy="715.11355" r="8.96951" style="fill:#3e3e3e"/><circle cx="1630.25086" cy="715.11355" r="8.96926" style="fill:#3e3e3e"/><circle cx="1643.11455" cy="755.37271" r="8.96975" style="fill:#3e3e3e"/><circle cx="1569.86151" cy="755.37271" r="8.96975" style="fill:#3e3e3e"/><circle cx="1605.105" cy="782.6831" r="8.96948" style="fill:#3e3e3e"/><circle cx="1606.48827" cy="745.5214" r="25.45638" style="fill:#3e3e3e"/><path d="M1898.41451,340.25627c-11.87208-15.48267-40.65595,11.97292-54.65812,25.90431-14.00217,13.93043-55.91174,60.05267-55.91174,60.05267l15.472,11.55116s48.75165-23.48045,89.81674-59.32067C1902.791,370.01356,1910.49407,356.00944,1898.41451,340.25627Z" style="fill:#fbbc95"/><path d="M1967.55473,249.22662c16.14691,8.17812,14.18445,23.97395,5.11348,39.31991-9.07117,15.345-71.69216,84.14975-77.38242,84.97968-5.69026.8309-27.23647-13.89456-26.02163-22.08915,1.214-8.19654,45.50658-74.79073,55.15744-86.11114C1934.0706,254.00551,1948.63318,239.64364,1967.55473,249.22662Z" style="fill:#fbbc95"/><path d="M1938.7951,240.13713c-6.844.81636-11.88081,14.32891-18.53189,25.6406-9.425,16.02755-37.18594,56.24818-37.18594,56.24818a63.682,63.682,0,0,0,20.82389,20.88595c16.25152,9.95238,29.735,9.4647,29.735,9.4647s41.88145-61.2646,43.31153-76.34782C1977.37525,271.5252,1957.78268,237.87518,1938.7951,240.13713Z" style="fill:#d0cccc"/><path d="M1936.22193,159.05017s33.235,38.72752,36.20088,41.32881c11.05185,9.69448,16.88657,6.71022,30.07918,14.08556,15.99265,8.94212,59.30321,63.95315,81.61148,101.01306,13.01615,21.62474,34.477,74.78491,36.72832,99.11663,3.01044,32.53407-47.80537,48.91357-50.06829,50.54046-2.26292,1.62593-24.896-10.63107-33.2748-14.33376-8.37978-3.70269-13.70162-58.32882-22.91617-71.154s-59.85294-47.499-62.54149-50.02369c-17.956-16.86427-24.01952-35.98177-26.24656-40.67243-2.227-4.69163-7.4335-11.47263-7.25511-15.62229.35485-8.26247,18.41651-31.803,16.89627-34.7136-1.51928-2.91251-24.79224-41.93769-24.79224-41.93769Z" style="fill:#fbbc95"/><path d="M1972.42281,200.379l-27.73,49.06966-9.25722-10.8337s-17.52356,27.16181-16.89627,34.7136c.62633,7.55179,7.34334,20.089,9.35524,25.0928,2.01171,5.00285,15.49809,25.07244,29.38392,40.89736,8.12964,9.263,27.35281,16.205,41.04958,32.08226,11.72665,13.593,12.76988,39.52255,12.76988,39.52255a153.01707,153.01707,0,0,1,48.30275-8.10734c31.93392.04848,55.12932-16.0101,55.58985-17.72911,1.97593-7.37339-32.77451-77.47249-34.9589-82.35222-2.18536-4.87972-41.97841-62.68887-50.24669-71.27807-11.99618-12.46157-26.1147-25.08311-42.85584-27.39741C1976.9536,202.67972,1972.42281,200.379,1972.42281,200.379Z" style="fill:#d0cccc"/><path d="M1976.0334,203.23333s20.65907,17.60985,9.94947,53.451c-4.62279,15.473,1.6492,31.8486-5.65245,41.40638-26.09144,34.15515,54.20146,107.24045,62.16628,109.994,7.96288,2.75254,30.6358-5.58361,30.6358-5.58361l41.85808-17.414c11.38537-5.189-32.52922-72.3-36.15144-85.352-3.62125-13.053-40.43877-57.74128-46.42183-65.22229C2004.45659,199.55487,1976.0334,203.23333,1976.0334,203.23333Z" style="fill:#d0cccc"/><path d="M1868.58644,156.84446c3.14133-15.472,25.12383-43.54422,51.96666-35.178,26.8438,8.36427,33.9719,30.70162,34.71554,47.19262.58076,12.862-1.49213,21.71588-8.92854,34.69421-1.51724,2.64686-19.355,20.99163-24.44127,22.56617-3.4797,1.07813-20.38372-17.68257-21.13706-17.01067-.75334.67286-3.89563,1.10528-5.21324-.45859-1.91873-2.27552-9.93008-18.76264-11.63745-19.87859C1882.20371,187.65661,1864.98652,174.57454,1868.58644,156.84446Z" style="fill:#fbbc95"/><path d="M1869.51236,170.00216s9.17578-20.03759,41.32881-16.46385c6.92168.76982,10.78522,22.61368,12.86974,23.28848,2.23674.72425,6.76161-22.9569,7.544-20.72306,7.96094,22.75038,21.554,28.59577,23.34471,27.47207,5.42567-3.40989,2.21347-41.34045-21.171-56.91425-23.3834-15.57478-47.77823-1.114-52.41653,3.99744C1876.373,135.77042,1860.75155,148.96787,1869.51236,170.00216Z" style="fill:#603913"/><path d="M1925.17784,166.86083c2.49949,7.26771,7.47617,15.90151,11.39022,14.517,3.91212-1.38354,5.05909-8.3982,2.55863-15.66688-2.49949-7.26771-7.69819-12.03788-11.61128-10.65336C1923.60136,156.44113,1922.67738,159.59215,1925.17784,166.86083Z" style="fill:#fbbc95"/><rect x="2001.3755" y="836.81303" width="29.61946" height="5.52794" transform="translate(4067.50191 1589.23846) rotate(177.46727)" style="fill:#191919"/><path d="M2027.97389,797.31645c4.11281,5.25591,7.20372,15.64943,7.8,20.469.72037,5.80952-2.21153,18.25654-6.04609,18.42621a284.73759,284.73759,0,0,0-36.01076,3.60574c-11.47176,2.06513-15.49149,8.8917-45.00446,10.12884-8.61141.36067-23.82658.51677-23.98267-3.01141-.67577-15.281,27.87249-11.10517,36.49078-19.78357,21.79635-21.95148,36.71281-27.68343,36.71281-27.68343S2027.12941,796.23638,2027.97389,797.31645Z" style="fill:#191919"/><polygon points="2148.171 857.452 2177.789 857.316 2177.753 851.608 2148.135 851.745 2148.171 857.452" style="fill:#191919"/><path d="M2176.33566,811.41073c3.91115,5.59234,6.60755,16.44252,7.02242,21.43956.50028,6.02379-2.89894,18.74519-6.73737,18.76264a275.8654,275.8654,0,0,0-36.11944,2.24353c-11.53953,1.65986-15.81425,8.53782-45.35145,8.60278-8.61819.01842-24.06218-.45375-23.85082-4.09245,1.06262-18.305,28.27-10.31208,37.20824-18.91292,22.60883-21.75369,37.729-27.05613,37.729-27.05613S2175.5319,810.26182,2176.33566,811.41073Z" style="fill:#191919"/><path d="M2064.57713,401.78265s34.51194,40.57063,34.32772,57.85568-15.86661,63.0699-26.6751,105.38474c-10.80752,42.31581-13.848,55.32808-13.56394,65.64792.28408,10.3179,5.74262,57.13143.94918,84.30391-4.7944,27.17054-10.70281,97.94445-10.70281,97.94445s-19.1427.93852-33.396.66608c-14.25329-.27147-26.02638-13.57267-26.02638-13.57267s7.14254-161.16947,7.30252-178.24413c.10277-11.046-.11635-87.39288,4.25146-149.10445,1.4039-19.85726,8.93145-65.2698,9.868-73.43725Z" style="fill:#2d5879"/><path d="M2118.57208,394.20372s13.0685,24.21343,15.5612,45.397c2.01859,17.1658,1.22163,49.26842,1.0316,92.94159s4.48706,83.63493,7.27256,93.57567c2.78647,9.93978,20.50782,51.26083,23.939,78.63789,4.03137,32.16758,16.491,105.79582,16.491,105.79582a141.526,141.526,0,0,1-26.07107,9.05361c-13.89165,3.20338-33.20014,1.54739-33.20014,1.54739s-35.655-168.06682-44.06584-182.96c-13.4253-23.77228-25.3381-102.63414-39.42947-155.62367-5.68541-21.37654-17.30348-69.22748-17.30348-69.22748Z" style="fill:#2d5879"/><path d="M2100.83522,389.898l-21.99608-90.16287s22.24137,34.93175,36.03315,71.1307c1.146,3.00656,5.03582,11.10226.11829,14.22129C2108.91056,388.94393,2100.83522,389.898,2100.83522,389.898Z" style="fill:#2d5879"/><polygon points="1946.499 239.292 1944.693 249.449 1962.46 223.635 1946.499 239.292" style="fill:#a39d9d"/><polygon points="1944.693 249.449 1935.436 238.615 1934.6 245.967 1944.693 249.449" style="fill:#a39d9d"/><polygon points="1936.812 240.225 1937.123 252.271 1930.539 246.569 1933.554 235.323 1936.812 240.225" style="fill:#d0cccc"/><path d="M2002.64451,413.67025c-5.51574-1.39324-5.66118-18.88577-13.38651-29.704-21.01393-29.42764-52.33509-70.81269-52.33509-70.81269l54.09578-32.9151,92.6769,117.67663S2014.572,416.68166,2002.64451,413.67025Z" style="fill:#2d5879"/><path d="M2002.64451,413.67025l3.67845,16.47645s46.5789-4.51808,81.055-17.51872c34.47509-13.0016,33.014-15.21508,33.014-15.21508l-5.40134-12.32583s-10.4517,4.20007-34.84352,12.43248C2056.44846,405.51831,2002.64451,413.67025,2002.64451,413.67025Z" style="fill:#2d5879"/><polygon points="2083.654 396.331 2104.333 461.085 2100.835 389.898 2083.654 396.331" style="fill:#2d5879"/><path d="M1983.26233,286.28459c-5.72226-10.60683-17.34808-76.06471,25.70168-73.43628l-15.03183-7.34722s-17.07369-2.37345-26.68964,22.82116c-8.93242,23.40386-6.111,46.58957,4.329,65.07589S1990.12283,298.9992,1983.26233,286.28459Z" style="fill:#2d5879"/><path d="M1936.92291,313.1536s-22.96368-37.13553-14.66437-51.384a85.08362,85.08362,0,0,0,4.839-9.24074s3.13842,23.55511,11.27785,39.17157c8.14021,15.61647,14.7496,26.14282,10.00852,29.34135S1936.92291,313.1536,1936.92291,313.1536Z" style="fill:#2d5879"/><path d="M1997.59522,230.45913c18.08968.02909,23.57343,14.57905,22.53408,31.84763-1.03838,17.2676-29.36753,126.30171-34.04462,129.509-4.67709,3.20823-30.55716-.13574-33.22826-7.77091-2.672-7.63517,10.3848-106.74113,13.77918-120.77336C1970.031,249.23923,1976.39795,230.42423,1997.59522,230.45913Z" style="fill:#fbbc95"/><path d="M1990.50193,224.68452c-8.63865,2.83689-21.86325,21.44731-24.17077,34.36457-3.26834,18.304-15.3256,65.6644-15.3256,65.6644a63.68117,63.68117,0,0,0,26.78272,12.35007c18.69768,3.68621,31.17088-1.45626,31.17088-1.45626s15.11521-71.52336,14.08749-86.63955C2022.3418,238.582,2011.417,217.81917,1990.50193,224.68452Z" style="fill:#d0cccc"/><path d="M1984.1388,373.6096c16.24376,11.11972-8.11413,47.32933-20.56406,62.91865-12.4509,15.58932-53.31433,57.32437-53.31433,57.32437l-15.44874-10.88606s24.53241-48.95138,53.05449-95.84635C1950.80292,382.29188,1959.03533,356.42247,1984.1388,373.6096Z" style="fill:#fbbc95"/><path d="M1807.3898,426.63889s2.6584,14.95039-7.58873,20.11613c-10.24809,5.16671-23.9245,2.228-27.27137,2.26292-13.80439.14737-25.65029,12.606-33.95251,13.911-8.30222,1.304-9.29018-2.96778-6.51728-4.24661,15.54084-7.16688,21.95923-16.33587,29.23082-18.78785,7.27062-2.452,31.295-17.59143,31.295-17.59143Z" style="fill:#fbbc95"/><path d="M1805.94606,436.824s1.33022,7.68268-10.26836,14.60135c-6.35352,3.79-15.91324,2.05447-21.61029,4.83124s-5.14916-.62633-4.93586-1.56485,7.26471-4.28345,10.21213-6.19152C1782.29012,446.59213,1790.91616,433.43734,1805.94606,436.824Z" style="fill:#fbbc95"/><path d="M1911.02247,492.49138s-4.14578,15.39347-15.62132,15.248c-11.47457-.14543-22.38283-7.75055-25.36816-9.263-12.31516-6.24-28.45519-3.79092-36.42291-6.46493-7.96772-2.673-7.50137-7.07768-4.45215-6.93322,17.095.81345,27.26749-3.279,34.85031-2.1,7.58184,1.17994,35.88093-1.16539,35.88093-1.16539Z" style="fill:#fbbc95"/><polygon points="1979.181 198.987 1965.515 194.682 1946.499 239.292 1960.707 250.013 1979.181 198.987" style="fill:#d0cccc"/><path d="M1462.03216,466.49884c16.491-10.42746,30.69919,26.37822,39.02565,44.2896s35.035,74.57764,35.035,74.57764l-18.51056,5.49344s-31.70527-38.24922-57.85779-86.07108C1453.57368,493.54074,1445.2532,477.1076,1462.03216,466.49884Z" style="fill:#af7856"/><path d="M1428.6032,357.1855c-17.9782,2.09616-21.59371,17.59628-18.38452,35.13148,3.21016,17.5352,43.81955,104.31641,48.87282,107.06217,5.05327,2.74478,28.78256-4.37164,26.43274-12.31625-3.92385-13.26629-16.86225-85.90851-22.00674-99.86608C1458.37406,373.23923,1449.67045,354.73158,1428.6032,357.1855Z" style="fill:#af7856"/><path d="M1458.73182,358.59328c6.1411,3.13066,6.19927,17.55168,8.532,30.46506,3.30615,18.29726,15.4594,65.63241,15.4594,65.63241a63.67891,63.67891,0,0,1-26.75751,12.40436c-18.689,3.724-31.17379-1.39227-31.17379-1.39227s-18.13341-71.9616-14.26387-86.61046C1411.6827,374.71779,1441.695,349.91,1458.73182,358.59328Z" style="fill:#d0cccc"/><path d="M1475.96267,274.13521s-16.94677,16.25434-33.46685,20.3876c-14.26087,3.568-26.32219,5.22-41.0554,8.59017-17.861,4.08663-74.88575,44.70865-106.7101,74.00637-18.5697,17.095-54.1054,62.081-63.1048,84.80032-12.03109,30.37586,32.13275,60.3765,33.8478,62.57349s26.87968-3.20532,35.96238-4.40368c9.08173-1.19933,29.54116-52.12761,41.9881-61.84633,12.448-9.71872,70.79039-28.76447,74.08005-30.43112,21.97184-11.13814,33.16338-27.78135,36.61876-31.6576s10.35862-8.92079,11.35338-12.9541c1.98175-8.02784-2.36763-22.36644-9.38758-40.69279-5.69775-14.8746,36.41747-37.124,36.41747-37.124Z" style="fill:#bc8d6f"/><path d="M1434.26535,298.04905l12.82321,54.884,11.92735-7.79514s9.1845,30.99152,6.46008,38.06241c-2.72345,7.07186-12.69329,17.21622-16.02949,21.45313-3.33718,4.23594-21.92045,19.707-39.69408,30.99152-10.40427,6.60454-30.80448,7.865-48.41142,19.25226-15.07352,9.74975-23.36217,34.3413-23.36217,34.3413a153.019,153.019,0,0,0-44.07739-21.35521c-30.661-8.92854-60.40664-18.93425-60.36591-20.7124.17549-7.63129,65.22519-77.06432,68.69326-81.1335,3.46709-4.06918,57.90416-48.3648,68.25309-54.28485,15.01535-8.58823,32.11134-16.73241,48.82824-14.24941C1429.27025,298.98272,1434.26535,298.04905,1434.26535,298.04905Z" style="fill:#d0cccc"/><path d="M1429.99838,299.7729s-24.77479,11.09354-24.57014,48.50054c.08815,16.14875-10.53322,30.10148-6.212,41.3259,15.441,40.11106-82.1554,87.68666-90.573,88.09-8.41565.4043-27.83177-13.96824-27.83177-13.96824l-45.75091-12.94343c-9.46858-8.181,62.01123-75.77579,69.15476-87.28429,7.14361-11.50947,55.03624-44.04936,62.88083-49.54668C1403.75375,288.2547,1429.99838,299.7729,1429.99838,299.7729Z" style="fill:#d0cccc"/><path d="M1546.15185,285.45078c1.33313-15.73184-11.874-48.85054-39.986-48.36577-28.11294.4838-41.23089,19.91737-46.57987,35.53481-4.171,12.1804-4.6703,21.26019-1.18091,35.80531.71165,2.96681,2.449,20.37837,17.98605,26.36331,5.205,2.005,23.6598-9.07922,24.194-8.22312.53422.858,3.42831,2.1553,5.13286,1.02578,2.48-1.64532,12.72046-17.54554,14.67312-18.136C1522.34283,308.86465,1544.62482,303.47657,1546.15185,285.45078Z" style="fill:#bc8d6f"/><path d="M1541.56493,297.81733s2.48462-13.84209-29.37658-19.448c-6.85856-1.20708-22.36514,10.70367-24.55438,10.76572-2.35018.0669-.03878-23.93226-1.41651-22.00771-14.03417,19.59548-28.72613,22.76846-30.12906,21.18713-4.24855-4.79731,9.49811-41.67944,36.3167-50.05341,26.81868-8.3759,46.16587,12.35783,49.18116,18.56679C1544.60155,263.0378,1555.88512,280.0921,1541.56493,297.81733Z" style="fill:#40180f"/><path d="M1489.02624,279.15843c-4.44149,6.273-11.64327,13.15964-15.0105,10.7319-3.36618-2.42871-2.49561-9.48215,1.94693-15.75511,4.4414-6.273,10.77165-9.39,14.13783-6.96134C1493.46773,269.60162,1493.4687,272.88547,1489.02624,279.15843Z" style="fill:#bc8d6f"/><rect x="1316.34834" y="896.94036" width="29.62043" height="5.52696" transform="matrix(0.99902, 0.04419, -0.04419, 0.99902, 41.05695, -57.94326)" style="fill:#010101"/><path d="M1319.36937,857.44281c-4.11281,5.25688-7.20275,15.64943-7.8,20.469-.7194,5.80952,2.2125,18.25654,6.04608,18.42621a284.9543,284.9543,0,0,1,36.01182,3.60671c11.47069,2.06513,15.49043,8.89073,45.00339,10.12787,8.6115.36164,23.82658.51677,23.98267-3.01141.67577-15.28-27.87249-11.1042-36.48981-19.7826-21.79732-21.95148-36.71377-27.68343-36.71377-27.68343S1320.2149,856.36274,1319.36937,857.44281Z" style="fill:#010101"/><polygon points="1199.172 917.578 1169.554 917.443 1169.59 911.735 1199.208 911.871 1199.172 917.578" style="fill:#191919"/><path d="M1171.0076,871.53806c-3.91115,5.59234-6.60745,16.44155-7.02242,21.43859-.49931,6.02379,2.89894,18.74616,6.73737,18.76361a275.86161,275.86161,0,0,1,36.11944,2.24256c11.5405,1.65986,15.81425,8.53782,45.35145,8.60278,8.61926.01842,24.06226-.45375,23.85082-4.09245-1.06262-18.305-28.27-10.31208-37.20824-18.91292-22.60786-21.75272-37.72889-27.05516-37.72889-27.05516S1171.81135,870.38915,1171.0076,871.53806Z" style="fill:#191919"/><path d="M1282.76613,461.909s-34.51194,40.57063-34.32772,57.85568c.18421,17.286,15.86661,63.0699,26.6751,105.38571,10.80857,42.31484,24.83774,53.6525,24.55367,63.97137s-11.12011,59.16182-6.3257,86.33333c4.79343,27.17151,18.22791,102.45675,18.22791,102.45675s6.99523,1.02945,20.25768-4.1991c19.39118-7.64472,26.02648-13.57267,26.02648-13.57267s-7.14264-161.17044-7.30156-178.2451c-.10382-11.046.11529-87.39191-4.25154-149.10445-1.40487-19.85629-8.93242-65.26883-9.869-73.43725Z" style="fill:#2d5879"/><path d="M1228.77117,454.33007s-20.34544,25.02952-23.71337,46.09267c-8,50.03236,6.93151,48.57277,7.12065,92.24594.19,43.67317,6.33152,85.84566,3.546,95.78641-2.78647,9.93978-29.68537,51.25969-33.11659,78.63771-4.03129,32.16661-11.60028,104.44525-11.60028,104.44525s5.6476,4.99122,19.53925,8.1946a91.349,91.349,0,0,0,26.6512,1.8922s42.204-168.4126,50.61478-183.30578c13.4253-23.77228,25.3381-102.63414,39.42955-155.62367,5.68533-21.37654,17.3034-69.22748,17.3034-69.22748Z" style="fill:#2d5879"/><path d="M1246.508,450.02432l63.71658-93.26057s-50.2845,44.49244-73.69417,75.35695c-1.94394,2.56348-7.95221,9.23977-4.1099,13.61533C1237.17132,451.14512,1246.508,450.02432,1246.508,450.02432Z" style="fill:#2d5879"/><polygon points="1448.208 342.678 1447.089 352.933 1437.291 323.167 1448.208 342.678" style="fill:#a39d9d"/><polygon points="1447.089 352.933 1459.016 345.138 1457.753 352.429 1447.089 352.933" style="fill:#a39d9d"/><polygon points="1457.243 346.297 1453.56 357.769 1461.48 354.148 1461.747 342.508 1457.243 346.297" style="fill:#d0cccc"/><path d="M1344.69875,473.79661s13.41841-22.30088,34.19239-28.5822c34.61206-10.46546,57.74959-28.95935,57.74959-28.95935l-42.66484-46.79123-130.28654,86.99343S1299.71281,471.873,1344.69875,473.79661Z" style="fill:#2d5879"/><path d="M1434.89114,420.9551c0,12.41437-12.569,22.97738-24.9834,22.97738a22.4782,22.4782,0,1,1,0-44.95641C1422.32211,398.97608,1434.89114,408.54073,1434.89114,420.9551Z" style="fill:#2d5879"/><path d="M1344.69875,473.79661l-3.6774,16.47742s-46.57995-4.51905-81.056-17.51969c-34.475-13.00063-33.014-15.21508-33.014-15.21508l5.40134-12.32486s10.45267,4.20007,34.84352,12.43151C1290.89479,465.64467,1344.69875,473.79661,1344.69875,473.79661Z" style="fill:#2d5879"/><polygon points="1263.689 456.457 1243.01 521.211 1246.508 450.024 1263.689 456.457" style="fill:#2d5879"/><path d="M1399.7205,377.44509c8.47192-8.57074,38.02563-68.12311-4.02759-77.69934l8.69823-2.10315,7.79274-.72406s17.05249,2.52179,19.2,29.40344c1.99536,24.96967-7.229,46.42859-22.44311,61.23547C1393.72587,402.3644,1389.56351,387.71938,1399.7205,377.44509Z" style="fill:#2d5879"/><path d="M1436.64073,416.25506s32.47492-29.18526,28.5153-45.19245a84.95307,84.95307,0,0,1-2.04768-10.2287s-9.63243,21.7246-21.83222,34.42371c-4.57525,4.76253-8.99945,9.12763-12.22909,12.66932Z" style="fill:#152f55"/><path d="M1401.65469,319.84152c-17.3694-5.05618-26.72067,7.36661-30.57655,24.23088-3.85685,16.86427-5.70755,130.49066-2.12023,134.8827,3.58627,4.392,27.51789-3.92562,32.227-10.50205,4.71005-6.57643,20.27374-93.99995,20.96018-108.421C1422.82956,345.612,1422.00641,325.76544,1401.65469,319.84152Z" style="fill:#af7856"/><path d="M1410.08392,316.294c7.49459,5.14926,14.95524,26.72649,13.53873,39.77172-2.007,18.48535-3.74535,67.32523-3.74535,67.32523a63.67616,63.67616,0,0,1-29.17362,4.32514c-18.97982-1.71706-29.50609-10.15793-29.50609-10.15793s5.59516-72.88751,10.82877-87.1059C1375.62239,320.68212,1391.94186,303.82657,1410.08392,316.294Z" style="fill:#d0cccc"/><path d="M1373.918,461.399c-13.77688,8.05607.12189,47.47839,7.72312,66.3438,7.60221,18.86541,29.11176,72.98569,29.11176,72.98569l18.45045-6.43681s-11.31051-35.33661-23.6191-109.43356C1404.63864,479.1656,1400.61023,445.79067,1373.918,461.399Z" style="fill:#af7856"/><path d="M1517.60359,579.01264s-7.66038,13.11116.17161,21.49967c7.831,8.38851,21.681,10.35571,24.80873,11.54535,12.90465,4.90784,19.71474,20.692,27.05516,24.78546,7.34052,4.09245,9.74393.42466,7.58378-1.73355-12.10768-12.09508-14.963-22.91714-20.93927-27.73-5.97531-4.81379-23.28945-27.32082-23.28945-27.32082Z" style="fill:#af7856"/><path d="M1515.43956,589.06877s-3.90242,6.75,4.5908,17.24918c4.65285,5.75231,14.22226,7.42672,18.60945,12.001s5.04939,1.19157,5.17349.23754-5.33735-6.52989-7.44417-9.33866C1534.26329,606.40909,1530.71378,591.08348,1515.43956,589.06877Z" style="fill:#af7856"/><path d="M1410.11009,599.13459s1.07725,15.90636,12.36276,17.99185c11.28445,2.08646,23.46195-3.25573,26.68471-4.16032,13.29247-3.72887,28.6491,1.80723,36.98428.732s8.73366-5.48666,5.71353-5.93653c-16.92729-2.52179-26.11083-8.51261-33.778-8.82771s-34.97247-8.11122-34.97247-8.11122Z" style="fill:#af7856"/><polygon points="1428.172 294.814 1442.496 294.523 1448.208 342.678 1431.56 348.974 1428.172 294.814" style="fill:#d0cccc"/><path d="M1478.8208,244.74441s29.60507-22.92393,56.86287,5.20549c27.2578,28.13039,1.84513,58.97163,1.84513,58.97163s-17.70883-12.09411-37.952-32.98006C1479.33369,255.05456,1478.8208,244.74441,1478.8208,244.74441Z" style="fill:#2d5879"/><path d="M1491.02544,266.39533s45.37375,63.10965,46.58666,63.38791c1.21193.27826,7.18142.87356,9.4521,1.719,2.27165.84641,2.94063,4.73526,4.40174,4.21752s-11.937-29.57792-11.937-29.57792-13.68416-8.82189-20.30034-13.3487C1512.61237,288.26731,1492.94708,264.69281,1491.02544,266.39533Z" style="fill:#2d5879"/><circle cx="1480.46033" cy="766.41122" r="156.02795" style="fill:#191919"/><circle cx="1480.46008" cy="764.548" r="117.83033" style="fill:#010101"/><circle cx="1480.46006" cy="766.47012" r="108.67101" style="fill:#47686d"/><path d="M1369.61994,766.47037A110.83993,110.83993,0,1,0,1480.46031,655.63,110.84,110.84,0,0,0,1369.61994,766.47037Zm27.03-1.40584a83.81041,83.81041,0,1,1,83.81041,83.81041A83.8106,83.8106,0,0,1,1396.64989,765.06453Z" style="fill:#a3a2a3"/><path d="M1480.45643,655.51365c-23.84888.26372-14.2911,94.3261-14.2911,94.3261s-83.06289-40.00926-90.53421-18.16637c-7.545,22.0591,83.51858,41.49363,83.51858,41.49363s-61.95686,67.79837-43.47829,81.73559c18.59782,14.02738,67.07509-64.68322,67.07509-64.68322s44.16279,77.70228,62.49592,64.68322c18.28853-12.989-40.3873-80.12614-40.3873-80.12614s87.90181-21.55106,80.42661-43.10308c-7.38987-21.30479-88.80842,15.77353-88.80842,15.77353S1503.78466,655.25478,1480.45643,655.51365Z" style="fill:#a3a2a3"/><circle cx="1480.46006" cy="766.47012" r="37.93104" style="fill:#a3a2a3"/><circle cx="1496.38412" cy="744.99397" r="6.33501" style="fill:#e3e2e2"/><circle cx="1463.67723" cy="744.99397" r="6.33477" style="fill:#e3e2e2"/><circle cx="1454.59186" cy="773.42782" r="6.33501" style="fill:#e3e2e2"/><circle cx="1506.32778" cy="773.42782" r="6.33501" style="fill:#e3e2e2"/><circle cx="1481.43666" cy="792.71596" r="6.33503" style="fill:#e3e2e2"/><circle cx="1480.46006" cy="766.47012" r="17.97876" style="fill:#a3a2a3"/><path d="M1486.15174,245.351h0a10.47515,10.47515,0,0,0,.95821-14.783l-1.47953-1.68463a12.5448,12.5448,0,0,0-17.70388-1.14754l-42.55844,37.37713a4.56173,4.56173,0,0,1-6.43778-.41736h0a3.80134,3.80134,0,0,1,.34774-5.36473l.57126-.50171a3.80143,3.80143,0,0,0,.34767-5.36481h0a3.80134,3.80134,0,0,0-5.36473-.34773h0a18.247,18.247,0,0,0-1.66922,25.751l.00007.00008a20.52779,20.52779,0,0,0,28.9699,1.87779l35.41786-31.10588S1486.22112,244.28054,1486.15174,245.351Z" style="fill:#40180f"/></g></svg>