<svg xmlns="http://www.w3.org/2000/svg" viewBox="0 0 1116 1108"><title>frame2-speedometer</title><path d="M557.03162,7.9364C255.94827,7.9364,11,252.88492,11,553.96822c0,301.08214,244.94827,546.03152,546.03162,546.03152,301.08214,0,546.03153-244.94929,546.03153-546.03157,0-301.08326-244.94929-546.03177-546.03153-546.03177" style="fill:#bfbebf"/><path d="M557.03162,1073.00521c-286.65662,0-519.03791-232.38005-519.03791-519.03665S270.375,34.93046,557.03162,34.93046c286.65645,0,519.0367,232.38145,519.0367,519.038s-232.38015,519.03665-519.03665,519.03665" style="fill:#223140"/><path d="M545.11739,474.68541a79.6561,79.6561,0,1,1,56.83347,148.82988c-41.09808,15.69516-357.87557,51.3967-357.87557,51.3967s259.944-184.532,301.0421-200.22654" style="fill:#ed2e32"/><path d="M123.75374,643.87495a446.09323,446.09323,0,0,1-10.68146-78.92024l56.221-2.54049a389.60377,389.60377,0,0,0,9.3281,68.93638Z" style="fill:#304756"/><path d="M991.70245,623.88083l-54.6413-9.97949c4.09221-22.70948,6.91494-46.03052,6.91494-69.32019v2.22126H996.0769v-2.40213c0,26.80857.30794,53.48774-4.37445,79.48056" style="fill:#304756"/><path d="M167.00091,546.80269H113.07258v-2.0415c0-26.64786,4.60773-53.17724,9.23781-79.02946L175.172,475.654c-4.04541,22.58586-8.17116,45.77746-8.17116,68.92742Z" style="fill:#304756"/><path d="M944.74729,526.3518a389.32922,389.32922,0,0,0-9.39852-68.92494L990.202,444.84448a446.03874,446.03874,0,0,1,10.76514,78.91044Z" style="fill:#304756"/><path d="M178.44446,458.59423l-54.89338-12.41187a442.51082,442.51082,0,0,1,24.53255-75.85L199.84749,392.417a385.984,385.984,0,0,0-21.403,66.17718" style="fill:#304756"/><path d="M931.07564,440.5539a386.394,386.394,0,0,0-24.56283-65.05007l50.64276-24.547a442.94471,442.94471,0,0,1,28.14949,74.55127Z" style="fill:#304756"/><path d="M207.0517,376.53234,156.33652,352.133a445.39324,445.39324,0,0,1,40.85036-68.40416l45.53845,33.0649a389.02179,389.02179,0,0,0-35.67362,59.73862" style="fill:#304756"/><path d="M898.57836,360.03912a389.588,389.588,0,0,0-38.47522-57.96107l43.9196-35.19053a446.01984,446.01984,0,0,1,44.04458,66.358Z" style="fill:#304756"/><path d="M253.28028,302.92244l-44.01664-35.06853a448.13315,448.13315,0,0,1,54.9781-57.61351l37.0917,42.32315a391.717,391.717,0,0,0-48.05313,50.35889" style="fill:#304756"/><path d="M848.91876,288.73631a391.79282,391.79282,0,0,0-50.38495-48.0295l35.04553-44.03314a448.30347,448.30347,0,0,1,57.6435,54.94473Z" style="fill:#304756"/><path d="M314.68308,241.38064l-35.1683-43.93617a446.10461,446.10461,0,0,1,66.37813-44.013l26.77277,49.502a389.74878,389.74878,0,0,0-57.98259,38.44714" style="fill:#304756"/><path d="M784.65836,230.16017a389.14992,389.14992,0,0,0-59.75767-35.64327l24.37294-50.72717a445.46156,445.46156,0,0,1,68.42648,40.813Z" style="fill:#304756"/><path d="M388.13359,195.01266,363.611,144.35794a442.68265,442.68265,0,0,1,74.56486-28.11246l15.01921,54.23707a386.2727,386.2727,0,0,0-65.06156,24.53011" style="fill:#304756"/><path d="M709.01172,187.32063a385.96672,385.96672,0,0,0-66.1885-21.3683l12.38177-54.899a442.42842,442.42842,0,0,1,75.86344,24.49251Z" style="fill:#304756"/><path d="M470.06926,166.216l-12.55474-54.85973a445.853,445.853,0,0,1,78.91825-10.72039l2.56492,56.21892a389.47065,389.47065,0,0,0-68.92848,9.3612" style="fill:#304756"/><path d="M625.76149,165.13681c-22.51993-4.022-45.852-3.42928-68.93857-3.42928h-.20754V98.28032h.20754c26.39572,0,52.95322,4.59234,78.72967,9.19668Z" style="fill:#304756"/><path d="M454.21829,15.28944q.37625-2.10535.76379-4.1922Q454.59464,13.18606,454.21829,15.28944Z" style="fill:#60718d"/><path d="M451.36453,32.23249c.06952-.43956.14263-.86411.2121-1.29975C451.50716,31.36838,451.43405,31.79293,451.36453,32.23249Z" style="fill:#60718d"/><path d="M517.79058,736.72518c.151-.74677.29664-1.51012.45042-2.25156C518.08722,735.21758,517.94159,735.97841,517.79058,736.72518Z" style="fill:#60718d"/></svg>