<svg xmlns="http://www.w3.org/2000/svg" viewBox="0 0 929 731"><title>check-engine</title><circle cx="457.45225" cy="468.95932" r="231.57789" style="fill:#a61e22"/><polygon points="568.275 352.813 574.184 346.344 598.918 386.163 608.553 380.175 582.111 337.586 605.661 311.694 597.284 304.072 568.275 335.934 568.275 306.254 556.938 306.254 556.938 384.499 568.275 384.499 568.275 352.813" style="fill:#f6921e"/><polygon points="491.738 371.394 451.017 371.394 451.017 348.825 485.197 348.825 485.197 337.928 451.017 337.928 451.017 315.377 491.738 315.377 491.738 304.505 440.094 304.505 440.094 382.121 491.738 382.121 491.738 371.394" style="fill:#f6921e"/><polygon points="384.741 346.66 414.037 346.66 414.037 381.402 425.086 381.402 425.086 305.181 414.037 305.181 414.037 335.568 384.741 335.568 384.741 305.181 373.705 305.181 373.705 381.402 384.741 381.402 384.741 346.66" style="fill:#f6921e"/><path d="M525.387,382.2003c16.709,0,23.23977-14.093,24.33113-21.53332l-10.91364-1.70144c-.20854,1.2743-2.27476,12.22081-13.41749,12.22081a14.11164,14.11164,0,0,1-10.5-4.31134c-5.69644-5.83567-7.55117-15.977-7.40968-23.56215.07932-4.06767,1.22711-24.28289,15.78681-27.53269,10.96623-2.44042,15.25158,10.04884,15.72264,11.44017l10.56213-3.257c-2.54373-8.18318-11.7949-22.74624-28.69267-19.00218-17.531,3.95212-24.11005,22.25916-24.42255,38.11332-.25669,12.70163,3.68977,24.5014,10.54254,31.49713A25.23915,25.23915,0,0,0,525.387,382.2003Z" style="fill:#f6921e"/><path d="M340.34913,381.40163c16.72685,0,23.25213-14.11176,24.33661-21.55069l-10.92748-1.67061c-.18877,1.2625-2.26832,12.17114-13.40913,12.17114a14.07228,14.07228,0,0,1-10.51972-4.31691c-5.68329-5.76344-7.52566-15.9472-7.38608-23.53951.08577-4.03014,1.22041-24.264,15.80649-27.54449,10.95317-2.42727,15.26952,10.04266,15.70854,11.46468l10.549-3.26308c-2.51648-8.2016-11.76677-22.73967-28.671-19.0074-17.566,3.95064-24.12337,22.27048-24.43475,38.09438-.2398,12.75069,3.68769,24.533,10.54236,31.53919A25.25647,25.25647,0,0,0,340.34913,381.40163Z" style="fill:#f6921e"/><path d="M598.58191,479.55768c-.64564-.02882-1.29119-.04489-1.91994-.04489-15.46961,0-22.42233,11.803-24.89266,22.28554h-8.76313v-38.0444H533.37531l-18.86787-26.18673H467.43809V423.70408s30.83821-.04911,41.99026,0c13.06937.06134,12.76445-21.57237,0-21.57237-12.7681-.0118-99.81949-.04815-111.7079,0-11.90078.04345-11.20977,21.57237,0,21.57237H439.7033v13.86313H386.83441l-23.43716,26.18673H332.16364v46.79151H315.49139s.06147-27.39294,0-37.02692c-.066-9.61417-21.57477-9.329-21.57477,0,0,9.33419-.02447,102.5418,0,111.7325.02455,9.1762,21.57477,10.31071,21.57477,0V548.2288h16.67225v47.04032h77.11774L435.99,616.858H563.00618V590.1353h8.90958c2.98083,11.84166,10.89622,22.20953,24.05537,22.20953a25.43136,25.43136,0,0,0,3.11292-.17741c26.53684-3.23765,27.02584-49.33824,27.20138-66.70651C626.7309,502.99371,617.41939,480.83934,598.58191,479.55768ZM465.14965,461.69245l-3.33139,86.338L445.63519,548.03l-3.33452-86.33817ZM453.72681,586.795c-8.32916-.00022-14.04215-6.426-14.04215-14.75758,0-8.56917,5.95052-14.75705,14.042-14.75684,8.56939.00022,14.04215,6.1884,14.04215,14.75758C467.76879,580.36975,462.29612,586.7952,453.72681,586.795Z" style="fill:#f6921e"/></svg>