<svg xmlns="http://www.w3.org/2000/svg" viewBox="0 0 1695 909"><title>frame7-car</title><path d="M-2902.33325,800.85466h495.82265c0-.21243-.02966-.40792-.02966-.6028M643.41693,739.0042H1647.84764c0-157.46623,5.5781-279.38149-55.40408-298.50545-57.64336-18.07691-273.8815-62.14123-336.31712-97.87525l-206.633-201.19568c-55.36281-48.46812-51.02457-35.23127-622.807-37.09355-62.8809-.19488-226.61926,203.52761-289.01175,256.05314C120.62014,374.73787,13.21355,396.299,13.00112,459.67858l-.90481,218.45121v.54954c.02663,28.21008,24.30093,50.45688,52.514,50.45688H211.7699c0-.21243-.03821-.40792-.02672-.6028M631.69781,364.23176l-399.48946,0s168.21852-217.861,222.55315-217.66719l177.91229,1.08056Zm53.42834,0,.65632-216.4751c258.8096.44895,287.13831-7.57029,326.31195,28.47323,179.906,189.9007,166.07013,174.16824,177.2521,188.00192Z" style="fill:#be1e2d"/><path d="M143.85167,431.92256v0a29.08158,29.08158,0,0,0-28.99634,28.99631l0,100.3904c0,15.948,13.04834,13.04835,28.99632,13.04836v0Z" style="fill:#ed2d32"/><rect x="85.02812" y="616.099" width="106.87698" height="122.78428" rx="29.97273" ry="29.97273" style="fill:#929497"/><rect x="1571.68363" y="616.099" width="106.87698" height="122.78428" rx="29.97273" ry="29.97273" style="fill:#be1e2d"/><path d="M1258.49715,564.01184a165.12222,165.12222,0,1,0,164.587,165.65636A165.1173,165.1173,0,0,0,1258.49715,564.01184Z" style="fill:#213140"/><path d="M1257.58636,841.09732A111.96749,111.96749,0,1,1,1369.914,729.4952,111.97276,111.97276,0,0,1,1257.58636,841.09732Z" style="fill:#536a72"/><path d="M1257.63319,826.70407a97.57416,97.57416,0,1,1,97.888-97.25576A97.57875,97.57875,0,0,1,1257.63319,826.70407Z" style="fill:#304856"/><path d="M1340.66448,669.55075l-26.85637,21.98387-25.75723,21.08316a33.51683,33.51683,0,0,0-24.292-17.64023l12.09127-31.01184,12.64145-32.40943A101.41939,101.41939,0,0,1,1340.66448,669.55075ZM1281.475,724.80868a4.15194,4.15194,0,1,1,2.66645-5.22877A4.14972,4.14972,0,0,1,1281.475,724.80868Zm-36.08071,3.151a12.95385,12.95385,0,1,1,12.9559,12.95549A12.96886,12.96886,0,0,1,1245.39425,727.95972Zm2.80871,21.0229a4.15077,4.15077,0,1,1-.91874-5.80109A4.152,4.152,0,0,1,1248.203,748.98262Zm10.14719-48.14371a4.14973,4.14973,0,1,1-4.15792,4.15178A4.15238,4.15238,0,0,1,1258.35014,700.83891Zm11.06388,42.34631a4.153,4.153,0,1,1-.92079,5.7974A4.142,4.142,0,0,1,1269.414,743.18522Zm-41.20534-111.62893,12.63778,32.40943,12.09494,31.01184a33.52392,33.52392,0,0,0-24.2961,17.64023l-25.75313-21.07906-26.85841-21.988A101.41643,101.41643,0,0,1,1228.20868,631.55628Zm12.24337,90.58594a4.15127,4.15127,0,1,1-2.6685-5.23287A4.16327,4.16327,0,0,1,1240.45205,722.14223Zm-83.0732,4.69212,34.70115-2.00558,33.23018-1.91374a32.82967,32.82967,0,0,0,9.26452,28.55365l-28.00141,17.97641L1177.34074,788.214a100.479,100.479,0,0,1-19.98812-60.25425C1157.35262,727.58336,1157.37475,727.2107,1157.37885,726.83435Zm68.70208,96.80766,8.814-33.62213,8.44376-32.19748a33.1059,33.1059,0,0,0,30.025,0l8.43761,32.19748,8.82421,33.61844a100.56761,100.56761,0,0,1-64.54457.00369Zm113.27451-35.43584L1310.127,769.44508l-28.00141-17.9764a33.33162,33.33162,0,0,0,9.68474-23.509,33.78044,33.78044,0,0,0-.42227-5.04469l33.23223,1.91374,34.69911,2.00558c.0041.37635.02624.749.02624,1.12537A100.44932,100.44932,0,0,1,1339.35545,788.20617Z" style="fill:#536a72"/><path d="M482.25694,564.01184a165.12222,165.12222,0,1,0,164.587,165.65636A165.1173,165.1173,0,0,0,482.25694,564.01184Z" style="fill:#213140"/><path d="M481.34615,841.09732A111.96749,111.96749,0,1,1,593.67379,729.4952,111.97276,111.97276,0,0,1,481.34615,841.09732Z" style="fill:#536a72"/><path d="M481.393,826.70407a97.57416,97.57416,0,1,1,97.888-97.25576A97.57875,97.57875,0,0,1,481.393,826.70407Z" style="fill:#304856"/><path d="M564.42427,669.55075l-26.85636,21.98387-25.75723,21.08316a33.51683,33.51683,0,0,0-24.292-17.64023l12.09127-31.01184,12.64145-32.40943A101.41939,101.41939,0,0,1,564.42427,669.55075Zm-59.18953,55.25793a4.15194,4.15194,0,1,1,2.66645-5.22877A4.14972,4.14972,0,0,1,505.23474,724.80868Zm-36.08071,3.151a12.95385,12.95385,0,1,1,12.9559,12.95549A12.96886,12.96886,0,0,1,469.154,727.95972Zm2.80871,21.0229a4.15077,4.15077,0,1,1-.91874-5.80109A4.152,4.152,0,0,1,471.96275,748.98262Zm10.14719-48.14371a4.14973,4.14973,0,1,1-4.15792,4.15178A4.15238,4.15238,0,0,1,482.10993,700.83891Zm11.06388,42.34631a4.153,4.153,0,1,1-.92079,5.7974A4.142,4.142,0,0,1,493.17381,743.18522ZM451.96847,631.55628l12.63778,32.40943,12.09494,31.01184a33.52392,33.52392,0,0,0-24.2961,17.64023L426.652,691.53872l-26.85841-21.988A101.41643,101.41643,0,0,1,451.96847,631.55628Zm12.24337,90.58594a4.15127,4.15127,0,1,1-2.6685-5.23287A4.16327,4.16327,0,0,1,464.21184,722.14223Zm-83.0732,4.69212,34.70116-2.00558L449.07,722.915a32.82967,32.82967,0,0,0,9.26452,28.55365l-28.00141,17.97641L401.10053,788.214a100.479,100.479,0,0,1-19.98812-60.25425C381.11241,727.58336,381.13454,727.2107,381.13864,726.83435ZM449.84072,823.642l8.814-33.62213,8.44376-32.19748a33.1059,33.1059,0,0,0,30.025,0l8.43761,32.19748,8.82421,33.61844a100.56761,100.56761,0,0,1-64.54457.00369Zm113.27451-35.43584-29.22846-18.76109-28.00141-17.9764a33.33162,33.33162,0,0,0,9.68474-23.509,33.78054,33.78054,0,0,0-.42227-5.04469l33.23223,1.91374,34.69911,2.00558c.0041.37635.02624.749.02624,1.12537A100.44932,100.44932,0,0,1,563.11524,788.20617Z" style="fill:#536a72"/></svg>